<?xml version="1.0" encoding="UTF-8" standalone="no"?>
<svg
   xml:space="preserve"
   width="64"
   height="64"
   viewBox="0 0 48 48"
   version="1.1"
   id="svg44"
   sodipodi:docname="Estoniafilm.svg"
   inkscape:version="1.4 (e7c3feb1, 2024-10-09)"
   xmlns:inkscape="http://www.inkscape.org/namespaces/inkscape"
   xmlns:sodipodi="http://sodipodi.sourceforge.net/DTD/sodipodi-0.dtd"
   xmlns="http://www.w3.org/2000/svg"
   xmlns:svg="http://www.w3.org/2000/svg"><sodipodi:namedview
   id="namedview44"
   pagecolor="#ffffff"
   bordercolor="#000000"
   borderopacity="0.25"
   inkscape:showpageshadow="2"
   inkscape:pageopacity="0.0"
   inkscape:pagecheckerboard="0"
   inkscape:deskcolor="#d1d1d1"
   inkscape:zoom="3.749627"
   inkscape:cx="2.1335456"
   inkscape:cy="11.334461"
   inkscape:current-layer="svg44" />
  <defs
   id="defs31">
    <linearGradient
   id="e"
   x1="22.669"
   x2="23.184"
   y1="9.3193"
   y2="11.242"
   gradientUnits="userSpaceOnUse">
      <stop
   offset="0"
   stop-color="#fff"
   id="stop1" />
      <stop
   offset="1"
   stop-color="#cecedb"
   id="stop2" />
    </linearGradient>
    <linearGradient
   id="f"
   x1="22.367"
   x2="24.236"
   y1="7.8496"
   y2="14.824"
   gradientUnits="userSpaceOnUse">
      <stop
   offset="0"
   stop-color="#cecedb"
   id="stop3" />
      <stop
   offset=".0054"
   stop-color="#cbcbd7"
   id="stop4" />
      <stop
   offset=".0705"
   stop-color="#a5a5ad"
   id="stop5" />
      <stop
   offset=".1338"
   stop-color="#87878c"
   id="stop6" />
      <stop
   offset=".1941"
   stop-color="#727274"
   id="stop7" />
      <stop
   offset=".2502"
   stop-color="#656566"
   id="stop8" />
      <stop
   offset=".2977"
   stop-color="#616161"
   id="stop9" />
      <stop
   offset="1"
   id="stop10" />
    </linearGradient>
    <linearGradient
   id="d"
   x1="311.22"
   x2="311.22"
   y1="17.458"
   y2="23.226"
   gradientTransform="matrix(1 0 .2679 1 -292.71 0)"
   gradientUnits="userSpaceOnUse">
      <stop
   offset="0"
   stop-color="#cecedb"
   id="stop11" />
      <stop
   offset=".2977"
   stop-color="#828282"
   id="stop12" />
      <stop
   offset="1"
   id="stop13" />
    </linearGradient>
    <linearGradient
   id="c"
   x1="24.16"
   x2="24.16"
   y1="18.868"
   y2="20.534"
   gradientUnits="userSpaceOnUse">
      <stop
   offset="0"
   stop-color="#fff"
   id="stop14" />
      <stop
   offset="1"
   stop-color="#e9e9ef"
   id="stop15" />
    </linearGradient>
    <linearGradient
   id="b"
   x1="24.947"
   x2="24.947"
   y1="21.048"
   y2="23.1"
   gradientUnits="userSpaceOnUse">
      <stop
   offset="0"
   stop-color="#616161"
   id="stop16" />
      <stop
   offset=".1569"
   stop-color="#88888a"
   id="stop17" />
      <stop
   offset=".326"
   stop-color="#ababae"
   id="stop18" />
      <stop
   offset=".4963"
   stop-color="#c6c6ca"
   id="stop19" />
      <stop
   offset=".6657"
   stop-color="#d9d9df"
   id="stop20" />
      <stop
   offset=".834"
   stop-color="#e5e5eb"
   id="stop21" />
      <stop
   offset="1"
   stop-color="#e9e9ef"
   id="stop22" />
    </linearGradient>
    <linearGradient
   id="a"
   x1="24.948"
   x2="24.948"
   y1="49.257"
   y2="21.948"
   gradientUnits="userSpaceOnUse">
      <stop
   offset=".0056"
   stop-color="#fff"
   id="stop23" />
      <stop
   offset=".045"
   stop-color="#f8f8fa"
   id="stop24" />
      <stop
   offset=".1027"
   stop-color="#e4e4ec"
   id="stop25" />
      <stop
   offset=".1713"
   stop-color="#c4c4d4"
   id="stop26" />
      <stop
   offset=".1854"
   stop-color="#bdbdcf"
   id="stop27" />
      <stop
   offset=".1896"
   stop-color="#bebed0"
   id="stop28" />
      <stop
   offset=".2751"
   stop-color="#cacad8"
   id="stop29" />
      <stop
   offset=".3595"
   stop-color="#cecedb"
   id="stop30" />
      <stop
   offset=".7865"
   stop-color="#e9e9ef"
   id="stop31" />
    </linearGradient>
  </defs>
  <path
   d="M44.5 17.527H10.604l32.735-8.771c.188-.051.346-.171.443-.341.097-.169.123-.365.072-.554l-1.08-4.032c-.048-.185-.174-.348-.341-.444-.169-.097-.366-.123-.554-.072l-.246.067s.041.021.051.027c-.27.034-.743.159-1.664.406L4.088 13.439c-.188.05-.345.171-.443.339-.065.114-.099.238-.099.365 0 .064.008.128.025.19l1.073 4.002v4.095c0 .402.327.729.729.729h1.524v21.457c0 .366.273.678.636.725l.22.027c.238.029.863.096 1.593.096h32.758c1.35 0 2.447-1.114 2.447-2.484V23.155c.378-.027.68-.34.68-.724v-4.174c0-.402-.328-.73-.731-.73z"
   opacity=".2"
   id="path31" />
  <path
   d="M44.112 17.139H10.215L42.95 8.367c.188-.05.346-.171.443-.341.097-.168.123-.365.073-.554l-1.08-4.032c-.049-.185-.173-.347-.341-.444-.169-.097-.365-.123-.554-.072l-.248.066.052.026c-.271.035-.743.159-1.664.406L3.699 13.051c-.188.05-.345.171-.443.339-.065.114-.098.239-.098.365 0 .063.008.127.025.19l1.073 4.003v4.093c0 .403.328.73.73.73H6.51v21.457c0 .366.273.677.636.725l.219.027c.238.029.863.096 1.593.096h32.757c1.351 0 2.448-1.115 2.448-2.484V22.767c.378-.027.679-.34.679-.725v-4.173c0-.403-.327-.73-.73-.73z"
   opacity=".2"
   id="path32" />
  <path
   d="M 43.723,16.75 H 9.826 L 42.561,7.979 C 42.749,7.928 42.907,7.807 43.004,7.638 43.101,7.469 43.127,7.273 43.076,7.084 L 41.996,3.052 C 41.947,2.866 41.822,2.704 41.655,2.608 41.486,2.511 41.29,2.485 41.101,2.536 l -0.248,0.067 0.052,0.026 c -0.271,0.034 -0.743,0.159 -1.664,0.406 l -35.93,9.627 c -0.188,0.05 -0.345,0.171 -0.443,0.339 -0.065,0.114 -0.098,0.239 -0.098,0.365 0,0.063 0.008,0.128 0.025,0.19 l 1.073,4.002 v 4.094 c 0,0.402 0.328,0.73 0.73,0.73 h 1.524 v 21.674 c 0,0.41134 0.22768,0.63147 0.636,0.63147 l 34.569,-2e-4 c 1.351,0 2.448,-1.114 2.448,-2.484 v -19.826 c 0.378,-0.027 0.679,-0.339 0.679,-0.725 v -4.173 c -10e-4,-0.402 -0.329,-0.729 -0.731,-0.729 z"
   id="path33"
   style="display:inline" /><g
   id="g50"
   transform="matrix(1.0178229,0,0,1.0178229,55.132864,0.7320881)"
   style="display:inline"><path
     id="path1"
     style="fill:#0072ce;fill-opacity:1;stroke-width:0.0355662"
     d="m -47.456543,20.910645 v 10.68457 h 35.690918 v -10.68457 z" /><path
     id="path2"
     style="stroke-width:0.0355662"
     d="m -47.456543,28.03418 v 10.68457 h 35.690918 V 28.03418 Z" /><path
     id="path45"
     style="display:inline;fill:#ffffff;stroke-width:0.999986"
     d="m -47.456543,35.15625 v 7.123535 h 34.886719 c 0.474892,-0.248137 0.804199,-0.748093 0.804199,-1.330078 V 35.15625 Z" /></g>
  
  <path
   d="m 41.203,2.911 -0.248,0.067 h 0.001 L 3.411,13.038 c -0.088,0.023 -0.162,0.081 -0.208,0.159 -0.046,0.078 -0.058,0.171 -0.034,0.258 l 1.081,4.033 c 0.049,0.182 0.236,0.29 0.418,0.241 L 42.461,7.603 c 0.182,-0.049 0.29,-0.236 0.24,-0.418 L 41.622,3.153 C 41.599,3.066 41.541,2.991 41.463,2.945 41.384,2.9 41.291,2.888 41.203,2.911 Z"
   id="path41"
   style="display:inline" />
  
  
  <path
   d="M 43.467,17.139 H 4.597 c -0.188,0 -0.341,0.153 -0.341,0.341 v 4.173 c 0,0.188 0.153,0.341 0.341,0.341 h 39.125 c 0.189,0 0.342,-0.153 0.342,-0.341 V 17.48 c 0,-0.188 -0.152,-0.341 -0.342,-0.341 z"
   id="path38"
   style="display:inline" />
  <path
   fill="url(#c)"
   d="m 4.854,17.735 h 38.613 v 3.661 H 4.854 Z"
   id="path39"
   style="display:inline" />
  <path
   fill="url(#d)"
   d="m 7.762,21.396 h 3.662 L 9.797,17.735 H 6.136 l 1.626,3.661 m 17.013,-3.661 h -3.66 l 1.626,3.661 h 3.661 l -1.627,-3.661 m -7.489,0 h -3.662 l 1.627,3.661 h 3.662 l -1.627,-3.661 m 22.47,0 h -3.663 l 1.628,3.661 h 3.661 l -1.626,-3.661 m -7.49,0 h -3.662 l 1.627,3.661 h 3.664 z"
   id="path40"
   style="display:inline" />
  
  <path
   fill="url(#e)"
   d="M 4.761,17.085 42.06,7.091 41.111,3.555 3.814,13.548 Z"
   id="path42"
   style="display:inline" />
  <path
   fill="url(#f)"
   d="M 7.57,16.333 11.108,15.386 9.537,12.015 6,12.963 l 1.57,3.37 m 16.434,-8.194 -3.537,0.948 1.571,3.37 3.538,-0.948 -1.572,-3.37 m -7.234,1.938 -3.537,0.948 1.572,3.37 3.536,-0.949 -1.571,-3.369 m 21.703,-5.815 -3.535,0.947 1.571,3.37 3.537,-0.947 -1.573,-3.37 m -7.234,1.939 -3.538,0.946 1.572,3.371 3.537,-0.948 z"
   id="path43"
   style="display:inline" />
  <path
   fill="none"
   d="M 0,48 V 0 h 48 v 48"
   id="path44"
   style="display:inline" />
</svg>
