<?xml version="1.0" encoding="utf-8" standalone="no"?>
<!DOCTYPE svg PUBLIC "-//W3C//DTD SVG 1.1//EN"
  "http://www.w3.org/Graphics/SVG/1.1/DTD/svg11.dtd">
<svg xmlns:xlink="http://www.w3.org/1999/xlink" width="863.28pt" height="431.383125pt" viewBox="0 0 863.28 431.383125" xmlns="http://www.w3.org/2000/svg" version="1.1">
 <metadata>
  <rdf:RDF xmlns:dc="http://purl.org/dc/elements/1.1/" xmlns:cc="http://creativecommons.org/ns#" xmlns:rdf="http://www.w3.org/1999/02/22-rdf-syntax-ns#">
   <cc:Work>
    <dc:type rdf:resource="http://purl.org/dc/dcmitype/StillImage"/>
    <dc:date>2025-01-14T12:37:14.373361</dc:date>
    <dc:format>image/svg+xml</dc:format>
    <dc:creator>
     <cc:Agent>
      <dc:title>Matplotlib v3.10.0, https://matplotlib.org/</dc:title>
     </cc:Agent>
    </dc:creator>
   </cc:Work>
  </rdf:RDF>
 </metadata>
 <defs>
  <style type="text/css">*{stroke-linejoin: round; stroke-linecap: butt}</style>
 </defs>
 <g id="figure_1">
  <g id="patch_1">
   <path d="M 0 431.383125 
L 863.28 431.383125 
L 863.28 0 
L 0 0 
z
" style="fill: #ffffff"/>
  </g>
  <g id="axes_1">
   <g id="patch_2">
    <path d="M 96.23 380.463125 
L 856.08 380.463125 
L 856.08 38.143125 
L 96.23 38.143125 
z
" style="fill: #ffffff"/>
   </g>
   <g id="patch_3">
    <path d="M 96.23 268.249608 
L 101.329664 268.249608 
L 101.329664 281.052244 
L 96.23 281.052244 
z
" clip-path="url(#pbd8daadce0)" style="fill: #e69f00"/>
   </g>
   <g id="patch_4">
    <path d="M 101.329664 268.249608 
L 106.429329 268.249608 
L 106.429329 280.64554 
L 101.329664 280.64554 
z
" clip-path="url(#pbd8daadce0)" style="fill: #e69f00"/>
   </g>
   <g id="patch_5">
    <path d="M 106.429329 268.249608 
L 111.528993 268.249608 
L 111.528993 278.265858 
L 106.429329 278.265858 
z
" clip-path="url(#pbd8daadce0)" style="fill: #e69f00"/>
   </g>
   <g id="patch_6">
    <path d="M 111.528993 268.249608 
L 116.628658 268.249608 
L 116.628658 280.137488 
L 111.528993 280.137488 
z
" clip-path="url(#pbd8daadce0)" style="fill: #e69f00"/>
   </g>
   <g id="patch_7">
    <path d="M 116.628658 268.249608 
L 121.728322 268.249608 
L 121.728322 291.463352 
L 116.628658 291.463352 
z
" clip-path="url(#pbd8daadce0)" style="fill: #e69f00"/>
   </g>
   <g id="patch_8">
    <path d="M 121.728322 268.249608 
L 126.827987 268.249608 
L 126.827987 323.673294 
L 121.728322 323.673294 
z
" clip-path="url(#pbd8daadce0)" style="fill: #e69f00"/>
   </g>
   <g id="patch_9">
    <path d="M 126.827987 268.249608 
L 131.927651 268.249608 
L 131.927651 328.784082 
L 126.827987 328.784082 
z
" clip-path="url(#pbd8daadce0)" style="fill: #e69f00"/>
   </g>
   <g id="patch_10">
    <path d="M 131.927651 268.249608 
L 137.027315 268.249608 
L 137.027315 334.293677 
L 131.927651 334.293677 
z
" clip-path="url(#pbd8daadce0)" style="fill: #e69f00"/>
   </g>
   <g id="patch_11">
    <path d="M 137.027315 268.249608 
L 142.12698 268.249608 
L 142.12698 309.847974 
L 137.027315 309.847974 
z
" clip-path="url(#pbd8daadce0)" style="fill: #e69f00"/>
   </g>
   <g id="patch_12">
    <path d="M 142.12698 268.249608 
L 147.226644 268.249608 
L 147.226644 299.25918 
L 142.12698 299.25918 
z
" clip-path="url(#pbd8daadce0)" style="fill: #e69f00"/>
   </g>
   <g id="patch_13">
    <path d="M 147.226644 268.249608 
L 152.326309 268.249608 
L 152.326309 299.170995 
L 147.226644 299.170995 
z
" clip-path="url(#pbd8daadce0)" style="fill: #e69f00"/>
   </g>
   <g id="patch_14">
    <path d="M 152.326309 268.249608 
L 157.425973 268.249608 
L 157.425973 311.53797 
L 152.326309 311.53797 
z
" clip-path="url(#pbd8daadce0)" style="fill: #e69f00"/>
   </g>
   <g id="patch_15">
    <path d="M 157.425973 268.249608 
L 162.525638 268.249608 
L 162.525638 335.093924 
L 157.425973 335.093924 
z
" clip-path="url(#pbd8daadce0)" style="fill: #e69f00"/>
   </g>
   <g id="patch_16">
    <path d="M 162.525638 268.249608 
L 167.625302 268.249608 
L 167.625302 334.484526 
L 162.525638 334.484526 
z
" clip-path="url(#pbd8daadce0)" style="fill: #e69f00"/>
   </g>
   <g id="patch_17">
    <path d="M 167.625302 268.249608 
L 172.724966 268.249608 
L 172.724966 312.161846 
L 167.625302 312.161846 
z
" clip-path="url(#pbd8daadce0)" style="fill: #e69f00"/>
   </g>
   <g id="patch_18">
    <path d="M 172.724966 268.249608 
L 177.824631 268.249608 
L 177.824631 313.279296 
L 172.724966 313.279296 
z
" clip-path="url(#pbd8daadce0)" style="fill: #e69f00"/>
   </g>
   <g id="patch_19">
    <path d="M 177.824631 268.249608 
L 182.924295 268.249608 
L 182.924295 324.551197 
L 177.824631 324.551197 
z
" clip-path="url(#pbd8daadce0)" style="fill: #e69f00"/>
   </g>
   <g id="patch_20">
    <path d="M 182.924295 268.249608 
L 188.02396 268.249608 
L 188.02396 328.141779 
L 182.924295 328.141779 
z
" clip-path="url(#pbd8daadce0)" style="fill: #e69f00"/>
   </g>
   <g id="patch_21">
    <path d="M 188.02396 268.249608 
L 193.123624 268.249608 
L 193.123624 322.041211 
L 188.02396 322.041211 
z
" clip-path="url(#pbd8daadce0)" style="fill: #e69f00"/>
   </g>
   <g id="patch_22">
    <path d="M 193.123624 268.249608 
L 198.223289 268.249608 
L 198.223289 285.831351 
L 193.123624 285.831351 
z
" clip-path="url(#pbd8daadce0)" style="fill: #e69f00"/>
   </g>
   <g id="patch_23">
    <path d="M 198.223289 268.249608 
L 203.322953 268.249608 
L 203.322953 293.198098 
L 198.223289 293.198098 
z
" clip-path="url(#pbd8daadce0)" style="fill: #e69f00"/>
   </g>
   <g id="patch_24">
    <path d="M 203.322953 268.249608 
L 208.422617 268.249608 
L 208.422617 293.982551 
L 203.322953 293.982551 
z
" clip-path="url(#pbd8daadce0)" style="fill: #e69f00"/>
   </g>
   <g id="patch_25">
    <path d="M 208.422617 268.249608 
L 213.522282 268.249608 
L 213.522282 287.412102 
L 208.422617 287.412102 
z
" clip-path="url(#pbd8daadce0)" style="fill: #e69f00"/>
   </g>
   <g id="patch_26">
    <path d="M 213.522282 268.249608 
L 218.621946 268.249608 
L 218.621946 286.232791 
L 213.522282 286.232791 
z
" clip-path="url(#pbd8daadce0)" style="fill: #e69f00"/>
   </g>
   <g id="patch_27">
    <path d="M 218.621946 268.249608 
L 223.721611 268.249608 
L 223.721611 290.461727 
L 218.621946 290.461727 
z
" clip-path="url(#pbd8daadce0)" style="fill: #e69f00"/>
   </g>
   <g id="patch_28">
    <path d="M 223.721611 268.249608 
L 228.821275 268.249608 
L 228.821275 295.443528 
L 223.721611 295.443528 
z
" clip-path="url(#pbd8daadce0)" style="fill: #e69f00"/>
   </g>
   <g id="patch_29">
    <path d="M 228.821275 268.249608 
L 233.92094 268.249608 
L 233.92094 300.649082 
L 228.821275 300.649082 
z
" clip-path="url(#pbd8daadce0)" style="fill: #e69f00"/>
   </g>
   <g id="patch_30">
    <path d="M 233.92094 268.249608 
L 239.020604 268.249608 
L 239.020604 317.089683 
L 233.92094 317.089683 
z
" clip-path="url(#pbd8daadce0)" style="fill: #e69f00"/>
   </g>
   <g id="patch_31">
    <path d="M 239.020604 268.249608 
L 244.120268 268.249608 
L 244.120268 320.272244 
L 239.020604 320.272244 
z
" clip-path="url(#pbd8daadce0)" style="fill: #e69f00"/>
   </g>
   <g id="patch_32">
    <path d="M 244.120268 268.249608 
L 249.219933 268.249608 
L 249.219933 297.711333 
L 244.120268 297.711333 
z
" clip-path="url(#pbd8daadce0)" style="fill: #e69f00"/>
   </g>
   <g id="patch_33">
    <path d="M 249.219933 268.249608 
L 254.319597 268.249608 
L 254.319597 299.898851 
L 249.219933 299.898851 
z
" clip-path="url(#pbd8daadce0)" style="fill: #e69f00"/>
   </g>
   <g id="patch_34">
    <path d="M 254.319597 268.249608 
L 259.419262 268.249608 
L 259.419262 300.764908 
L 254.319597 300.764908 
z
" clip-path="url(#pbd8daadce0)" style="fill: #e69f00"/>
   </g>
   <g id="patch_35">
    <path d="M 259.419262 268.249608 
L 264.518926 268.249608 
L 264.518926 298.493154 
L 259.419262 298.493154 
z
" clip-path="url(#pbd8daadce0)" style="fill: #e69f00"/>
   </g>
   <g id="patch_36">
    <path d="M 264.518926 268.249608 
L 269.618591 268.249608 
L 269.618591 284.700739 
L 264.518926 284.700739 
z
" clip-path="url(#pbd8daadce0)" style="fill: #e69f00"/>
   </g>
   <g id="patch_37">
    <path d="M 269.618591 268.249608 
L 274.718255 268.249608 
L 274.718255 297.195385 
L 269.618591 297.195385 
z
" clip-path="url(#pbd8daadce0)" style="fill: #e69f00"/>
   </g>
   <g id="patch_38">
    <path d="M 274.718255 268.249608 
L 279.817919 268.249608 
L 279.817919 304.860909 
L 274.718255 304.860909 
z
" clip-path="url(#pbd8daadce0)" style="fill: #e69f00"/>
   </g>
   <g id="patch_39">
    <path d="M 279.817919 268.249608 
L 284.917584 268.249608 
L 284.917584 294.569574 
L 279.817919 294.569574 
z
" clip-path="url(#pbd8daadce0)" style="fill: #e69f00"/>
   </g>
   <g id="patch_40">
    <path d="M 284.917584 268.249608 
L 290.017248 268.249608 
L 290.017248 292.095126 
L 284.917584 292.095126 
z
" clip-path="url(#pbd8daadce0)" style="fill: #e69f00"/>
   </g>
   <g id="patch_41">
    <path d="M 290.017248 268.249608 
L 295.116913 268.249608 
L 295.116913 295.028927 
L 290.017248 295.028927 
z
" clip-path="url(#pbd8daadce0)" style="fill: #e69f00"/>
   </g>
   <g id="patch_42">
    <path d="M 295.116913 268.249608 
L 300.216577 268.249608 
L 300.216577 285.307505 
L 295.116913 285.307505 
z
" clip-path="url(#pbd8daadce0)" style="fill: #e69f00"/>
   </g>
   <g id="patch_43">
    <path d="M 300.216577 268.249608 
L 305.316242 268.249608 
L 305.316242 278.136871 
L 300.216577 278.136871 
z
" clip-path="url(#pbd8daadce0)" style="fill: #e69f00"/>
   </g>
   <g id="patch_44">
    <path d="M 305.316242 268.249608 
L 310.415906 268.249608 
L 310.415906 282.163113 
L 305.316242 282.163113 
z
" clip-path="url(#pbd8daadce0)" style="fill: #e69f00"/>
   </g>
   <g id="patch_45">
    <path d="M 310.415906 268.249608 
L 315.51557 268.249608 
L 315.51557 276.725909 
L 310.415906 276.725909 
z
" clip-path="url(#pbd8daadce0)" style="fill: #e69f00"/>
   </g>
   <g id="patch_46">
    <path d="M 315.51557 268.249608 
L 320.615235 268.249608 
L 320.615235 274.637106 
L 315.51557 274.637106 
z
" clip-path="url(#pbd8daadce0)" style="fill: #e69f00"/>
   </g>
   <g id="patch_47">
    <path d="M 320.615235 268.249608 
L 325.714899 268.249608 
L 325.714899 277.906536 
L 320.615235 277.906536 
z
" clip-path="url(#pbd8daadce0)" style="fill: #e69f00"/>
   </g>
   <g id="patch_48">
    <path d="M 325.714899 268.249608 
L 330.814564 268.249608 
L 330.814564 281.730085 
L 325.714899 281.730085 
z
" clip-path="url(#pbd8daadce0)" style="fill: #e69f00"/>
   </g>
   <g id="patch_49">
    <path d="M 330.814564 268.249608 
L 335.914228 268.249608 
L 335.914228 280.02956 
L 330.814564 280.02956 
z
" clip-path="url(#pbd8daadce0)" style="fill: #e69f00"/>
   </g>
   <g id="patch_50">
    <path d="M 335.914228 268.249608 
L 341.013893 268.249608 
L 341.013893 283.776769 
L 335.914228 283.776769 
z
" clip-path="url(#pbd8daadce0)" style="fill: #e69f00"/>
   </g>
   <g id="patch_51">
    <path d="M 341.013893 268.249608 
L 346.113557 268.249608 
L 346.113557 306.732539 
L 341.013893 306.732539 
z
" clip-path="url(#pbd8daadce0)" style="fill: #e69f00"/>
   </g>
   <g id="patch_52">
    <path d="M 346.113557 268.249608 
L 351.213221 268.249608 
L 351.213221 282.294733 
L 346.113557 282.294733 
z
" clip-path="url(#pbd8daadce0)" style="fill: #e69f00"/>
   </g>
   <g id="patch_53">
    <path d="M 351.213221 268.249608 
L 356.312886 268.249608 
L 356.312886 283.975515 
L 351.213221 283.975515 
z
" clip-path="url(#pbd8daadce0)" style="fill: #e69f00"/>
   </g>
   <g id="patch_54">
    <path d="M 356.312886 268.249608 
L 361.41255 268.249608 
L 361.41255 285.416749 
L 356.312886 285.416749 
z
" clip-path="url(#pbd8daadce0)" style="fill: #e69f00"/>
   </g>
   <g id="patch_55">
    <path d="M 361.41255 268.249608 
L 366.512215 268.249608 
L 366.512215 285.158775 
L 361.41255 285.158775 
z
" clip-path="url(#pbd8daadce0)" style="fill: #e69f00"/>
   </g>
   <g id="patch_56">
    <path d="M 366.512215 268.249608 
L 371.611879 268.249608 
L 371.611879 285.952441 
L 366.512215 285.952441 
z
" clip-path="url(#pbd8daadce0)" style="fill: #e69f00"/>
   </g>
   <g id="patch_57">
    <path d="M 371.611879 268.249608 
L 376.711544 268.249608 
L 376.711544 282.752769 
L 371.611879 282.752769 
z
" clip-path="url(#pbd8daadce0)" style="fill: #e69f00"/>
   </g>
   <g id="patch_58">
    <path d="M 376.711544 268.249608 
L 381.811208 268.249608 
L 381.811208 275.728233 
L 376.711544 275.728233 
z
" clip-path="url(#pbd8daadce0)" style="fill: #e69f00"/>
   </g>
   <g id="patch_59">
    <path d="M 381.811208 268.249608 
L 386.910872 268.249608 
L 386.910872 272.160026 
L 381.811208 272.160026 
z
" clip-path="url(#pbd8daadce0)" style="fill: #e69f00"/>
   </g>
   <g id="patch_60">
    <path d="M 386.910872 268.249608 
L 392.010537 268.249608 
L 392.010537 271.035995 
L 386.910872 271.035995 
z
" clip-path="url(#pbd8daadce0)" style="fill: #e69f00"/>
   </g>
   <g id="patch_61">
    <path d="M 392.010537 268.249608 
L 397.110201 268.249608 
L 397.110201 271.430854 
L 392.010537 271.430854 
z
" clip-path="url(#pbd8daadce0)" style="fill: #e69f00"/>
   </g>
   <g id="patch_62">
    <path d="M 397.110201 268.249608 
L 402.209866 268.249608 
L 402.209866 271.408478 
L 397.110201 271.408478 
z
" clip-path="url(#pbd8daadce0)" style="fill: #e69f00"/>
   </g>
   <g id="patch_63">
    <path d="M 402.209866 268.249608 
L 407.30953 268.249608 
L 407.30953 271.479553 
L 402.209866 271.479553 
z
" clip-path="url(#pbd8daadce0)" style="fill: #e69f00"/>
   </g>
   <g id="patch_64">
    <path d="M 407.30953 268.249608 
L 412.409195 268.249608 
L 412.409195 271.370309 
L 407.30953 271.370309 
z
" clip-path="url(#pbd8daadce0)" style="fill: #e69f00"/>
   </g>
   <g id="patch_65">
    <path d="M 412.409195 268.249608 
L 417.508859 268.249608 
L 417.508859 271.26238 
L 412.409195 271.26238 
z
" clip-path="url(#pbd8daadce0)" style="fill: #e69f00"/>
   </g>
   <g id="patch_66">
    <path d="M 417.508859 268.249608 
L 422.608523 268.249608 
L 422.608523 270.963604 
L 417.508859 270.963604 
z
" clip-path="url(#pbd8daadce0)" style="fill: #e69f00"/>
   </g>
   <g id="patch_67">
    <path d="M 422.608523 268.249608 
L 427.708188 268.249608 
L 427.708188 272.961589 
L 422.608523 272.961589 
z
" clip-path="url(#pbd8daadce0)" style="fill: #e69f00"/>
   </g>
   <g id="patch_68">
    <path d="M 427.708188 268.249608 
L 432.807852 268.249608 
L 432.807852 272.332448 
L 427.708188 272.332448 
z
" clip-path="url(#pbd8daadce0)" style="fill: #e69f00"/>
   </g>
   <g id="patch_69">
    <path d="M 432.807852 268.249608 
L 437.907517 268.249608 
L 437.907517 269.69874 
L 432.807852 269.69874 
z
" clip-path="url(#pbd8daadce0)" style="fill: #e69f00"/>
   </g>
   <g id="patch_70">
    <path d="M 437.907517 268.249608 
L 443.007181 268.249608 
L 443.007181 269.486832 
L 437.907517 269.486832 
z
" clip-path="url(#pbd8daadce0)" style="fill: #e69f00"/>
   </g>
   <g id="patch_71">
    <path d="M 443.007181 268.249608 
L 448.106846 268.249608 
L 448.106846 269.153835 
L 443.007181 269.153835 
z
" clip-path="url(#pbd8daadce0)" style="fill: #e69f00"/>
   </g>
   <g id="patch_72">
    <path d="M 448.106846 268.249608 
L 453.20651 268.249608 
L 453.20651 268.9722 
L 448.106846 268.9722 
z
" clip-path="url(#pbd8daadce0)" style="fill: #e69f00"/>
   </g>
   <g id="patch_73">
    <path d="M 453.20651 268.249608 
L 458.306174 268.249608 
L 458.306174 279.122701 
L 453.20651 279.122701 
z
" clip-path="url(#pbd8daadce0)" style="fill: #e69f00"/>
   </g>
   <g id="patch_74">
    <path d="M 458.306174 268.249608 
L 463.405839 268.249608 
L 463.405839 277.351102 
L 458.306174 277.351102 
z
" clip-path="url(#pbd8daadce0)" style="fill: #e69f00"/>
   </g>
   <g id="patch_75">
    <path d="M 463.405839 268.249608 
L 468.505503 268.249608 
L 468.505503 276.740387 
L 463.405839 276.740387 
z
" clip-path="url(#pbd8daadce0)" style="fill: #e69f00"/>
   </g>
   <g id="patch_76">
    <path d="M 468.505503 268.249608 
L 473.605168 268.249608 
L 473.605168 281.127267 
L 468.505503 281.127267 
z
" clip-path="url(#pbd8daadce0)" style="fill: #e69f00"/>
   </g>
   <g id="patch_77">
    <path d="M 473.605168 268.249608 
L 478.704832 268.249608 
L 478.704832 286.905367 
L 473.605168 286.905367 
z
" clip-path="url(#pbd8daadce0)" style="fill: #e69f00"/>
   </g>
   <g id="patch_78">
    <path d="M 478.704832 268.249608 
L 483.804497 268.249608 
L 483.804497 285.175885 
L 478.704832 285.175885 
z
" clip-path="url(#pbd8daadce0)" style="fill: #e69f00"/>
   </g>
   <g id="patch_79">
    <path d="M 483.804497 268.249608 
L 488.904161 268.249608 
L 488.904161 290.072133 
L 483.804497 290.072133 
z
" clip-path="url(#pbd8daadce0)" style="fill: #e69f00"/>
   </g>
   <g id="patch_80">
    <path d="M 488.904161 268.249608 
L 494.003826 268.249608 
L 494.003826 287.989912 
L 488.904161 287.989912 
z
" clip-path="url(#pbd8daadce0)" style="fill: #e69f00"/>
   </g>
   <g id="patch_81">
    <path d="M 494.003826 268.249608 
L 499.10349 268.249608 
L 499.10349 291.25671 
L 494.003826 291.25671 
z
" clip-path="url(#pbd8daadce0)" style="fill: #e69f00"/>
   </g>
   <g id="patch_82">
    <path d="M 499.10349 268.249608 
L 504.203154 268.249608 
L 504.203154 286.442066 
L 499.10349 286.442066 
z
" clip-path="url(#pbd8daadce0)" style="fill: #e69f00"/>
   </g>
   <g id="patch_83">
    <path d="M 504.203154 268.249608 
L 509.302819 268.249608 
L 509.302819 284.932389 
L 504.203154 284.932389 
z
" clip-path="url(#pbd8daadce0)" style="fill: #e69f00"/>
   </g>
   <g id="patch_84">
    <path d="M 509.302819 268.249608 
L 514.402483 268.249608 
L 514.402483 287.646385 
L 509.302819 287.646385 
z
" clip-path="url(#pbd8daadce0)" style="fill: #e69f00"/>
   </g>
   <g id="patch_85">
    <path d="M 514.402483 268.249608 
L 519.502148 268.249608 
L 519.502148 288.085994 
L 514.402483 288.085994 
z
" clip-path="url(#pbd8daadce0)" style="fill: #e69f00"/>
   </g>
   <g id="patch_86">
    <path d="M 519.502148 268.249608 
L 524.601812 268.249608 
L 524.601812 287.001449 
L 519.502148 287.001449 
z
" clip-path="url(#pbd8daadce0)" style="fill: #e69f00"/>
   </g>
   <g id="patch_87">
    <path d="M 524.601812 268.249608 
L 529.701477 268.249608 
L 529.701477 288.791475 
L 524.601812 288.791475 
z
" clip-path="url(#pbd8daadce0)" style="fill: #e69f00"/>
   </g>
   <g id="patch_88">
    <path d="M 529.701477 268.249608 
L 534.801141 268.249608 
L 534.801141 288.174179 
L 529.701477 288.174179 
z
" clip-path="url(#pbd8daadce0)" style="fill: #e69f00"/>
   </g>
   <g id="patch_89">
    <path d="M 534.801141 268.249608 
L 539.900805 268.249608 
L 539.900805 288.017552 
L 534.801141 288.017552 
z
" clip-path="url(#pbd8daadce0)" style="fill: #e69f00"/>
   </g>
   <g id="patch_90">
    <path d="M 539.900805 268.249608 
L 545.00047 268.249608 
L 545.00047 287.897778 
L 539.900805 287.897778 
z
" clip-path="url(#pbd8daadce0)" style="fill: #e69f00"/>
   </g>
   <g id="patch_91">
    <path d="M 545.00047 268.249608 
L 550.100134 268.249608 
L 550.100134 288.440051 
L 545.00047 288.440051 
z
" clip-path="url(#pbd8daadce0)" style="fill: #e69f00"/>
   </g>
   <g id="patch_92">
    <path d="M 550.100134 268.249608 
L 555.199799 268.249608 
L 555.199799 288.920462 
L 550.100134 288.920462 
z
" clip-path="url(#pbd8daadce0)" style="fill: #e69f00"/>
   </g>
   <g id="patch_93">
    <path d="M 555.199799 268.249608 
L 560.299463 268.249608 
L 560.299463 289.278467 
L 555.199799 289.278467 
z
" clip-path="url(#pbd8daadce0)" style="fill: #e69f00"/>
   </g>
   <g id="patch_94">
    <path d="M 560.299463 268.249608 
L 565.399128 268.249608 
L 565.399128 294.21815 
L 560.299463 294.21815 
z
" clip-path="url(#pbd8daadce0)" style="fill: #e69f00"/>
   </g>
   <g id="patch_95">
    <path d="M 565.399128 268.249608 
L 570.498792 268.249608 
L 570.498792 294.545883 
L 565.399128 294.545883 
z
" clip-path="url(#pbd8daadce0)" style="fill: #e69f00"/>
   </g>
   <g id="patch_96">
    <path d="M 570.498792 268.249608 
L 575.598456 268.249608 
L 575.598456 298.735334 
L 570.498792 298.735334 
z
" clip-path="url(#pbd8daadce0)" style="fill: #e69f00"/>
   </g>
   <g id="patch_97">
    <path d="M 575.598456 268.249608 
L 580.698121 268.249608 
L 580.698121 295.047353 
L 575.598456 295.047353 
z
" clip-path="url(#pbd8daadce0)" style="fill: #e69f00"/>
   </g>
   <g id="patch_98">
    <path d="M 580.698121 268.249608 
L 585.797785 268.249608 
L 585.797785 305.962564 
L 580.698121 305.962564 
z
" clip-path="url(#pbd8daadce0)" style="fill: #e69f00"/>
   </g>
   <g id="patch_99">
    <path d="M 585.797785 268.249608 
L 590.89745 268.249608 
L 590.89745 320.318311 
L 585.797785 320.318311 
z
" clip-path="url(#pbd8daadce0)" style="fill: #e69f00"/>
   </g>
   <g id="patch_100">
    <path d="M 590.89745 268.249608 
L 595.997114 268.249608 
L 595.997114 322.97571 
L 590.89745 322.97571 
z
" clip-path="url(#pbd8daadce0)" style="fill: #e69f00"/>
   </g>
   <g id="patch_101">
    <path d="M 595.997114 268.249608 
L 601.096779 268.249608 
L 601.096779 321.347576 
L 595.997114 321.347576 
z
" clip-path="url(#pbd8daadce0)" style="fill: #e69f00"/>
   </g>
   <g id="patch_102">
    <path d="M 601.096779 268.249608 
L 606.196443 268.249608 
L 606.196443 305.56639 
L 601.096779 305.56639 
z
" clip-path="url(#pbd8daadce0)" style="fill: #e69f00"/>
   </g>
   <g id="patch_103">
    <path d="M 606.196443 268.249608 
L 611.296107 268.249608 
L 611.296107 304.114626 
L 606.196443 304.114626 
z
" clip-path="url(#pbd8daadce0)" style="fill: #e69f00"/>
   </g>
   <g id="patch_104">
    <path d="M 611.296107 268.249608 
L 616.395772 268.249608 
L 616.395772 301.841556 
L 611.296107 301.841556 
z
" clip-path="url(#pbd8daadce0)" style="fill: #e69f00"/>
   </g>
   <g id="patch_105">
    <path d="M 616.395772 268.249608 
L 621.495436 268.249608 
L 621.495436 295.992382 
L 616.395772 295.992382 
z
" clip-path="url(#pbd8daadce0)" style="fill: #e69f00"/>
   </g>
   <g id="patch_106">
    <path d="M 621.495436 268.249608 
L 626.595101 268.249608 
L 626.595101 297.427035 
L 621.495436 297.427035 
z
" clip-path="url(#pbd8daadce0)" style="fill: #e69f00"/>
   </g>
   <g id="patch_107">
    <path d="M 626.595101 268.249608 
L 631.694765 268.249608 
L 631.694765 299.136773 
L 626.595101 299.136773 
z
" clip-path="url(#pbd8daadce0)" style="fill: #e69f00"/>
   </g>
   <g id="patch_108">
    <path d="M 631.694765 268.249608 
L 636.79443 268.249608 
L 636.79443 307.523573 
L 631.694765 307.523573 
z
" clip-path="url(#pbd8daadce0)" style="fill: #e69f00"/>
   </g>
   <g id="patch_109">
    <path d="M 636.79443 268.249608 
L 641.894094 268.249608 
L 641.894094 306.99841 
L 636.79443 306.99841 
z
" clip-path="url(#pbd8daadce0)" style="fill: #e69f00"/>
   </g>
   <g id="patch_110">
    <path d="M 641.894094 268.249608 
L 646.993758 268.249608 
L 646.993758 305.604559 
L 641.894094 305.604559 
z
" clip-path="url(#pbd8daadce0)" style="fill: #e69f00"/>
   </g>
   <g id="patch_111">
    <path d="M 646.993758 268.249608 
L 652.093423 268.249608 
L 652.093423 301.508558 
L 646.993758 301.508558 
z
" clip-path="url(#pbd8daadce0)" style="fill: #e69f00"/>
   </g>
   <g id="patch_112">
    <path d="M 652.093423 268.249608 
L 657.193087 268.249608 
L 657.193087 298.291776 
L 652.093423 298.291776 
z
" clip-path="url(#pbd8daadce0)" style="fill: #e69f00"/>
   </g>
   <g id="patch_113">
    <path d="M 657.193087 268.249608 
L 662.292752 268.249608 
L 662.292752 297.253297 
L 657.193087 297.253297 
z
" clip-path="url(#pbd8daadce0)" style="fill: #e69f00"/>
   </g>
   <g id="patch_114">
    <path d="M 662.292752 268.249608 
L 667.392416 268.249608 
L 667.392416 300.489823 
L 662.292752 300.489823 
z
" clip-path="url(#pbd8daadce0)" style="fill: #e69f00"/>
   </g>
   <g id="patch_115">
    <path d="M 667.392416 268.249608 
L 672.492081 268.249608 
L 672.492081 295.459323 
L 667.392416 295.459323 
z
" clip-path="url(#pbd8daadce0)" style="fill: #e69f00"/>
   </g>
   <g id="patch_116">
    <path d="M 672.492081 268.249608 
L 677.591745 268.249608 
L 677.591745 296.496485 
L 672.492081 296.496485 
z
" clip-path="url(#pbd8daadce0)" style="fill: #e69f00"/>
   </g>
   <g id="patch_117">
    <path d="M 677.591745 268.249608 
L 682.691409 268.249608 
L 682.691409 296.526757 
L 677.591745 296.526757 
z
" clip-path="url(#pbd8daadce0)" style="fill: #e69f00"/>
   </g>
   <g id="patch_118">
    <path d="M 682.691409 268.249608 
L 687.791074 268.249608 
L 687.791074 301.412476 
L 682.691409 301.412476 
z
" clip-path="url(#pbd8daadce0)" style="fill: #e69f00"/>
   </g>
   <g id="patch_119">
    <path d="M 687.791074 268.249608 
L 692.890738 268.249608 
L 692.890738 300.818872 
L 687.791074 300.818872 
z
" clip-path="url(#pbd8daadce0)" style="fill: #e69f00"/>
   </g>
   <g id="patch_120">
    <path d="M 692.890738 268.249608 
L 697.990403 268.249608 
L 697.990403 302.11006 
L 692.890738 302.11006 
z
" clip-path="url(#pbd8daadce0)" style="fill: #e69f00"/>
   </g>
   <g id="patch_121">
    <path d="M 697.990403 268.249608 
L 703.090067 268.249608 
L 703.090067 307.569639 
L 697.990403 307.569639 
z
" clip-path="url(#pbd8daadce0)" style="fill: #e69f00"/>
   </g>
   <g id="patch_122">
    <path d="M 703.090067 268.249608 
L 708.189732 268.249608 
L 708.189732 311.237877 
L 703.090067 311.237877 
z
" clip-path="url(#pbd8daadce0)" style="fill: #e69f00"/>
   </g>
   <g id="patch_123">
    <path d="M 708.189732 268.249608 
L 713.289396 268.249608 
L 713.289396 312.979204 
L 708.189732 312.979204 
z
" clip-path="url(#pbd8daadce0)" style="fill: #e69f00"/>
   </g>
   <g id="patch_124">
    <path d="M 713.289396 268.249608 
L 718.38906 268.249608 
L 718.38906 312.847584 
L 713.289396 312.847584 
z
" clip-path="url(#pbd8daadce0)" style="fill: #e69f00"/>
   </g>
   <g id="patch_125">
    <path d="M 718.38906 268.249608 
L 723.488725 268.249608 
L 723.488725 318.97974 
L 718.38906 318.97974 
z
" clip-path="url(#pbd8daadce0)" style="fill: #e69f00"/>
   </g>
   <g id="patch_126">
    <path d="M 723.488725 268.249608 
L 728.588389 268.249608 
L 728.588389 318.946835 
L 723.488725 318.946835 
z
" clip-path="url(#pbd8daadce0)" style="fill: #e69f00"/>
   </g>
   <g id="patch_127">
    <path d="M 728.588389 268.249608 
L 733.688054 268.249608 
L 733.688054 315.244377 
L 728.588389 315.244377 
z
" clip-path="url(#pbd8daadce0)" style="fill: #e69f00"/>
   </g>
   <g id="patch_128">
    <path d="M 733.688054 268.249608 
L 738.787718 268.249608 
L 738.787718 313.120037 
L 733.688054 313.120037 
z
" clip-path="url(#pbd8daadce0)" style="fill: #e69f00"/>
   </g>
   <g id="patch_129">
    <path d="M 738.787718 268.249608 
L 743.887383 268.249608 
L 743.887383 310.553455 
L 738.787718 310.553455 
z
" clip-path="url(#pbd8daadce0)" style="fill: #e69f00"/>
   </g>
   <g id="patch_130">
    <path d="M 743.887383 268.249608 
L 748.987047 268.249608 
L 748.987047 311.695913 
L 743.887383 311.695913 
z
" clip-path="url(#pbd8daadce0)" style="fill: #e69f00"/>
   </g>
   <g id="patch_131">
    <path d="M 748.987047 268.249608 
L 754.086711 268.249608 
L 754.086711 314.346731 
L 748.987047 314.346731 
z
" clip-path="url(#pbd8daadce0)" style="fill: #e69f00"/>
   </g>
   <g id="patch_132">
    <path d="M 754.086711 268.249608 
L 759.186376 268.249608 
L 759.186376 316.403945 
L 754.086711 316.403945 
z
" clip-path="url(#pbd8daadce0)" style="fill: #e69f00"/>
   </g>
   <g id="patch_133">
    <path d="M 759.186376 268.249608 
L 764.28604 268.249608 
L 764.28604 318.420357 
L 759.186376 318.420357 
z
" clip-path="url(#pbd8daadce0)" style="fill: #e69f00"/>
   </g>
   <g id="patch_134">
    <path d="M 764.28604 268.249608 
L 769.385705 268.249608 
L 769.385705 327.357326 
L 764.28604 327.357326 
z
" clip-path="url(#pbd8daadce0)" style="fill: #e69f00"/>
   </g>
   <g id="patch_135">
    <path d="M 769.385705 268.249608 
L 774.485369 268.249608 
L 774.485369 328.028586 
L 769.385705 328.028586 
z
" clip-path="url(#pbd8daadce0)" style="fill: #e69f00"/>
   </g>
   <g id="patch_136">
    <path d="M 774.485369 268.249608 
L 779.585034 268.249608 
L 779.585034 327.865377 
L 774.485369 327.865377 
z
" clip-path="url(#pbd8daadce0)" style="fill: #e69f00"/>
   </g>
   <g id="patch_137">
    <path d="M 779.585034 268.249608 
L 784.684698 268.249608 
L 784.684698 319.897129 
L 779.585034 319.897129 
z
" clip-path="url(#pbd8daadce0)" style="fill: #e69f00"/>
   </g>
   <g id="patch_138">
    <path d="M 784.684698 268.249608 
L 789.784362 268.249608 
L 789.784362 332.549718 
L 784.684698 332.549718 
z
" clip-path="url(#pbd8daadce0)" style="fill: #e69f00"/>
   </g>
   <g id="patch_139">
    <path d="M 789.784362 268.249608 
L 794.884027 268.249608 
L 794.884027 335.611189 
L 789.784362 335.611189 
z
" clip-path="url(#pbd8daadce0)" style="fill: #e69f00"/>
   </g>
   <g id="patch_140">
    <path d="M 794.884027 268.249608 
L 799.983691 268.249608 
L 799.983691 336.358788 
L 794.884027 336.358788 
z
" clip-path="url(#pbd8daadce0)" style="fill: #e69f00"/>
   </g>
   <g id="patch_141">
    <path d="M 799.983691 268.249608 
L 805.083356 268.249608 
L 805.083356 335.000474 
L 799.983691 335.000474 
z
" clip-path="url(#pbd8daadce0)" style="fill: #e69f00"/>
   </g>
   <g id="patch_142">
    <path d="M 805.083356 268.249608 
L 810.18302 268.249608 
L 810.18302 335.687529 
L 805.083356 335.687529 
z
" clip-path="url(#pbd8daadce0)" style="fill: #e69f00"/>
   </g>
   <g id="patch_143">
    <path d="M 810.18302 268.249608 
L 815.282685 268.249608 
L 815.282685 341.732816 
L 810.18302 341.732816 
z
" clip-path="url(#pbd8daadce0)" style="fill: #e69f00"/>
   </g>
   <g id="patch_144">
    <path d="M 815.282685 268.249608 
L 820.382349 268.249608 
L 820.382349 328.634036 
L 815.282685 328.634036 
z
" clip-path="url(#pbd8daadce0)" style="fill: #e69f00"/>
   </g>
   <g id="patch_145">
    <path d="M 820.382349 268.249608 
L 825.482013 268.249608 
L 825.482013 328.294457 
L 820.382349 328.294457 
z
" clip-path="url(#pbd8daadce0)" style="fill: #e69f00"/>
   </g>
   <g id="patch_146">
    <path d="M 825.482013 268.249608 
L 830.581678 268.249608 
L 830.581678 330.0858 
L 825.482013 330.0858 
z
" clip-path="url(#pbd8daadce0)" style="fill: #e69f00"/>
   </g>
   <g id="patch_147">
    <path d="M 830.581678 268.249608 
L 835.681342 268.249608 
L 835.681342 331.055836 
L 830.581678 331.055836 
z
" clip-path="url(#pbd8daadce0)" style="fill: #e69f00"/>
   </g>
   <g id="patch_148">
    <path d="M 835.681342 268.249608 
L 840.781007 268.249608 
L 840.781007 332.660278 
L 835.681342 332.660278 
z
" clip-path="url(#pbd8daadce0)" style="fill: #e69f00"/>
   </g>
   <g id="patch_149">
    <path d="M 840.781007 268.249608 
L 845.880671 268.249608 
L 845.880671 331.800803 
L 840.781007 331.800803 
z
" clip-path="url(#pbd8daadce0)" style="fill: #e69f00"/>
   </g>
   <g id="patch_150">
    <path d="M 845.880671 268.249608 
L 850.980336 268.249608 
L 850.980336 334.838582 
L 845.880671 334.838582 
z
" clip-path="url(#pbd8daadce0)" style="fill: #e69f00"/>
   </g>
   <g id="patch_151">
    <path d="M 850.980336 268.249608 
L 856.08 268.249608 
L 856.08 364.903125 
L 850.980336 364.903125 
z
" clip-path="url(#pbd8daadce0)" style="fill: #e69f00"/>
   </g>
   <g id="patch_152">
    <path d="M 96.23 268.249608 
L 101.329664 268.249608 
L 101.329664 264.557679 
L 96.23 264.557679 
z
" clip-path="url(#pbd8daadce0)" style="fill: #56b4e9"/>
   </g>
   <g id="patch_153">
    <path d="M 101.329664 268.249608 
L 106.429329 268.249608 
L 106.429329 264.021988 
L 101.329664 264.021988 
z
" clip-path="url(#pbd8daadce0)" style="fill: #56b4e9"/>
   </g>
   <g id="patch_154">
    <path d="M 106.429329 268.249608 
L 111.528993 268.249608 
L 111.528993 263.921957 
L 106.429329 263.921957 
z
" clip-path="url(#pbd8daadce0)" style="fill: #56b4e9"/>
   </g>
   <g id="patch_155">
    <path d="M 111.528993 268.249608 
L 116.628658 268.249608 
L 116.628658 264.510296 
L 111.528993 264.510296 
z
" clip-path="url(#pbd8daadce0)" style="fill: #56b4e9"/>
   </g>
   <g id="patch_156">
    <path d="M 116.628658 268.249608 
L 121.728322 268.249608 
L 121.728322 264.838029 
L 116.628658 264.838029 
z
" clip-path="url(#pbd8daadce0)" style="fill: #56b4e9"/>
   </g>
   <g id="patch_157">
    <path d="M 121.728322 268.249608 
L 126.827987 268.249608 
L 126.827987 264.289176 
L 121.728322 264.289176 
z
" clip-path="url(#pbd8daadce0)" style="fill: #56b4e9"/>
   </g>
   <g id="patch_158">
    <path d="M 126.827987 268.249608 
L 131.927651 268.249608 
L 131.927651 264.357618 
L 126.827987 264.357618 
z
" clip-path="url(#pbd8daadce0)" style="fill: #56b4e9"/>
   </g>
   <g id="patch_159">
    <path d="M 131.927651 268.249608 
L 137.027315 268.249608 
L 137.027315 263.554738 
L 131.927651 263.554738 
z
" clip-path="url(#pbd8daadce0)" style="fill: #56b4e9"/>
   </g>
   <g id="patch_160">
    <path d="M 137.027315 268.249608 
L 142.12698 268.249608 
L 142.12698 262.783448 
L 137.027315 262.783448 
z
" clip-path="url(#pbd8daadce0)" style="fill: #56b4e9"/>
   </g>
   <g id="patch_161">
    <path d="M 142.12698 268.249608 
L 147.226644 268.249608 
L 147.226644 261.785771 
L 142.12698 261.785771 
z
" clip-path="url(#pbd8daadce0)" style="fill: #56b4e9"/>
   </g>
   <g id="patch_162">
    <path d="M 147.226644 268.249608 
L 152.326309 268.249608 
L 152.326309 260.626203 
L 147.226644 260.626203 
z
" clip-path="url(#pbd8daadce0)" style="fill: #56b4e9"/>
   </g>
   <g id="patch_163">
    <path d="M 152.326309 268.249608 
L 157.425973 268.249608 
L 157.425973 261.373802 
L 152.326309 261.373802 
z
" clip-path="url(#pbd8daadce0)" style="fill: #56b4e9"/>
   </g>
   <g id="patch_164">
    <path d="M 157.425973 268.249608 
L 162.525638 268.249608 
L 162.525638 262.139828 
L 157.425973 262.139828 
z
" clip-path="url(#pbd8daadce0)" style="fill: #56b4e9"/>
   </g>
   <g id="patch_165">
    <path d="M 162.525638 268.249608 
L 167.625302 268.249608 
L 167.625302 261.904229 
L 162.525638 261.904229 
z
" clip-path="url(#pbd8daadce0)" style="fill: #56b4e9"/>
   </g>
   <g id="patch_166">
    <path d="M 167.625302 268.249608 
L 172.724966 268.249608 
L 172.724966 261.005267 
L 167.625302 261.005267 
z
" clip-path="url(#pbd8daadce0)" style="fill: #56b4e9"/>
   </g>
   <g id="patch_167">
    <path d="M 172.724966 268.249608 
L 177.824631 268.249608 
L 177.824631 260.312948 
L 172.724966 260.312948 
z
" clip-path="url(#pbd8daadce0)" style="fill: #56b4e9"/>
   </g>
   <g id="patch_168">
    <path d="M 177.824631 268.249608 
L 182.924295 268.249608 
L 182.924295 260.202388 
L 177.824631 260.202388 
z
" clip-path="url(#pbd8daadce0)" style="fill: #56b4e9"/>
   </g>
   <g id="patch_169">
    <path d="M 182.924295 268.249608 
L 188.02396 268.249608 
L 188.02396 259.679858 
L 182.924295 259.679858 
z
" clip-path="url(#pbd8daadce0)" style="fill: #56b4e9"/>
   </g>
   <g id="patch_170">
    <path d="M 188.02396 268.249608 
L 193.123624 268.249608 
L 193.123624 258.540033 
L 188.02396 258.540033 
z
" clip-path="url(#pbd8daadce0)" style="fill: #56b4e9"/>
   </g>
   <g id="patch_171">
    <path d="M 193.123624 268.249608 
L 198.223289 268.249608 
L 198.223289 254.528268 
L 193.123624 254.528268 
z
" clip-path="url(#pbd8daadce0)" style="fill: #56b4e9"/>
   </g>
   <g id="patch_172">
    <path d="M 198.223289 268.249608 
L 203.322953 268.249608 
L 203.322953 257.025091 
L 198.223289 257.025091 
z
" clip-path="url(#pbd8daadce0)" style="fill: #56b4e9"/>
   </g>
   <g id="patch_173">
    <path d="M 203.322953 268.249608 
L 208.422617 268.249608 
L 208.422617 257.974068 
L 203.322953 257.974068 
z
" clip-path="url(#pbd8daadce0)" style="fill: #56b4e9"/>
   </g>
   <g id="patch_174">
    <path d="M 208.422617 268.249608 
L 213.522282 268.249608 
L 213.522282 257.902994 
L 208.422617 257.902994 
z
" clip-path="url(#pbd8daadce0)" style="fill: #56b4e9"/>
   </g>
   <g id="patch_175">
    <path d="M 213.522282 268.249608 
L 218.621946 268.249608 
L 218.621946 257.754264 
L 213.522282 257.754264 
z
" clip-path="url(#pbd8daadce0)" style="fill: #56b4e9"/>
   </g>
   <g id="patch_176">
    <path d="M 218.621946 268.249608 
L 223.721611 268.249608 
L 223.721611 257.462068 
L 218.621946 257.462068 
z
" clip-path="url(#pbd8daadce0)" style="fill: #56b4e9"/>
   </g>
   <g id="patch_177">
    <path d="M 223.721611 268.249608 
L 228.821275 268.249608 
L 228.821275 257.697667 
L 223.721611 257.697667 
z
" clip-path="url(#pbd8daadce0)" style="fill: #56b4e9"/>
   </g>
   <g id="patch_178">
    <path d="M 228.821275 268.249608 
L 233.92094 268.249608 
L 233.92094 258.218881 
L 228.821275 258.218881 
z
" clip-path="url(#pbd8daadce0)" style="fill: #56b4e9"/>
   </g>
   <g id="patch_179">
    <path d="M 233.92094 268.249608 
L 239.020604 268.249608 
L 239.020604 259.320537 
L 233.92094 259.320537 
z
" clip-path="url(#pbd8daadce0)" style="fill: #56b4e9"/>
   </g>
   <g id="patch_180">
    <path d="M 239.020604 268.249608 
L 244.120268 268.249608 
L 244.120268 258.216248 
L 239.020604 258.216248 
z
" clip-path="url(#pbd8daadce0)" style="fill: #56b4e9"/>
   </g>
   <g id="patch_181">
    <path d="M 244.120268 268.249608 
L 249.219933 268.249608 
L 249.219933 256.059004 
L 244.120268 256.059004 
z
" clip-path="url(#pbd8daadce0)" style="fill: #56b4e9"/>
   </g>
   <g id="patch_182">
    <path d="M 249.219933 268.249608 
L 254.319597 268.249608 
L 254.319597 256.918479 
L 249.219933 256.918479 
z
" clip-path="url(#pbd8daadce0)" style="fill: #56b4e9"/>
   </g>
   <g id="patch_183">
    <path d="M 254.319597 268.249608 
L 259.419262 268.249608 
L 259.419262 255.639137 
L 254.319597 255.639137 
z
" clip-path="url(#pbd8daadce0)" style="fill: #56b4e9"/>
   </g>
   <g id="patch_184">
    <path d="M 259.419262 268.249608 
L 264.518926 268.249608 
L 264.518926 256.518356 
L 259.419262 256.518356 
z
" clip-path="url(#pbd8daadce0)" style="fill: #56b4e9"/>
   </g>
   <g id="patch_185">
    <path d="M 264.518926 268.249608 
L 269.618591 268.249608 
L 269.618591 255.327199 
L 264.518926 255.327199 
z
" clip-path="url(#pbd8daadce0)" style="fill: #56b4e9"/>
   </g>
   <g id="patch_186">
    <path d="M 269.618591 268.249608 
L 274.718255 268.249608 
L 274.718255 257.626593 
L 269.618591 257.626593 
z
" clip-path="url(#pbd8daadce0)" style="fill: #56b4e9"/>
   </g>
   <g id="patch_187">
    <path d="M 274.718255 268.249608 
L 279.817919 268.249608 
L 279.817919 257.533143 
L 274.718255 257.533143 
z
" clip-path="url(#pbd8daadce0)" style="fill: #56b4e9"/>
   </g>
   <g id="patch_188">
    <path d="M 279.817919 268.249608 
L 284.917584 268.249608 
L 284.917584 258.046459 
L 279.817919 258.046459 
z
" clip-path="url(#pbd8daadce0)" style="fill: #56b4e9"/>
   </g>
   <g id="patch_189">
    <path d="M 284.917584 268.249608 
L 290.017248 268.249608 
L 290.017248 257.330449 
L 284.917584 257.330449 
z
" clip-path="url(#pbd8daadce0)" style="fill: #56b4e9"/>
   </g>
   <g id="patch_190">
    <path d="M 290.017248 268.249608 
L 295.116913 268.249608 
L 295.116913 257.184351 
L 290.017248 257.184351 
z
" clip-path="url(#pbd8daadce0)" style="fill: #56b4e9"/>
   </g>
   <g id="patch_191">
    <path d="M 295.116913 268.249608 
L 300.216577 268.249608 
L 300.216577 256.882942 
L 295.116913 256.882942 
z
" clip-path="url(#pbd8daadce0)" style="fill: #56b4e9"/>
   </g>
   <g id="patch_192">
    <path d="M 300.216577 268.249608 
L 305.316242 268.249608 
L 305.316242 259.882552 
L 300.216577 259.882552 
z
" clip-path="url(#pbd8daadce0)" style="fill: #56b4e9"/>
   </g>
   <g id="patch_193">
    <path d="M 305.316242 268.249608 
L 310.415906 268.249608 
L 310.415906 259.413987 
L 305.316242 259.413987 
z
" clip-path="url(#pbd8daadce0)" style="fill: #56b4e9"/>
   </g>
   <g id="patch_194">
    <path d="M 310.415906 268.249608 
L 315.51557 268.249608 
L 315.51557 260.601195 
L 310.415906 260.601195 
z
" clip-path="url(#pbd8daadce0)" style="fill: #56b4e9"/>
   </g>
   <g id="patch_195">
    <path d="M 315.51557 268.249608 
L 320.615235 268.249608 
L 320.615235 261.758131 
L 315.51557 261.758131 
z
" clip-path="url(#pbd8daadce0)" style="fill: #56b4e9"/>
   </g>
   <g id="patch_196">
    <path d="M 320.615235 268.249608 
L 325.714899 268.249608 
L 325.714899 257.971436 
L 320.615235 257.971436 
z
" clip-path="url(#pbd8daadce0)" style="fill: #56b4e9"/>
   </g>
   <g id="patch_197">
    <path d="M 325.714899 268.249608 
L 330.814564 268.249608 
L 330.814564 253.980731 
L 325.714899 253.980731 
z
" clip-path="url(#pbd8daadce0)" style="fill: #56b4e9"/>
   </g>
   <g id="patch_198">
    <path d="M 330.814564 268.249608 
L 335.914228 268.249608 
L 335.914228 256.994819 
L 330.814564 256.994819 
z
" clip-path="url(#pbd8daadce0)" style="fill: #56b4e9"/>
   </g>
   <g id="patch_199">
    <path d="M 335.914228 268.249608 
L 341.013893 268.249608 
L 341.013893 259.953627 
L 335.914228 259.953627 
z
" clip-path="url(#pbd8daadce0)" style="fill: #56b4e9"/>
   </g>
   <g id="patch_200">
    <path d="M 341.013893 268.249608 
L 346.113557 268.249608 
L 346.113557 260.580136 
L 341.013893 260.580136 
z
" clip-path="url(#pbd8daadce0)" style="fill: #56b4e9"/>
   </g>
   <g id="patch_201">
    <path d="M 346.113557 268.249608 
L 351.213221 268.249608 
L 351.213221 260.428773 
L 346.113557 260.428773 
z
" clip-path="url(#pbd8daadce0)" style="fill: #56b4e9"/>
   </g>
   <g id="patch_202">
    <path d="M 351.213221 268.249608 
L 356.312886 268.249608 
L 356.312886 261.598871 
L 351.213221 261.598871 
z
" clip-path="url(#pbd8daadce0)" style="fill: #56b4e9"/>
   </g>
   <g id="patch_203">
    <path d="M 356.312886 268.249608 
L 361.41255 268.249608 
L 361.41255 261.157946 
L 356.312886 261.157946 
z
" clip-path="url(#pbd8daadce0)" style="fill: #56b4e9"/>
   </g>
   <g id="patch_204">
    <path d="M 361.41255 268.249608 
L 366.512215 268.249608 
L 366.512215 260.776249 
L 361.41255 260.776249 
z
" clip-path="url(#pbd8daadce0)" style="fill: #56b4e9"/>
   </g>
   <g id="patch_205">
    <path d="M 366.512215 268.249608 
L 371.611879 268.249608 
L 371.611879 260.868383 
L 366.512215 260.868383 
z
" clip-path="url(#pbd8daadce0)" style="fill: #56b4e9"/>
   </g>
   <g id="patch_206">
    <path d="M 371.611879 268.249608 
L 376.711544 268.249608 
L 376.711544 259.910192 
L 371.611879 259.910192 
z
" clip-path="url(#pbd8daadce0)" style="fill: #56b4e9"/>
   </g>
   <g id="patch_207">
    <path d="M 376.711544 268.249608 
L 381.811208 268.249608 
L 381.811208 258.358398 
L 376.711544 258.358398 
z
" clip-path="url(#pbd8daadce0)" style="fill: #56b4e9"/>
   </g>
   <g id="patch_208">
    <path d="M 381.811208 268.249608 
L 386.910872 268.249608 
L 386.910872 257.206726 
L 381.811208 257.206726 
z
" clip-path="url(#pbd8daadce0)" style="fill: #56b4e9"/>
   </g>
   <g id="patch_209">
    <path d="M 386.910872 268.249608 
L 392.010537 268.249608 
L 392.010537 256.417009 
L 386.910872 256.417009 
z
" clip-path="url(#pbd8daadce0)" style="fill: #56b4e9"/>
   </g>
   <g id="patch_210">
    <path d="M 392.010537 268.249608 
L 397.110201 268.249608 
L 397.110201 258.699292 
L 392.010537 258.699292 
z
" clip-path="url(#pbd8daadce0)" style="fill: #56b4e9"/>
   </g>
   <g id="patch_211">
    <path d="M 397.110201 268.249608 
L 402.209866 268.249608 
L 402.209866 260.738079 
L 397.110201 260.738079 
z
" clip-path="url(#pbd8daadce0)" style="fill: #56b4e9"/>
   </g>
   <g id="patch_212">
    <path d="M 402.209866 268.249608 
L 407.30953 268.249608 
L 407.30953 261.126357 
L 402.209866 261.126357 
z
" clip-path="url(#pbd8daadce0)" style="fill: #56b4e9"/>
   </g>
   <g id="patch_213">
    <path d="M 407.30953 268.249608 
L 412.409195 268.249608 
L 412.409195 262.091129 
L 407.30953 262.091129 
z
" clip-path="url(#pbd8daadce0)" style="fill: #56b4e9"/>
   </g>
   <g id="patch_214">
    <path d="M 412.409195 268.249608 
L 417.508859 268.249608 
L 417.508859 262.366214 
L 412.409195 262.366214 
z
" clip-path="url(#pbd8daadce0)" style="fill: #56b4e9"/>
   </g>
   <g id="patch_215">
    <path d="M 417.508859 268.249608 
L 422.608523 268.249608 
L 422.608523 260.673586 
L 417.508859 260.673586 
z
" clip-path="url(#pbd8daadce0)" style="fill: #56b4e9"/>
   </g>
   <g id="patch_216">
    <path d="M 422.608523 268.249608 
L 427.708188 268.249608 
L 427.708188 258.801956 
L 422.608523 258.801956 
z
" clip-path="url(#pbd8daadce0)" style="fill: #56b4e9"/>
   </g>
   <g id="patch_217">
    <path d="M 427.708188 268.249608 
L 432.807852 268.249608 
L 432.807852 259.320537 
L 427.708188 259.320537 
z
" clip-path="url(#pbd8daadce0)" style="fill: #56b4e9"/>
   </g>
   <g id="patch_218">
    <path d="M 432.807852 268.249608 
L 437.907517 268.249608 
L 437.907517 262.650512 
L 432.807852 262.650512 
z
" clip-path="url(#pbd8daadce0)" style="fill: #56b4e9"/>
   </g>
   <g id="patch_219">
    <path d="M 437.907517 268.249608 
L 443.007181 268.249608 
L 443.007181 264.231263 
L 437.907517 264.231263 
z
" clip-path="url(#pbd8daadce0)" style="fill: #56b4e9"/>
   </g>
   <g id="patch_220">
    <path d="M 443.007181 268.249608 
L 448.106846 268.249608 
L 448.106846 260.024701 
L 443.007181 260.024701 
z
" clip-path="url(#pbd8daadce0)" style="fill: #56b4e9"/>
   </g>
   <g id="patch_221">
    <path d="M 448.106846 268.249608 
L 453.20651 268.249608 
L 453.20651 250.691558 
L 448.106846 250.691558 
z
" clip-path="url(#pbd8daadce0)" style="fill: #56b4e9"/>
   </g>
   <g id="patch_222">
    <path d="M 453.20651 268.249608 
L 458.306174 268.249608 
L 458.306174 240.443658 
L 453.20651 240.443658 
z
" clip-path="url(#pbd8daadce0)" style="fill: #56b4e9"/>
   </g>
   <g id="patch_223">
    <path d="M 458.306174 268.249608 
L 463.405839 268.249608 
L 463.405839 226.892107 
L 458.306174 226.892107 
z
" clip-path="url(#pbd8daadce0)" style="fill: #56b4e9"/>
   </g>
   <g id="patch_224">
    <path d="M 463.405839 268.249608 
L 468.505503 268.249608 
L 468.505503 226.922379 
L 463.405839 226.922379 
z
" clip-path="url(#pbd8daadce0)" style="fill: #56b4e9"/>
   </g>
   <g id="patch_225">
    <path d="M 468.505503 268.249608 
L 473.605168 268.249608 
L 473.605168 224.900702 
L 468.505503 224.900702 
z
" clip-path="url(#pbd8daadce0)" style="fill: #56b4e9"/>
   </g>
   <g id="patch_226">
    <path d="M 473.605168 268.249608 
L 478.704832 268.249608 
L 478.704832 236.66486 
L 473.605168 236.66486 
z
" clip-path="url(#pbd8daadce0)" style="fill: #56b4e9"/>
   </g>
   <g id="patch_227">
    <path d="M 478.704832 268.249608 
L 483.804497 268.249608 
L 483.804497 231.4751 
L 478.704832 231.4751 
z
" clip-path="url(#pbd8daadce0)" style="fill: #56b4e9"/>
   </g>
   <g id="patch_228">
    <path d="M 483.804497 268.249608 
L 488.904161 268.249608 
L 488.904161 226.653875 
L 483.804497 226.653875 
z
" clip-path="url(#pbd8daadce0)" style="fill: #56b4e9"/>
   </g>
   <g id="patch_229">
    <path d="M 488.904161 268.249608 
L 494.003826 268.249608 
L 494.003826 233.687625 
L 488.904161 233.687625 
z
" clip-path="url(#pbd8daadce0)" style="fill: #56b4e9"/>
   </g>
   <g id="patch_230">
    <path d="M 494.003826 268.249608 
L 499.10349 268.249608 
L 499.10349 243.011556 
L 494.003826 243.011556 
z
" clip-path="url(#pbd8daadce0)" style="fill: #56b4e9"/>
   </g>
   <g id="patch_231">
    <path d="M 499.10349 268.249608 
L 504.203154 268.249608 
L 504.203154 240.850362 
L 499.10349 240.850362 
z
" clip-path="url(#pbd8daadce0)" style="fill: #56b4e9"/>
   </g>
   <g id="patch_232">
    <path d="M 504.203154 268.249608 
L 509.302819 268.249608 
L 509.302819 228.672919 
L 504.203154 228.672919 
z
" clip-path="url(#pbd8daadce0)" style="fill: #56b4e9"/>
   </g>
   <g id="patch_233">
    <path d="M 509.302819 268.249608 
L 514.402483 268.249608 
L 514.402483 231.357959 
L 509.302819 231.357959 
z
" clip-path="url(#pbd8daadce0)" style="fill: #56b4e9"/>
   </g>
   <g id="patch_234">
    <path d="M 514.402483 268.249608 
L 519.502148 268.249608 
L 519.502148 224.784877 
L 514.402483 224.784877 
z
" clip-path="url(#pbd8daadce0)" style="fill: #56b4e9"/>
   </g>
   <g id="patch_235">
    <path d="M 519.502148 268.249608 
L 524.601812 268.249608 
L 524.601812 239.165632 
L 519.502148 239.165632 
z
" clip-path="url(#pbd8daadce0)" style="fill: #56b4e9"/>
   </g>
   <g id="patch_236">
    <path d="M 524.601812 268.249608 
L 529.701477 268.249608 
L 529.701477 243.124748 
L 524.601812 243.124748 
z
" clip-path="url(#pbd8daadce0)" style="fill: #56b4e9"/>
   </g>
   <g id="patch_237">
    <path d="M 529.701477 268.249608 
L 534.801141 268.249608 
L 534.801141 233.840304 
L 529.701477 233.840304 
z
" clip-path="url(#pbd8daadce0)" style="fill: #56b4e9"/>
   </g>
   <g id="patch_238">
    <path d="M 534.801141 268.249608 
L 539.900805 268.249608 
L 539.900805 229.265207 
L 534.801141 229.265207 
z
" clip-path="url(#pbd8daadce0)" style="fill: #56b4e9"/>
   </g>
   <g id="patch_239">
    <path d="M 539.900805 268.249608 
L 545.00047 268.249608 
L 545.00047 235.234155 
L 539.900805 235.234155 
z
" clip-path="url(#pbd8daadce0)" style="fill: #56b4e9"/>
   </g>
   <g id="patch_240">
    <path d="M 545.00047 268.249608 
L 550.100134 268.249608 
L 550.100134 232.778134 
L 545.00047 232.778134 
z
" clip-path="url(#pbd8daadce0)" style="fill: #56b4e9"/>
   </g>
   <g id="patch_241">
    <path d="M 550.100134 268.249608 
L 555.199799 268.249608 
L 555.199799 217.794562 
L 550.100134 217.794562 
z
" clip-path="url(#pbd8daadce0)" style="fill: #56b4e9"/>
   </g>
   <g id="patch_242">
    <path d="M 555.199799 268.249608 
L 560.299463 268.249608 
L 560.299463 202.984727 
L 555.199799 202.984727 
z
" clip-path="url(#pbd8daadce0)" style="fill: #56b4e9"/>
   </g>
   <g id="patch_243">
    <path d="M 560.299463 268.249608 
L 565.399128 268.249608 
L 565.399128 206.427895 
L 560.299463 206.427895 
z
" clip-path="url(#pbd8daadce0)" style="fill: #56b4e9"/>
   </g>
   <g id="patch_244">
    <path d="M 565.399128 268.249608 
L 570.498792 268.249608 
L 570.498792 228.786112 
L 565.399128 228.786112 
z
" clip-path="url(#pbd8daadce0)" style="fill: #56b4e9"/>
   </g>
   <g id="patch_245">
    <path d="M 570.498792 268.249608 
L 575.598456 268.249608 
L 575.598456 220.895519 
L 570.498792 220.895519 
z
" clip-path="url(#pbd8daadce0)" style="fill: #56b4e9"/>
   </g>
   <g id="patch_246">
    <path d="M 575.598456 268.249608 
L 580.698121 268.249608 
L 580.698121 183.351036 
L 575.598456 183.351036 
z
" clip-path="url(#pbd8daadce0)" style="fill: #56b4e9"/>
   </g>
   <g id="patch_247">
    <path d="M 580.698121 268.249608 
L 585.797785 268.249608 
L 585.797785 166.473458 
L 580.698121 166.473458 
z
" clip-path="url(#pbd8daadce0)" style="fill: #56b4e9"/>
   </g>
   <g id="patch_248">
    <path d="M 585.797785 268.249608 
L 590.89745 268.249608 
L 590.89745 212.159928 
L 585.797785 212.159928 
z
" clip-path="url(#pbd8daadce0)" style="fill: #56b4e9"/>
   </g>
   <g id="patch_249">
    <path d="M 590.89745 268.249608 
L 595.997114 268.249608 
L 595.997114 228.903254 
L 590.89745 228.903254 
z
" clip-path="url(#pbd8daadce0)" style="fill: #56b4e9"/>
   </g>
   <g id="patch_250">
    <path d="M 595.997114 268.249608 
L 601.096779 268.249608 
L 601.096779 229.496858 
L 595.997114 229.496858 
z
" clip-path="url(#pbd8daadce0)" style="fill: #56b4e9"/>
   </g>
   <g id="patch_251">
    <path d="M 601.096779 268.249608 
L 606.196443 268.249608 
L 606.196443 218.984403 
L 601.096779 218.984403 
z
" clip-path="url(#pbd8daadce0)" style="fill: #56b4e9"/>
   </g>
   <g id="patch_252">
    <path d="M 606.196443 268.249608 
L 611.296107 268.249608 
L 611.296107 210.161943 
L 606.196443 210.161943 
z
" clip-path="url(#pbd8daadce0)" style="fill: #56b4e9"/>
   </g>
   <g id="patch_253">
    <path d="M 611.296107 268.249608 
L 616.395772 268.249608 
L 616.395772 208.373233 
L 611.296107 208.373233 
z
" clip-path="url(#pbd8daadce0)" style="fill: #56b4e9"/>
   </g>
   <g id="patch_254">
    <path d="M 616.395772 268.249608 
L 621.495436 268.249608 
L 621.495436 210.330416 
L 616.395772 210.330416 
z
" clip-path="url(#pbd8daadce0)" style="fill: #56b4e9"/>
   </g>
   <g id="patch_255">
    <path d="M 621.495436 268.249608 
L 626.595101 268.249608 
L 626.595101 220.620434 
L 621.495436 220.620434 
z
" clip-path="url(#pbd8daadce0)" style="fill: #56b4e9"/>
   </g>
   <g id="patch_256">
    <path d="M 626.595101 268.249608 
L 631.694765 268.249608 
L 631.694765 219.517462 
L 626.595101 219.517462 
z
" clip-path="url(#pbd8daadce0)" style="fill: #56b4e9"/>
   </g>
   <g id="patch_257">
    <path d="M 631.694765 268.249608 
L 636.79443 268.249608 
L 636.79443 216.357276 
L 631.694765 216.357276 
z
" clip-path="url(#pbd8daadce0)" style="fill: #56b4e9"/>
   </g>
   <g id="patch_258">
    <path d="M 636.79443 268.249608 
L 641.894094 268.249608 
L 641.894094 225.77334 
L 636.79443 225.77334 
z
" clip-path="url(#pbd8daadce0)" style="fill: #56b4e9"/>
   </g>
   <g id="patch_259">
    <path d="M 641.894094 268.249608 
L 646.993758 268.249608 
L 646.993758 228.262266 
L 641.894094 228.262266 
z
" clip-path="url(#pbd8daadce0)" style="fill: #56b4e9"/>
   </g>
   <g id="patch_260">
    <path d="M 646.993758 268.249608 
L 652.093423 268.249608 
L 652.093423 232.060807 
L 646.993758 232.060807 
z
" clip-path="url(#pbd8daadce0)" style="fill: #56b4e9"/>
   </g>
   <g id="patch_261">
    <path d="M 652.093423 268.249608 
L 657.193087 268.249608 
L 657.193087 226.80787 
L 652.093423 226.80787 
z
" clip-path="url(#pbd8daadce0)" style="fill: #56b4e9"/>
   </g>
   <g id="patch_262">
    <path d="M 657.193087 268.249608 
L 662.292752 268.249608 
L 662.292752 224.647993 
L 657.193087 224.647993 
z
" clip-path="url(#pbd8daadce0)" style="fill: #56b4e9"/>
   </g>
   <g id="patch_263">
    <path d="M 662.292752 268.249608 
L 667.392416 268.249608 
L 667.392416 216.276988 
L 662.292752 216.276988 
z
" clip-path="url(#pbd8daadce0)" style="fill: #56b4e9"/>
   </g>
   <g id="patch_264">
    <path d="M 667.392416 268.249608 
L 672.492081 268.249608 
L 672.492081 212.092802 
L 667.392416 212.092802 
z
" clip-path="url(#pbd8daadce0)" style="fill: #56b4e9"/>
   </g>
   <g id="patch_265">
    <path d="M 672.492081 268.249608 
L 677.591745 268.249608 
L 677.591745 201.002537 
L 672.492081 201.002537 
z
" clip-path="url(#pbd8daadce0)" style="fill: #56b4e9"/>
   </g>
   <g id="patch_266">
    <path d="M 677.591745 268.249608 
L 682.691409 268.249608 
L 682.691409 181.557061 
L 677.591745 181.557061 
z
" clip-path="url(#pbd8daadce0)" style="fill: #56b4e9"/>
   </g>
   <g id="patch_267">
    <path d="M 682.691409 268.249608 
L 687.791074 268.249608 
L 687.791074 189.214688 
L 682.691409 189.214688 
z
" clip-path="url(#pbd8daadce0)" style="fill: #56b4e9"/>
   </g>
   <g id="patch_268">
    <path d="M 687.791074 268.249608 
L 692.890738 268.249608 
L 692.890738 202.793879 
L 687.791074 202.793879 
z
" clip-path="url(#pbd8daadce0)" style="fill: #56b4e9"/>
   </g>
   <g id="patch_269">
    <path d="M 692.890738 268.249608 
L 697.990403 268.249608 
L 697.990403 208.562765 
L 692.890738 208.562765 
z
" clip-path="url(#pbd8daadce0)" style="fill: #56b4e9"/>
   </g>
   <g id="patch_270">
    <path d="M 697.990403 268.249608 
L 703.090067 268.249608 
L 703.090067 186.813947 
L 697.990403 186.813947 
z
" clip-path="url(#pbd8daadce0)" style="fill: #56b4e9"/>
   </g>
   <g id="patch_271">
    <path d="M 703.090067 268.249608 
L 708.189732 268.249608 
L 708.189732 158.218279 
L 703.090067 158.218279 
z
" clip-path="url(#pbd8daadce0)" style="fill: #56b4e9"/>
   </g>
   <g id="patch_272">
    <path d="M 708.189732 268.249608 
L 713.289396 268.249608 
L 713.289396 207.853335 
L 708.189732 207.853335 
z
" clip-path="url(#pbd8daadce0)" style="fill: #56b4e9"/>
   </g>
   <g id="patch_273">
    <path d="M 713.289396 268.249608 
L 718.38906 268.249608 
L 718.38906 215.73998 
L 713.289396 215.73998 
z
" clip-path="url(#pbd8daadce0)" style="fill: #56b4e9"/>
   </g>
   <g id="patch_274">
    <path d="M 718.38906 268.249608 
L 723.488725 268.249608 
L 723.488725 209.260349 
L 718.38906 209.260349 
z
" clip-path="url(#pbd8daadce0)" style="fill: #56b4e9"/>
   </g>
   <g id="patch_275">
    <path d="M 723.488725 268.249608 
L 728.588389 268.249608 
L 728.588389 203.241386 
L 723.488725 203.241386 
z
" clip-path="url(#pbd8daadce0)" style="fill: #56b4e9"/>
   </g>
   <g id="patch_276">
    <path d="M 728.588389 268.249608 
L 733.688054 268.249608 
L 733.688054 202.65173 
L 728.588389 202.65173 
z
" clip-path="url(#pbd8daadce0)" style="fill: #56b4e9"/>
   </g>
   <g id="patch_277">
    <path d="M 733.688054 268.249608 
L 738.787718 268.249608 
L 738.787718 191.042884 
L 733.688054 191.042884 
z
" clip-path="url(#pbd8daadce0)" style="fill: #56b4e9"/>
   </g>
   <g id="patch_278">
    <path d="M 738.787718 268.249608 
L 743.887383 268.249608 
L 743.887383 188.23149 
L 738.787718 188.23149 
z
" clip-path="url(#pbd8daadce0)" style="fill: #56b4e9"/>
   </g>
   <g id="patch_279">
    <path d="M 743.887383 268.249608 
L 748.987047 268.249608 
L 748.987047 183.898573 
L 743.887383 183.898573 
z
" clip-path="url(#pbd8daadce0)" style="fill: #56b4e9"/>
   </g>
   <g id="patch_280">
    <path d="M 748.987047 268.249608 
L 754.086711 268.249608 
L 754.086711 184.282902 
L 748.987047 184.282902 
z
" clip-path="url(#pbd8daadce0)" style="fill: #56b4e9"/>
   </g>
   <g id="patch_281">
    <path d="M 754.086711 268.249608 
L 759.186376 268.249608 
L 759.186376 186.60862 
L 754.086711 186.60862 
z
" clip-path="url(#pbd8daadce0)" style="fill: #56b4e9"/>
   </g>
   <g id="patch_282">
    <path d="M 759.186376 268.249608 
L 764.28604 268.249608 
L 764.28604 182.395478 
L 759.186376 182.395478 
z
" clip-path="url(#pbd8daadce0)" style="fill: #56b4e9"/>
   </g>
   <g id="patch_283">
    <path d="M 764.28604 268.249608 
L 769.385705 268.249608 
L 769.385705 142.223868 
L 764.28604 142.223868 
z
" clip-path="url(#pbd8daadce0)" style="fill: #56b4e9"/>
   </g>
   <g id="patch_284">
    <path d="M 769.385705 268.249608 
L 774.485369 268.249608 
L 774.485369 137.307877 
L 769.385705 137.307877 
z
" clip-path="url(#pbd8daadce0)" style="fill: #56b4e9"/>
   </g>
   <g id="patch_285">
    <path d="M 774.485369 268.249608 
L 779.585034 268.249608 
L 779.585034 135.088771 
L 774.485369 135.088771 
z
" clip-path="url(#pbd8daadce0)" style="fill: #56b4e9"/>
   </g>
   <g id="patch_286">
    <path d="M 779.585034 268.249608 
L 784.684698 268.249608 
L 784.684698 133.62911 
L 779.585034 133.62911 
z
" clip-path="url(#pbd8daadce0)" style="fill: #56b4e9"/>
   </g>
   <g id="patch_287">
    <path d="M 784.684698 268.249608 
L 789.784362 268.249608 
L 789.784362 138.208155 
L 784.684698 138.208155 
z
" clip-path="url(#pbd8daadce0)" style="fill: #56b4e9"/>
   </g>
   <g id="patch_288">
    <path d="M 789.784362 268.249608 
L 794.884027 268.249608 
L 794.884027 141.280156 
L 789.784362 141.280156 
z
" clip-path="url(#pbd8daadce0)" style="fill: #56b4e9"/>
   </g>
   <g id="patch_289">
    <path d="M 794.884027 268.249608 
L 799.983691 268.249608 
L 799.983691 132.603794 
L 794.884027 132.603794 
z
" clip-path="url(#pbd8daadce0)" style="fill: #56b4e9"/>
   </g>
   <g id="patch_290">
    <path d="M 799.983691 268.249608 
L 805.083356 268.249608 
L 805.083356 115.774915 
L 799.983691 115.774915 
z
" clip-path="url(#pbd8daadce0)" style="fill: #56b4e9"/>
   </g>
   <g id="patch_291">
    <path d="M 805.083356 268.249608 
L 810.18302 268.249608 
L 810.18302 101.137503 
L 805.083356 101.137503 
z
" clip-path="url(#pbd8daadce0)" style="fill: #56b4e9"/>
   </g>
   <g id="patch_292">
    <path d="M 810.18302 268.249608 
L 815.282685 268.249608 
L 815.282685 91.563495 
L 810.18302 91.563495 
z
" clip-path="url(#pbd8daadce0)" style="fill: #56b4e9"/>
   </g>
   <g id="patch_293">
    <path d="M 815.282685 268.249608 
L 820.382349 268.249608 
L 820.382349 53.703125 
L 815.282685 53.703125 
z
" clip-path="url(#pbd8daadce0)" style="fill: #56b4e9"/>
   </g>
   <g id="patch_294">
    <path d="M 820.382349 268.249608 
L 825.482013 268.249608 
L 825.482013 78.073805 
L 820.382349 78.073805 
z
" clip-path="url(#pbd8daadce0)" style="fill: #56b4e9"/>
   </g>
   <g id="patch_295">
    <path d="M 825.482013 268.249608 
L 830.581678 268.249608 
L 830.581678 93.719423 
L 825.482013 93.719423 
z
" clip-path="url(#pbd8daadce0)" style="fill: #56b4e9"/>
   </g>
   <g id="patch_296">
    <path d="M 830.581678 268.249608 
L 835.681342 268.249608 
L 835.681342 115.827563 
L 830.581678 115.827563 
z
" clip-path="url(#pbd8daadce0)" style="fill: #56b4e9"/>
   </g>
   <g id="patch_297">
    <path d="M 835.681342 268.249608 
L 840.781007 268.249608 
L 840.781007 159.63977 
L 835.681342 159.63977 
z
" clip-path="url(#pbd8daadce0)" style="fill: #56b4e9"/>
   </g>
   <g id="patch_298">
    <path d="M 840.781007 268.249608 
L 845.880671 268.249608 
L 845.880671 148.961474 
L 840.781007 148.961474 
z
" clip-path="url(#pbd8daadce0)" style="fill: #56b4e9"/>
   </g>
   <g id="patch_299">
    <path d="M 845.880671 268.249608 
L 850.980336 268.249608 
L 850.980336 133.423784 
L 845.880671 133.423784 
z
" clip-path="url(#pbd8daadce0)" style="fill: #56b4e9"/>
   </g>
   <g id="patch_300">
    <path d="M 850.980336 268.249608 
L 856.08 268.249608 
L 856.08 143.850686 
L 850.980336 143.850686 
z
" clip-path="url(#pbd8daadce0)" style="fill: #56b4e9"/>
   </g>
   <g id="matplotlib.axis_1">
    <g id="xtick_1">
     <g id="line2d_1">
      <path d="M 124.278154 380.463125 
L 124.278154 38.143125 
" clip-path="url(#pbd8daadce0)" style="fill: none; stroke-dasharray: 2.96,1.28; stroke-dashoffset: 0; stroke: #b0b0b0; stroke-opacity: 0.5; stroke-width: 0.8"/>
     </g>
     <g id="line2d_2">
      <defs>
       <path id="mabb4e8b3e0" d="M 0 0 
L 0 3.5 
" style="stroke: #000000; stroke-width: 0.8"/>
      </defs>
      <g>
       <use xlink:href="#mabb4e8b3e0" x="124.278154" y="380.463125" style="stroke: #000000; stroke-width: 0.8"/>
      </g>
     </g>
     <g id="text_1">
      <text style="font-size: 14px; font-family: 'Liberation Sans', sans-serif; text-anchor: middle" x="124.278154" y="397.60875" transform="rotate(-0 124.278154 397.60875)">1880</text>
     </g>
    </g>
    <g id="xtick_2">
     <g id="line2d_3">
      <path d="M 175.274799 380.463125 
L 175.274799 38.143125 
" clip-path="url(#pbd8daadce0)" style="fill: none; stroke-dasharray: 2.96,1.28; stroke-dashoffset: 0; stroke: #b0b0b0; stroke-opacity: 0.5; stroke-width: 0.8"/>
     </g>
     <g id="line2d_4">
      <g>
       <use xlink:href="#mabb4e8b3e0" x="175.274799" y="380.463125" style="stroke: #000000; stroke-width: 0.8"/>
      </g>
     </g>
     <g id="text_2">
      <text style="font-size: 14px; font-family: 'Liberation Sans', sans-serif; text-anchor: middle" x="175.274799" y="397.60875" transform="rotate(-0 175.274799 397.60875)">1890</text>
     </g>
    </g>
    <g id="xtick_3">
     <g id="line2d_5">
      <path d="M 226.271443 380.463125 
L 226.271443 38.143125 
" clip-path="url(#pbd8daadce0)" style="fill: none; stroke-dasharray: 2.96,1.28; stroke-dashoffset: 0; stroke: #b0b0b0; stroke-opacity: 0.5; stroke-width: 0.8"/>
     </g>
     <g id="line2d_6">
      <g>
       <use xlink:href="#mabb4e8b3e0" x="226.271443" y="380.463125" style="stroke: #000000; stroke-width: 0.8"/>
      </g>
     </g>
     <g id="text_3">
      <text style="font-size: 14px; font-family: 'Liberation Sans', sans-serif; text-anchor: middle" x="226.271443" y="397.60875" transform="rotate(-0 226.271443 397.60875)">1900</text>
     </g>
    </g>
    <g id="xtick_4">
     <g id="line2d_7">
      <path d="M 277.268087 380.463125 
L 277.268087 38.143125 
" clip-path="url(#pbd8daadce0)" style="fill: none; stroke-dasharray: 2.96,1.28; stroke-dashoffset: 0; stroke: #b0b0b0; stroke-opacity: 0.5; stroke-width: 0.8"/>
     </g>
     <g id="line2d_8">
      <g>
       <use xlink:href="#mabb4e8b3e0" x="277.268087" y="380.463125" style="stroke: #000000; stroke-width: 0.8"/>
      </g>
     </g>
     <g id="text_4">
      <text style="font-size: 14px; font-family: 'Liberation Sans', sans-serif; text-anchor: middle" x="277.268087" y="397.60875" transform="rotate(-0 277.268087 397.60875)">1910</text>
     </g>
    </g>
    <g id="xtick_5">
     <g id="line2d_9">
      <path d="M 328.264732 380.463125 
L 328.264732 38.143125 
" clip-path="url(#pbd8daadce0)" style="fill: none; stroke-dasharray: 2.96,1.28; stroke-dashoffset: 0; stroke: #b0b0b0; stroke-opacity: 0.5; stroke-width: 0.8"/>
     </g>
     <g id="line2d_10">
      <g>
       <use xlink:href="#mabb4e8b3e0" x="328.264732" y="380.463125" style="stroke: #000000; stroke-width: 0.8"/>
      </g>
     </g>
     <g id="text_5">
      <text style="font-size: 14px; font-family: 'Liberation Sans', sans-serif; text-anchor: middle" x="328.264732" y="397.60875" transform="rotate(-0 328.264732 397.60875)">1920</text>
     </g>
    </g>
    <g id="xtick_6">
     <g id="line2d_11">
      <path d="M 379.261376 380.463125 
L 379.261376 38.143125 
" clip-path="url(#pbd8daadce0)" style="fill: none; stroke-dasharray: 2.96,1.28; stroke-dashoffset: 0; stroke: #b0b0b0; stroke-opacity: 0.5; stroke-width: 0.8"/>
     </g>
     <g id="line2d_12">
      <g>
       <use xlink:href="#mabb4e8b3e0" x="379.261376" y="380.463125" style="stroke: #000000; stroke-width: 0.8"/>
      </g>
     </g>
     <g id="text_6">
      <text style="font-size: 14px; font-family: 'Liberation Sans', sans-serif; text-anchor: middle" x="379.261376" y="397.60875" transform="rotate(-0 379.261376 397.60875)">1930</text>
     </g>
    </g>
    <g id="xtick_7">
     <g id="line2d_13">
      <path d="M 430.25802 380.463125 
L 430.25802 38.143125 
" clip-path="url(#pbd8daadce0)" style="fill: none; stroke-dasharray: 2.96,1.28; stroke-dashoffset: 0; stroke: #b0b0b0; stroke-opacity: 0.5; stroke-width: 0.8"/>
     </g>
     <g id="line2d_14">
      <g>
       <use xlink:href="#mabb4e8b3e0" x="430.25802" y="380.463125" style="stroke: #000000; stroke-width: 0.8"/>
      </g>
     </g>
     <g id="text_7">
      <text style="font-size: 14px; font-family: 'Liberation Sans', sans-serif; text-anchor: middle" x="430.25802" y="397.60875" transform="rotate(-0 430.25802 397.60875)">1940</text>
     </g>
    </g>
    <g id="xtick_8">
     <g id="line2d_15">
      <path d="M 481.254664 380.463125 
L 481.254664 38.143125 
" clip-path="url(#pbd8daadce0)" style="fill: none; stroke-dasharray: 2.96,1.28; stroke-dashoffset: 0; stroke: #b0b0b0; stroke-opacity: 0.5; stroke-width: 0.8"/>
     </g>
     <g id="line2d_16">
      <g>
       <use xlink:href="#mabb4e8b3e0" x="481.254664" y="380.463125" style="stroke: #000000; stroke-width: 0.8"/>
      </g>
     </g>
     <g id="text_8">
      <text style="font-size: 14px; font-family: 'Liberation Sans', sans-serif; text-anchor: middle" x="481.254664" y="397.60875" transform="rotate(-0 481.254664 397.60875)">1950</text>
     </g>
    </g>
    <g id="xtick_9">
     <g id="line2d_17">
      <path d="M 532.251309 380.463125 
L 532.251309 38.143125 
" clip-path="url(#pbd8daadce0)" style="fill: none; stroke-dasharray: 2.96,1.28; stroke-dashoffset: 0; stroke: #b0b0b0; stroke-opacity: 0.5; stroke-width: 0.8"/>
     </g>
     <g id="line2d_18">
      <g>
       <use xlink:href="#mabb4e8b3e0" x="532.251309" y="380.463125" style="stroke: #000000; stroke-width: 0.8"/>
      </g>
     </g>
     <g id="text_9">
      <text style="font-size: 14px; font-family: 'Liberation Sans', sans-serif; text-anchor: middle" x="532.251309" y="397.60875" transform="rotate(-0 532.251309 397.60875)">1960</text>
     </g>
    </g>
    <g id="xtick_10">
     <g id="line2d_19">
      <path d="M 583.247953 380.463125 
L 583.247953 38.143125 
" clip-path="url(#pbd8daadce0)" style="fill: none; stroke-dasharray: 2.96,1.28; stroke-dashoffset: 0; stroke: #b0b0b0; stroke-opacity: 0.5; stroke-width: 0.8"/>
     </g>
     <g id="line2d_20">
      <g>
       <use xlink:href="#mabb4e8b3e0" x="583.247953" y="380.463125" style="stroke: #000000; stroke-width: 0.8"/>
      </g>
     </g>
     <g id="text_10">
      <text style="font-size: 14px; font-family: 'Liberation Sans', sans-serif; text-anchor: middle" x="583.247953" y="397.60875" transform="rotate(-0 583.247953 397.60875)">1970</text>
     </g>
    </g>
    <g id="xtick_11">
     <g id="line2d_21">
      <path d="M 634.244597 380.463125 
L 634.244597 38.143125 
" clip-path="url(#pbd8daadce0)" style="fill: none; stroke-dasharray: 2.96,1.28; stroke-dashoffset: 0; stroke: #b0b0b0; stroke-opacity: 0.5; stroke-width: 0.8"/>
     </g>
     <g id="line2d_22">
      <g>
       <use xlink:href="#mabb4e8b3e0" x="634.244597" y="380.463125" style="stroke: #000000; stroke-width: 0.8"/>
      </g>
     </g>
     <g id="text_11">
      <text style="font-size: 14px; font-family: 'Liberation Sans', sans-serif; text-anchor: middle" x="634.244597" y="397.60875" transform="rotate(-0 634.244597 397.60875)">1980</text>
     </g>
    </g>
    <g id="xtick_12">
     <g id="line2d_23">
      <path d="M 685.241242 380.463125 
L 685.241242 38.143125 
" clip-path="url(#pbd8daadce0)" style="fill: none; stroke-dasharray: 2.96,1.28; stroke-dashoffset: 0; stroke: #b0b0b0; stroke-opacity: 0.5; stroke-width: 0.8"/>
     </g>
     <g id="line2d_24">
      <g>
       <use xlink:href="#mabb4e8b3e0" x="685.241242" y="380.463125" style="stroke: #000000; stroke-width: 0.8"/>
      </g>
     </g>
     <g id="text_12">
      <text style="font-size: 14px; font-family: 'Liberation Sans', sans-serif; text-anchor: middle" x="685.241242" y="397.60875" transform="rotate(-0 685.241242 397.60875)">1990</text>
     </g>
    </g>
    <g id="xtick_13">
     <g id="line2d_25">
      <path d="M 736.237886 380.463125 
L 736.237886 38.143125 
" clip-path="url(#pbd8daadce0)" style="fill: none; stroke-dasharray: 2.96,1.28; stroke-dashoffset: 0; stroke: #b0b0b0; stroke-opacity: 0.5; stroke-width: 0.8"/>
     </g>
     <g id="line2d_26">
      <g>
       <use xlink:href="#mabb4e8b3e0" x="736.237886" y="380.463125" style="stroke: #000000; stroke-width: 0.8"/>
      </g>
     </g>
     <g id="text_13">
      <text style="font-size: 14px; font-family: 'Liberation Sans', sans-serif; text-anchor: middle" x="736.237886" y="397.60875" transform="rotate(-0 736.237886 397.60875)">2000</text>
     </g>
    </g>
    <g id="xtick_14">
     <g id="line2d_27">
      <path d="M 787.23453 380.463125 
L 787.23453 38.143125 
" clip-path="url(#pbd8daadce0)" style="fill: none; stroke-dasharray: 2.96,1.28; stroke-dashoffset: 0; stroke: #b0b0b0; stroke-opacity: 0.5; stroke-width: 0.8"/>
     </g>
     <g id="line2d_28">
      <g>
       <use xlink:href="#mabb4e8b3e0" x="787.23453" y="380.463125" style="stroke: #000000; stroke-width: 0.8"/>
      </g>
     </g>
     <g id="text_14">
      <text style="font-size: 14px; font-family: 'Liberation Sans', sans-serif; text-anchor: middle" x="787.23453" y="397.60875" transform="rotate(-0 787.23453 397.60875)">2010</text>
     </g>
    </g>
    <g id="xtick_15">
     <g id="line2d_29">
      <path d="M 838.231174 380.463125 
L 838.231174 38.143125 
" clip-path="url(#pbd8daadce0)" style="fill: none; stroke-dasharray: 2.96,1.28; stroke-dashoffset: 0; stroke: #b0b0b0; stroke-opacity: 0.5; stroke-width: 0.8"/>
     </g>
     <g id="line2d_30">
      <g>
       <use xlink:href="#mabb4e8b3e0" x="838.231174" y="380.463125" style="stroke: #000000; stroke-width: 0.8"/>
      </g>
     </g>
     <g id="text_15">
      <text style="font-size: 14px; font-family: 'Liberation Sans', sans-serif; text-anchor: middle" x="838.231174" y="397.60875" transform="rotate(-0 838.231174 397.60875)">2020</text>
     </g>
    </g>
   </g>
   <g id="matplotlib.axis_2">
    <g id="ytick_1">
     <g id="line2d_31">
      <path d="M 96.23 373.545266 
L 856.08 373.545266 
" clip-path="url(#pbd8daadce0)" style="fill: none; stroke-dasharray: 2.96,1.28; stroke-dashoffset: 0; stroke: #b0b0b0; stroke-opacity: 0.5; stroke-width: 0.8"/>
     </g>
     <g id="line2d_32">
      <defs>
       <path id="m276fea9d2b" d="M 0 0 
L -3.5 0 
" style="stroke: #000000; stroke-width: 0.8"/>
      </defs>
      <g>
       <use xlink:href="#m276fea9d2b" x="96.23" y="373.545266" style="stroke: #000000; stroke-width: 0.8"/>
      </g>
     </g>
     <g id="text_16">
      <text style="font-size: 14px; font-family: 'Liberation Sans', sans-serif; text-anchor: end" x="89.23" y="378.618079" transform="rotate(-0 89.23 378.618079)">80,000</text>
     </g>
    </g>
    <g id="ytick_2">
     <g id="line2d_33">
      <path d="M 96.23 347.221352 
L 856.08 347.221352 
" clip-path="url(#pbd8daadce0)" style="fill: none; stroke-dasharray: 2.96,1.28; stroke-dashoffset: 0; stroke: #b0b0b0; stroke-opacity: 0.5; stroke-width: 0.8"/>
     </g>
     <g id="line2d_34">
      <g>
       <use xlink:href="#m276fea9d2b" x="96.23" y="347.221352" style="stroke: #000000; stroke-width: 0.8"/>
      </g>
     </g>
     <g id="text_17">
      <text style="font-size: 14px; font-family: 'Liberation Sans', sans-serif; text-anchor: end" x="89.23" y="352.294164" transform="rotate(-0 89.23 352.294164)">60,000</text>
     </g>
    </g>
    <g id="ytick_3">
     <g id="line2d_35">
      <path d="M 96.23 320.897437 
L 856.08 320.897437 
" clip-path="url(#pbd8daadce0)" style="fill: none; stroke-dasharray: 2.96,1.28; stroke-dashoffset: 0; stroke: #b0b0b0; stroke-opacity: 0.5; stroke-width: 0.8"/>
     </g>
     <g id="line2d_36">
      <g>
       <use xlink:href="#m276fea9d2b" x="96.23" y="320.897437" style="stroke: #000000; stroke-width: 0.8"/>
      </g>
     </g>
     <g id="text_18">
      <text style="font-size: 14px; font-family: 'Liberation Sans', sans-serif; text-anchor: end" x="89.23" y="325.97025" transform="rotate(-0 89.23 325.97025)">40,000</text>
     </g>
    </g>
    <g id="ytick_4">
     <g id="line2d_37">
      <path d="M 96.23 294.573523 
L 856.08 294.573523 
" clip-path="url(#pbd8daadce0)" style="fill: none; stroke-dasharray: 2.96,1.28; stroke-dashoffset: 0; stroke: #b0b0b0; stroke-opacity: 0.5; stroke-width: 0.8"/>
     </g>
     <g id="line2d_38">
      <g>
       <use xlink:href="#m276fea9d2b" x="96.23" y="294.573523" style="stroke: #000000; stroke-width: 0.8"/>
      </g>
     </g>
     <g id="text_19">
      <text style="font-size: 14px; font-family: 'Liberation Sans', sans-serif; text-anchor: end" x="89.23" y="299.646335" transform="rotate(-0 89.23 299.646335)">20,000</text>
     </g>
    </g>
    <g id="ytick_5">
     <g id="line2d_39">
      <path d="M 96.23 268.249608 
L 856.08 268.249608 
" clip-path="url(#pbd8daadce0)" style="fill: none; stroke-dasharray: 2.96,1.28; stroke-dashoffset: 0; stroke: #b0b0b0; stroke-opacity: 0.5; stroke-width: 0.8"/>
     </g>
     <g id="line2d_40">
      <g>
       <use xlink:href="#m276fea9d2b" x="96.23" y="268.249608" style="stroke: #000000; stroke-width: 0.8"/>
      </g>
     </g>
     <g id="text_20">
      <text style="font-size: 14px; font-family: 'Liberation Sans', sans-serif; text-anchor: end" x="89.23" y="273.322421" transform="rotate(-0 89.23 273.322421)">0</text>
     </g>
    </g>
    <g id="ytick_6">
     <g id="line2d_41">
      <path d="M 96.23 241.925694 
L 856.08 241.925694 
" clip-path="url(#pbd8daadce0)" style="fill: none; stroke-dasharray: 2.96,1.28; stroke-dashoffset: 0; stroke: #b0b0b0; stroke-opacity: 0.5; stroke-width: 0.8"/>
     </g>
     <g id="line2d_42">
      <g>
       <use xlink:href="#m276fea9d2b" x="96.23" y="241.925694" style="stroke: #000000; stroke-width: 0.8"/>
      </g>
     </g>
     <g id="text_21">
      <text style="font-size: 14px; font-family: 'Liberation Sans', sans-serif; text-anchor: end" x="89.23" y="246.998507" transform="rotate(-0 89.23 246.998507)">20,000</text>
     </g>
    </g>
    <g id="ytick_7">
     <g id="line2d_43">
      <path d="M 96.23 215.60178 
L 856.08 215.60178 
" clip-path="url(#pbd8daadce0)" style="fill: none; stroke-dasharray: 2.96,1.28; stroke-dashoffset: 0; stroke: #b0b0b0; stroke-opacity: 0.5; stroke-width: 0.8"/>
     </g>
     <g id="line2d_44">
      <g>
       <use xlink:href="#m276fea9d2b" x="96.23" y="215.60178" style="stroke: #000000; stroke-width: 0.8"/>
      </g>
     </g>
     <g id="text_22">
      <text style="font-size: 14px; font-family: 'Liberation Sans', sans-serif; text-anchor: end" x="89.23" y="220.674592" transform="rotate(-0 89.23 220.674592)">40,000</text>
     </g>
    </g>
    <g id="ytick_8">
     <g id="line2d_45">
      <path d="M 96.23 189.277865 
L 856.08 189.277865 
" clip-path="url(#pbd8daadce0)" style="fill: none; stroke-dasharray: 2.96,1.28; stroke-dashoffset: 0; stroke: #b0b0b0; stroke-opacity: 0.5; stroke-width: 0.8"/>
     </g>
     <g id="line2d_46">
      <g>
       <use xlink:href="#m276fea9d2b" x="96.23" y="189.277865" style="stroke: #000000; stroke-width: 0.8"/>
      </g>
     </g>
     <g id="text_23">
      <text style="font-size: 14px; font-family: 'Liberation Sans', sans-serif; text-anchor: end" x="89.23" y="194.350678" transform="rotate(-0 89.23 194.350678)">60,000</text>
     </g>
    </g>
    <g id="ytick_9">
     <g id="line2d_47">
      <path d="M 96.23 162.953951 
L 856.08 162.953951 
" clip-path="url(#pbd8daadce0)" style="fill: none; stroke-dasharray: 2.96,1.28; stroke-dashoffset: 0; stroke: #b0b0b0; stroke-opacity: 0.5; stroke-width: 0.8"/>
     </g>
     <g id="line2d_48">
      <g>
       <use xlink:href="#m276fea9d2b" x="96.23" y="162.953951" style="stroke: #000000; stroke-width: 0.8"/>
      </g>
     </g>
     <g id="text_24">
      <text style="font-size: 14px; font-family: 'Liberation Sans', sans-serif; text-anchor: end" x="89.23" y="168.026763" transform="rotate(-0 89.23 168.026763)">80,000</text>
     </g>
    </g>
    <g id="ytick_10">
     <g id="line2d_49">
      <path d="M 96.23 136.630036 
L 856.08 136.630036 
" clip-path="url(#pbd8daadce0)" style="fill: none; stroke-dasharray: 2.96,1.28; stroke-dashoffset: 0; stroke: #b0b0b0; stroke-opacity: 0.5; stroke-width: 0.8"/>
     </g>
     <g id="line2d_50">
      <g>
       <use xlink:href="#m276fea9d2b" x="96.23" y="136.630036" style="stroke: #000000; stroke-width: 0.8"/>
      </g>
     </g>
     <g id="text_25">
      <text style="font-size: 14px; font-family: 'Liberation Sans', sans-serif; text-anchor: end" x="89.23" y="141.702849" transform="rotate(-0 89.23 141.702849)">100,000</text>
     </g>
    </g>
    <g id="ytick_11">
     <g id="line2d_51">
      <path d="M 96.23 110.306122 
L 856.08 110.306122 
" clip-path="url(#pbd8daadce0)" style="fill: none; stroke-dasharray: 2.96,1.28; stroke-dashoffset: 0; stroke: #b0b0b0; stroke-opacity: 0.5; stroke-width: 0.8"/>
     </g>
     <g id="line2d_52">
      <g>
       <use xlink:href="#m276fea9d2b" x="96.23" y="110.306122" style="stroke: #000000; stroke-width: 0.8"/>
      </g>
     </g>
     <g id="text_26">
      <text style="font-size: 14px; font-family: 'Liberation Sans', sans-serif; text-anchor: end" x="89.23" y="115.378934" transform="rotate(-0 89.23 115.378934)">120,000</text>
     </g>
    </g>
    <g id="ytick_12">
     <g id="line2d_53">
      <path d="M 96.23 83.982208 
L 856.08 83.982208 
" clip-path="url(#pbd8daadce0)" style="fill: none; stroke-dasharray: 2.96,1.28; stroke-dashoffset: 0; stroke: #b0b0b0; stroke-opacity: 0.5; stroke-width: 0.8"/>
     </g>
     <g id="line2d_54">
      <g>
       <use xlink:href="#m276fea9d2b" x="96.23" y="83.982208" style="stroke: #000000; stroke-width: 0.8"/>
      </g>
     </g>
     <g id="text_27">
      <text style="font-size: 14px; font-family: 'Liberation Sans', sans-serif; text-anchor: end" x="89.23" y="89.05502" transform="rotate(-0 89.23 89.05502)">140,000</text>
     </g>
    </g>
    <g id="ytick_13">
     <g id="line2d_55">
      <path d="M 96.23 57.658293 
L 856.08 57.658293 
" clip-path="url(#pbd8daadce0)" style="fill: none; stroke-dasharray: 2.96,1.28; stroke-dashoffset: 0; stroke: #b0b0b0; stroke-opacity: 0.5; stroke-width: 0.8"/>
     </g>
     <g id="line2d_56">
      <g>
       <use xlink:href="#m276fea9d2b" x="96.23" y="57.658293" style="stroke: #000000; stroke-width: 0.8"/>
      </g>
     </g>
     <g id="text_28">
      <text style="font-size: 14px; font-family: 'Liberation Sans', sans-serif; text-anchor: end" x="89.23" y="62.731106" transform="rotate(-0 89.23 62.731106)">160,000</text>
     </g>
    </g>
    <g id="text_29">
     <text style="font-size: 12px; font-family: 'Liberation Sans', sans-serif; text-anchor: start" x="32.13875" y="380.463125" transform="rotate(-90 32.13875 380.463125)">Antal personer per r</text>
    </g>
   </g>
   <g id="line2d_57">
    <path d="M 98.779832 277.360315 
L 103.879497 276.417919 
L 108.979161 273.938206 
L 114.078826 276.398176 
L 119.17849 288.051773 
L 124.278154 319.712861 
L 129.377819 324.892091 
L 134.477483 329.598807 
L 139.577148 304.381813 
L 144.676812 292.795342 
L 149.776477 291.547589 
L 154.876141 304.662163 
L 159.975805 328.984144 
L 165.07547 328.139146 
L 170.175134 304.917505 
L 175.274799 305.342636 
L 180.374463 316.503976 
L 185.474128 319.572028 
L 190.573792 312.331636 
L 195.673456 272.11001 
L 200.773121 281.973581 
L 205.872785 283.707011 
L 210.97245 277.065487 
L 216.072114 275.737446 
L 221.171779 279.674187 
L 226.271443 284.891587 
L 231.371107 290.618355 
L 236.470772 308.160611 
L 241.570436 310.238884 
L 246.670101 285.520729 
L 251.769765 288.567722 
L 256.86943 288.154436 
L 261.969094 286.761901 
L 267.068758 271.778329 
L 272.168423 286.572369 
L 277.268087 294.144443 
L 282.367752 284.366425 
L 287.467416 281.175967 
L 292.567081 283.963669 
L 297.666745 273.940839 
L 302.766409 269.769815 
L 307.866074 273.327492 
L 312.965738 269.077496 
L 318.065403 268.145629 
L 323.165067 267.628364 
L 328.264732 267.461207 
L 333.364396 268.774771 
L 338.46406 275.480788 
L 343.563725 299.063066 
L 348.663389 274.473898 
L 353.763054 277.324778 
L 358.862718 278.325087 
L 363.962383 277.685416 
L 369.062047 278.571215 
L 374.161711 274.413353 
L 379.261376 265.837022 
L 384.36104 261.117144 
L 389.460705 259.203395 
L 394.560369 261.880537 
L 399.660034 263.896949 
L 404.759698 264.356302 
L 409.859362 265.211829 
L 414.959027 265.378986 
L 420.058691 263.387581 
L 425.158356 263.513936 
L 430.25802 263.403376 
L 435.357685 264.099643 
L 440.457349 265.468487 
L 445.557013 260.928928 
L 450.656678 251.414149 
L 455.756342 251.316751 
L 460.856007 235.9936 
L 465.955671 235.413158 
L 471.055336 237.778361 
L 476.155 255.320618 
L 481.254664 248.401377 
L 486.354329 248.4764 
L 491.453993 253.427928 
L 496.553658 266.018657 
L 501.653322 259.042819 
L 506.752987 245.3557 
L 511.852651 250.754735 
L 516.952315 244.621263 
L 522.05198 257.917472 
L 527.151644 263.666615 
L 532.251309 253.764875 
L 537.350973 249.033151 
L 542.450638 254.882325 
L 547.550302 252.968576 
L 557.749631 224.013586 
L 562.849295 232.396437 
L 567.94896 255.082386 
L 573.048624 251.381244 
L 578.148289 210.148781 
L 583.247953 204.186414 
L 588.347617 264.228631 
L 593.447282 283.629355 
L 598.546946 282.594826 
L 603.646611 256.301184 
L 608.746275 246.02696 
L 613.84594 241.96518 
L 618.945604 238.073189 
L 624.045268 249.797861 
L 629.144933 250.404627 
L 634.244597 255.63124 
L 639.344262 264.522142 
L 644.443926 265.617217 
L 649.543591 265.319757 
L 654.643255 256.850037 
L 659.742919 253.651682 
L 664.842584 248.517202 
L 669.942248 239.302516 
L 675.041913 229.249413 
L 680.141577 209.83421 
L 685.241242 222.377555 
L 690.340906 235.363142 
L 695.44057 242.423216 
L 700.540235 226.133978 
L 705.639899 201.206547 
L 710.739564 252.582931 
L 715.839228 260.337956 
L 720.938893 259.99048 
L 726.038557 253.938612 
L 731.138221 249.646498 
L 736.237886 235.913312 
L 741.33755 230.535336 
L 746.437215 227.344878 
L 751.536879 230.380025 
L 756.636544 234.762957 
L 761.736208 232.566226 
L 766.835872 201.331586 
L 771.935537 197.086854 
L 777.035201 194.70454 
L 782.134866 185.27663 
L 787.23453 202.508265 
L 792.334195 208.641737 
L 797.433859 200.712974 
L 802.533523 182.525781 
L 807.633188 168.575423 
L 812.732852 165.046702 
L 817.832517 114.087552 
L 822.932181 138.118654 
L 828.031846 155.555615 
L 833.13151 178.63379 
L 838.231174 224.05044 
L 843.330839 212.512668 
L 848.430503 200.012758 
L 853.530168 240.504203 
L 853.530168 240.504203 
" clip-path="url(#pbd8daadce0)" style="fill: none; stroke: #000000; stroke-opacity: 0.8; stroke-linecap: square"/>
   </g>
   <g id="line2d_58">
    <path d="M 96.23 268.249608 
L 856.08 268.249608 
" clip-path="url(#pbd8daadce0)" style="fill: none; stroke: #000000; stroke-opacity: 0.6; stroke-linecap: square"/>
   </g>
   <g id="patch_301">
    <path d="M 96.23 380.463125 
L 96.23 38.143125 
" style="fill: none; stroke: #000000; stroke-width: 0.8; stroke-linejoin: miter; stroke-linecap: square"/>
   </g>
   <g id="patch_302">
    <path d="M 856.08 380.463125 
L 856.08 38.143125 
" style="fill: none; stroke: #000000; stroke-width: 0.8; stroke-linejoin: miter; stroke-linecap: square"/>
   </g>
   <g id="patch_303">
    <path d="M 96.23 380.463125 
L 856.08 380.463125 
" style="fill: none; stroke: #000000; stroke-width: 0.8; stroke-linejoin: miter; stroke-linecap: square"/>
   </g>
   <g id="patch_304">
    <path d="M 96.23 38.143125 
L 856.08 38.143125 
" style="fill: none; stroke: #000000; stroke-width: 0.8; stroke-linejoin: miter; stroke-linecap: square"/>
   </g>
   <g id="text_30">
    <text style="font-weight: 700; font-size: 22px; font-family: 'Liberation Sans', sans-serif; text-anchor: middle" x="476.155" y="23.143125" transform="rotate(-0 476.155 23.143125)">Invandrare och utvandrare, Sverige (1875 - 2023)</text>
   </g>
   <g id="legend_1">
    <g id="patch_305">
     <path d="M 106.03 109.495 
L 241.865 109.495 
Q 244.665 109.495 244.665 106.695 
L 244.665 47.943125 
Q 244.665 45.143125 241.865 45.143125 
L 106.03 45.143125 
Q 103.23 45.143125 103.23 47.943125 
L 103.23 106.695 
Q 103.23 109.495 106.03 109.495 
z
" style="fill: #ffffff; opacity: 0.8; stroke: #cccccc; stroke-linejoin: miter"/>
    </g>
    <g id="patch_306">
     <path d="M 108.83 60.88875 
L 136.83 60.88875 
L 136.83 51.08875 
L 108.83 51.08875 
z
" style="fill: #56b4e9"/>
    </g>
    <g id="text_31">
     <text style="font-size: 14px; font-family: 'Liberation Sans', sans-serif; text-anchor: start" x="148.03" y="60.88875" transform="rotate(-0 148.03 60.88875)">Invandrare</text>
    </g>
    <g id="patch_307">
     <path d="M 108.83 80.939375 
L 136.83 80.939375 
L 136.83 71.139375 
L 108.83 71.139375 
z
" style="fill: #e69f00"/>
    </g>
    <g id="text_32">
     <text style="font-size: 14px; font-family: 'Liberation Sans', sans-serif; text-anchor: start" x="148.03" y="80.939375" transform="rotate(-0 148.03 80.939375)">Utvandrare</text>
    </g>
    <g id="line2d_59">
     <path d="M 108.83 96.09 
L 122.83 96.09 
L 136.83 96.09 
" style="fill: none; stroke: #000000; stroke-opacity: 0.8; stroke-linecap: square"/>
    </g>
    <g id="text_33">
     <text style="font-size: 14px; font-family: 'Liberation Sans', sans-serif; text-anchor: start" x="148.03" y="100.99" transform="rotate(-0 148.03 100.99)">Nettomigration</text>
    </g>
   </g>
  </g>
  <g id="text_34">
   <text style="font-size: 10px; font-family: 'Liberation Sans', sans-serif; text-anchor: start" x="7.2" y="422.108125" transform="rotate(-0 7.2 422.108125)">Klla: Statistics Sweden - Population and population changes in Sweden. Year by sex, year and observations (BE0101) - Uppdaterad: 9 Feb 2024</text>
  </g>
 </g>
 <defs>
  <clipPath id="pbd8daadce0">
   <rect x="96.23" y="38.143125" width="759.85" height="342.32"/>
  </clipPath>
 </defs>
</svg>
