<?xml version="1.0" encoding="utf-8" standalone="no"?>
<!DOCTYPE svg PUBLIC "-//W3C//DTD SVG 1.1//EN"
  "http://www.w3.org/Graphics/SVG/1.1/DTD/svg11.dtd">
<svg xmlns:xlink="http://www.w3.org/1999/xlink" width="863.28pt" height="431.383125pt" viewBox="0 0 863.28 431.383125" xmlns="http://www.w3.org/2000/svg" version="1.1">
 <metadata>
  <rdf:RDF xmlns:dc="http://purl.org/dc/elements/1.1/" xmlns:cc="http://creativecommons.org/ns#" xmlns:rdf="http://www.w3.org/1999/02/22-rdf-syntax-ns#">
   <cc:Work>
    <dc:type rdf:resource="http://purl.org/dc/dcmitype/StillImage"/>
    <dc:date>2025-01-14T12:04:17.027979</dc:date>
    <dc:format>image/svg+xml</dc:format>
    <dc:creator>
     <cc:Agent>
      <dc:title>Matplotlib v3.10.0, https://matplotlib.org/</dc:title>
     </cc:Agent>
    </dc:creator>
   </cc:Work>
  </rdf:RDF>
 </metadata>
 <defs>
  <style type="text/css">*{stroke-linejoin: round; stroke-linecap: butt}</style>
 </defs>
 <g id="figure_1">
  <g id="patch_1">
   <path d="M 0 431.383125 
L 863.28 431.383125 
L 863.28 0 
L 0 0 
z
" style="fill: #ffffff"/>
  </g>
  <g id="axes_1">
   <g id="patch_2">
    <path d="M 95.15 380.463125 
L 856.08 380.463125 
L 856.08 38.143125 
L 95.15 38.143125 
z
" style="fill: #ffffff"/>
   </g>
   <g id="patch_3">
    <path d="M 95.15 268.249608 
L 100.256913 268.249608 
L 100.256913 281.052244 
L 95.15 281.052244 
z
" clip-path="url(#p76bd6432a4)" style="fill: #e69f00"/>
   </g>
   <g id="patch_4">
    <path d="M 100.256913 268.249608 
L 105.363826 268.249608 
L 105.363826 280.64554 
L 100.256913 280.64554 
z
" clip-path="url(#p76bd6432a4)" style="fill: #e69f00"/>
   </g>
   <g id="patch_5">
    <path d="M 105.363826 268.249608 
L 110.470738 268.249608 
L 110.470738 278.265858 
L 105.363826 278.265858 
z
" clip-path="url(#p76bd6432a4)" style="fill: #e69f00"/>
   </g>
   <g id="patch_6">
    <path d="M 110.470738 268.249608 
L 115.577651 268.249608 
L 115.577651 280.137488 
L 110.470738 280.137488 
z
" clip-path="url(#p76bd6432a4)" style="fill: #e69f00"/>
   </g>
   <g id="patch_7">
    <path d="M 115.577651 268.249608 
L 120.684564 268.249608 
L 120.684564 291.463352 
L 115.577651 291.463352 
z
" clip-path="url(#p76bd6432a4)" style="fill: #e69f00"/>
   </g>
   <g id="patch_8">
    <path d="M 120.684564 268.249608 
L 125.791477 268.249608 
L 125.791477 323.673294 
L 120.684564 323.673294 
z
" clip-path="url(#p76bd6432a4)" style="fill: #e69f00"/>
   </g>
   <g id="patch_9">
    <path d="M 125.791477 268.249608 
L 130.898389 268.249608 
L 130.898389 328.784082 
L 125.791477 328.784082 
z
" clip-path="url(#p76bd6432a4)" style="fill: #e69f00"/>
   </g>
   <g id="patch_10">
    <path d="M 130.898389 268.249608 
L 136.005302 268.249608 
L 136.005302 334.293677 
L 130.898389 334.293677 
z
" clip-path="url(#p76bd6432a4)" style="fill: #e69f00"/>
   </g>
   <g id="patch_11">
    <path d="M 136.005302 268.249608 
L 141.112215 268.249608 
L 141.112215 309.847974 
L 136.005302 309.847974 
z
" clip-path="url(#p76bd6432a4)" style="fill: #e69f00"/>
   </g>
   <g id="patch_12">
    <path d="M 141.112215 268.249608 
L 146.219128 268.249608 
L 146.219128 299.25918 
L 141.112215 299.25918 
z
" clip-path="url(#p76bd6432a4)" style="fill: #e69f00"/>
   </g>
   <g id="patch_13">
    <path d="M 146.219128 268.249608 
L 151.32604 268.249608 
L 151.32604 299.170995 
L 146.219128 299.170995 
z
" clip-path="url(#p76bd6432a4)" style="fill: #e69f00"/>
   </g>
   <g id="patch_14">
    <path d="M 151.32604 268.249608 
L 156.432953 268.249608 
L 156.432953 311.53797 
L 151.32604 311.53797 
z
" clip-path="url(#p76bd6432a4)" style="fill: #e69f00"/>
   </g>
   <g id="patch_15">
    <path d="M 156.432953 268.249608 
L 161.539866 268.249608 
L 161.539866 335.093924 
L 156.432953 335.093924 
z
" clip-path="url(#p76bd6432a4)" style="fill: #e69f00"/>
   </g>
   <g id="patch_16">
    <path d="M 161.539866 268.249608 
L 166.646779 268.249608 
L 166.646779 334.484526 
L 161.539866 334.484526 
z
" clip-path="url(#p76bd6432a4)" style="fill: #e69f00"/>
   </g>
   <g id="patch_17">
    <path d="M 166.646779 268.249608 
L 171.753691 268.249608 
L 171.753691 312.161846 
L 166.646779 312.161846 
z
" clip-path="url(#p76bd6432a4)" style="fill: #e69f00"/>
   </g>
   <g id="patch_18">
    <path d="M 171.753691 268.249608 
L 176.860604 268.249608 
L 176.860604 313.279296 
L 171.753691 313.279296 
z
" clip-path="url(#p76bd6432a4)" style="fill: #e69f00"/>
   </g>
   <g id="patch_19">
    <path d="M 176.860604 268.249608 
L 181.967517 268.249608 
L 181.967517 324.551197 
L 176.860604 324.551197 
z
" clip-path="url(#p76bd6432a4)" style="fill: #e69f00"/>
   </g>
   <g id="patch_20">
    <path d="M 181.967517 268.249608 
L 187.07443 268.249608 
L 187.07443 328.141779 
L 181.967517 328.141779 
z
" clip-path="url(#p76bd6432a4)" style="fill: #e69f00"/>
   </g>
   <g id="patch_21">
    <path d="M 187.07443 268.249608 
L 192.181342 268.249608 
L 192.181342 322.041211 
L 187.07443 322.041211 
z
" clip-path="url(#p76bd6432a4)" style="fill: #e69f00"/>
   </g>
   <g id="patch_22">
    <path d="M 192.181342 268.249608 
L 197.288255 268.249608 
L 197.288255 285.831351 
L 192.181342 285.831351 
z
" clip-path="url(#p76bd6432a4)" style="fill: #e69f00"/>
   </g>
   <g id="patch_23">
    <path d="M 197.288255 268.249608 
L 202.395168 268.249608 
L 202.395168 293.198098 
L 197.288255 293.198098 
z
" clip-path="url(#p76bd6432a4)" style="fill: #e69f00"/>
   </g>
   <g id="patch_24">
    <path d="M 202.395168 268.249608 
L 207.502081 268.249608 
L 207.502081 293.982551 
L 202.395168 293.982551 
z
" clip-path="url(#p76bd6432a4)" style="fill: #e69f00"/>
   </g>
   <g id="patch_25">
    <path d="M 207.502081 268.249608 
L 212.608993 268.249608 
L 212.608993 287.412102 
L 207.502081 287.412102 
z
" clip-path="url(#p76bd6432a4)" style="fill: #e69f00"/>
   </g>
   <g id="patch_26">
    <path d="M 212.608993 268.249608 
L 217.715906 268.249608 
L 217.715906 286.232791 
L 212.608993 286.232791 
z
" clip-path="url(#p76bd6432a4)" style="fill: #e69f00"/>
   </g>
   <g id="patch_27">
    <path d="M 217.715906 268.249608 
L 222.822819 268.249608 
L 222.822819 290.461727 
L 217.715906 290.461727 
z
" clip-path="url(#p76bd6432a4)" style="fill: #e69f00"/>
   </g>
   <g id="patch_28">
    <path d="M 222.822819 268.249608 
L 227.929732 268.249608 
L 227.929732 295.443528 
L 222.822819 295.443528 
z
" clip-path="url(#p76bd6432a4)" style="fill: #e69f00"/>
   </g>
   <g id="patch_29">
    <path d="M 227.929732 268.249608 
L 233.036644 268.249608 
L 233.036644 300.649082 
L 227.929732 300.649082 
z
" clip-path="url(#p76bd6432a4)" style="fill: #e69f00"/>
   </g>
   <g id="patch_30">
    <path d="M 233.036644 268.249608 
L 238.143557 268.249608 
L 238.143557 317.089683 
L 233.036644 317.089683 
z
" clip-path="url(#p76bd6432a4)" style="fill: #e69f00"/>
   </g>
   <g id="patch_31">
    <path d="M 238.143557 268.249608 
L 243.25047 268.249608 
L 243.25047 320.272244 
L 238.143557 320.272244 
z
" clip-path="url(#p76bd6432a4)" style="fill: #e69f00"/>
   </g>
   <g id="patch_32">
    <path d="M 243.25047 268.249608 
L 248.357383 268.249608 
L 248.357383 297.711333 
L 243.25047 297.711333 
z
" clip-path="url(#p76bd6432a4)" style="fill: #e69f00"/>
   </g>
   <g id="patch_33">
    <path d="M 248.357383 268.249608 
L 253.464295 268.249608 
L 253.464295 299.898851 
L 248.357383 299.898851 
z
" clip-path="url(#p76bd6432a4)" style="fill: #e69f00"/>
   </g>
   <g id="patch_34">
    <path d="M 253.464295 268.249608 
L 258.571208 268.249608 
L 258.571208 300.764908 
L 253.464295 300.764908 
z
" clip-path="url(#p76bd6432a4)" style="fill: #e69f00"/>
   </g>
   <g id="patch_35">
    <path d="M 258.571208 268.249608 
L 263.678121 268.249608 
L 263.678121 298.493154 
L 258.571208 298.493154 
z
" clip-path="url(#p76bd6432a4)" style="fill: #e69f00"/>
   </g>
   <g id="patch_36">
    <path d="M 263.678121 268.249608 
L 268.785034 268.249608 
L 268.785034 284.700739 
L 263.678121 284.700739 
z
" clip-path="url(#p76bd6432a4)" style="fill: #e69f00"/>
   </g>
   <g id="patch_37">
    <path d="M 268.785034 268.249608 
L 273.891946 268.249608 
L 273.891946 297.195385 
L 268.785034 297.195385 
z
" clip-path="url(#p76bd6432a4)" style="fill: #e69f00"/>
   </g>
   <g id="patch_38">
    <path d="M 273.891946 268.249608 
L 278.998859 268.249608 
L 278.998859 304.860909 
L 273.891946 304.860909 
z
" clip-path="url(#p76bd6432a4)" style="fill: #e69f00"/>
   </g>
   <g id="patch_39">
    <path d="M 278.998859 268.249608 
L 284.105772 268.249608 
L 284.105772 294.569574 
L 278.998859 294.569574 
z
" clip-path="url(#p76bd6432a4)" style="fill: #e69f00"/>
   </g>
   <g id="patch_40">
    <path d="M 284.105772 268.249608 
L 289.212685 268.249608 
L 289.212685 292.095126 
L 284.105772 292.095126 
z
" clip-path="url(#p76bd6432a4)" style="fill: #e69f00"/>
   </g>
   <g id="patch_41">
    <path d="M 289.212685 268.249608 
L 294.319597 268.249608 
L 294.319597 295.028927 
L 289.212685 295.028927 
z
" clip-path="url(#p76bd6432a4)" style="fill: #e69f00"/>
   </g>
   <g id="patch_42">
    <path d="M 294.319597 268.249608 
L 299.42651 268.249608 
L 299.42651 285.307505 
L 294.319597 285.307505 
z
" clip-path="url(#p76bd6432a4)" style="fill: #e69f00"/>
   </g>
   <g id="patch_43">
    <path d="M 299.42651 268.249608 
L 304.533423 268.249608 
L 304.533423 278.136871 
L 299.42651 278.136871 
z
" clip-path="url(#p76bd6432a4)" style="fill: #e69f00"/>
   </g>
   <g id="patch_44">
    <path d="M 304.533423 268.249608 
L 309.640336 268.249608 
L 309.640336 282.163113 
L 304.533423 282.163113 
z
" clip-path="url(#p76bd6432a4)" style="fill: #e69f00"/>
   </g>
   <g id="patch_45">
    <path d="M 309.640336 268.249608 
L 314.747248 268.249608 
L 314.747248 276.725909 
L 309.640336 276.725909 
z
" clip-path="url(#p76bd6432a4)" style="fill: #e69f00"/>
   </g>
   <g id="patch_46">
    <path d="M 314.747248 268.249608 
L 319.854161 268.249608 
L 319.854161 274.637106 
L 314.747248 274.637106 
z
" clip-path="url(#p76bd6432a4)" style="fill: #e69f00"/>
   </g>
   <g id="patch_47">
    <path d="M 319.854161 268.249608 
L 324.961074 268.249608 
L 324.961074 277.906536 
L 319.854161 277.906536 
z
" clip-path="url(#p76bd6432a4)" style="fill: #e69f00"/>
   </g>
   <g id="patch_48">
    <path d="M 324.961074 268.249608 
L 330.067987 268.249608 
L 330.067987 281.730085 
L 324.961074 281.730085 
z
" clip-path="url(#p76bd6432a4)" style="fill: #e69f00"/>
   </g>
   <g id="patch_49">
    <path d="M 330.067987 268.249608 
L 335.174899 268.249608 
L 335.174899 280.02956 
L 330.067987 280.02956 
z
" clip-path="url(#p76bd6432a4)" style="fill: #e69f00"/>
   </g>
   <g id="patch_50">
    <path d="M 335.174899 268.249608 
L 340.281812 268.249608 
L 340.281812 283.776769 
L 335.174899 283.776769 
z
" clip-path="url(#p76bd6432a4)" style="fill: #e69f00"/>
   </g>
   <g id="patch_51">
    <path d="M 340.281812 268.249608 
L 345.388725 268.249608 
L 345.388725 306.732539 
L 340.281812 306.732539 
z
" clip-path="url(#p76bd6432a4)" style="fill: #e69f00"/>
   </g>
   <g id="patch_52">
    <path d="M 345.388725 268.249608 
L 350.495638 268.249608 
L 350.495638 282.294733 
L 345.388725 282.294733 
z
" clip-path="url(#p76bd6432a4)" style="fill: #e69f00"/>
   </g>
   <g id="patch_53">
    <path d="M 350.495638 268.249608 
L 355.60255 268.249608 
L 355.60255 283.975515 
L 350.495638 283.975515 
z
" clip-path="url(#p76bd6432a4)" style="fill: #e69f00"/>
   </g>
   <g id="patch_54">
    <path d="M 355.60255 268.249608 
L 360.709463 268.249608 
L 360.709463 285.416749 
L 355.60255 285.416749 
z
" clip-path="url(#p76bd6432a4)" style="fill: #e69f00"/>
   </g>
   <g id="patch_55">
    <path d="M 360.709463 268.249608 
L 365.816376 268.249608 
L 365.816376 285.158775 
L 360.709463 285.158775 
z
" clip-path="url(#p76bd6432a4)" style="fill: #e69f00"/>
   </g>
   <g id="patch_56">
    <path d="M 365.816376 268.249608 
L 370.923289 268.249608 
L 370.923289 285.952441 
L 365.816376 285.952441 
z
" clip-path="url(#p76bd6432a4)" style="fill: #e69f00"/>
   </g>
   <g id="patch_57">
    <path d="M 370.923289 268.249608 
L 376.030201 268.249608 
L 376.030201 282.752769 
L 370.923289 282.752769 
z
" clip-path="url(#p76bd6432a4)" style="fill: #e69f00"/>
   </g>
   <g id="patch_58">
    <path d="M 376.030201 268.249608 
L 381.137114 268.249608 
L 381.137114 275.728233 
L 376.030201 275.728233 
z
" clip-path="url(#p76bd6432a4)" style="fill: #e69f00"/>
   </g>
   <g id="patch_59">
    <path d="M 381.137114 268.249608 
L 386.244027 268.249608 
L 386.244027 272.160026 
L 381.137114 272.160026 
z
" clip-path="url(#p76bd6432a4)" style="fill: #e69f00"/>
   </g>
   <g id="patch_60">
    <path d="M 386.244027 268.249608 
L 391.35094 268.249608 
L 391.35094 271.035995 
L 386.244027 271.035995 
z
" clip-path="url(#p76bd6432a4)" style="fill: #e69f00"/>
   </g>
   <g id="patch_61">
    <path d="M 391.35094 268.249608 
L 396.457852 268.249608 
L 396.457852 271.430854 
L 391.35094 271.430854 
z
" clip-path="url(#p76bd6432a4)" style="fill: #e69f00"/>
   </g>
   <g id="patch_62">
    <path d="M 396.457852 268.249608 
L 401.564765 268.249608 
L 401.564765 271.408478 
L 396.457852 271.408478 
z
" clip-path="url(#p76bd6432a4)" style="fill: #e69f00"/>
   </g>
   <g id="patch_63">
    <path d="M 401.564765 268.249608 
L 406.671678 268.249608 
L 406.671678 271.479553 
L 401.564765 271.479553 
z
" clip-path="url(#p76bd6432a4)" style="fill: #e69f00"/>
   </g>
   <g id="patch_64">
    <path d="M 406.671678 268.249608 
L 411.778591 268.249608 
L 411.778591 271.370309 
L 406.671678 271.370309 
z
" clip-path="url(#p76bd6432a4)" style="fill: #e69f00"/>
   </g>
   <g id="patch_65">
    <path d="M 411.778591 268.249608 
L 416.885503 268.249608 
L 416.885503 271.26238 
L 411.778591 271.26238 
z
" clip-path="url(#p76bd6432a4)" style="fill: #e69f00"/>
   </g>
   <g id="patch_66">
    <path d="M 416.885503 268.249608 
L 421.992416 268.249608 
L 421.992416 270.963604 
L 416.885503 270.963604 
z
" clip-path="url(#p76bd6432a4)" style="fill: #e69f00"/>
   </g>
   <g id="patch_67">
    <path d="M 421.992416 268.249608 
L 427.099329 268.249608 
L 427.099329 272.961589 
L 421.992416 272.961589 
z
" clip-path="url(#p76bd6432a4)" style="fill: #e69f00"/>
   </g>
   <g id="patch_68">
    <path d="M 427.099329 268.249608 
L 432.206242 268.249608 
L 432.206242 272.332448 
L 427.099329 272.332448 
z
" clip-path="url(#p76bd6432a4)" style="fill: #e69f00"/>
   </g>
   <g id="patch_69">
    <path d="M 432.206242 268.249608 
L 437.313154 268.249608 
L 437.313154 269.69874 
L 432.206242 269.69874 
z
" clip-path="url(#p76bd6432a4)" style="fill: #e69f00"/>
   </g>
   <g id="patch_70">
    <path d="M 437.313154 268.249608 
L 442.420067 268.249608 
L 442.420067 269.486832 
L 437.313154 269.486832 
z
" clip-path="url(#p76bd6432a4)" style="fill: #e69f00"/>
   </g>
   <g id="patch_71">
    <path d="M 442.420067 268.249608 
L 447.52698 268.249608 
L 447.52698 269.153835 
L 442.420067 269.153835 
z
" clip-path="url(#p76bd6432a4)" style="fill: #e69f00"/>
   </g>
   <g id="patch_72">
    <path d="M 447.52698 268.249608 
L 452.633893 268.249608 
L 452.633893 268.9722 
L 447.52698 268.9722 
z
" clip-path="url(#p76bd6432a4)" style="fill: #e69f00"/>
   </g>
   <g id="patch_73">
    <path d="M 452.633893 268.249608 
L 457.740805 268.249608 
L 457.740805 279.122701 
L 452.633893 279.122701 
z
" clip-path="url(#p76bd6432a4)" style="fill: #e69f00"/>
   </g>
   <g id="patch_74">
    <path d="M 457.740805 268.249608 
L 462.847718 268.249608 
L 462.847718 277.351102 
L 457.740805 277.351102 
z
" clip-path="url(#p76bd6432a4)" style="fill: #e69f00"/>
   </g>
   <g id="patch_75">
    <path d="M 462.847718 268.249608 
L 467.954631 268.249608 
L 467.954631 276.740387 
L 462.847718 276.740387 
z
" clip-path="url(#p76bd6432a4)" style="fill: #e69f00"/>
   </g>
   <g id="patch_76">
    <path d="M 467.954631 268.249608 
L 473.061544 268.249608 
L 473.061544 281.127267 
L 467.954631 281.127267 
z
" clip-path="url(#p76bd6432a4)" style="fill: #e69f00"/>
   </g>
   <g id="patch_77">
    <path d="M 473.061544 268.249608 
L 478.168456 268.249608 
L 478.168456 286.905367 
L 473.061544 286.905367 
z
" clip-path="url(#p76bd6432a4)" style="fill: #e69f00"/>
   </g>
   <g id="patch_78">
    <path d="M 478.168456 268.249608 
L 483.275369 268.249608 
L 483.275369 285.175885 
L 478.168456 285.175885 
z
" clip-path="url(#p76bd6432a4)" style="fill: #e69f00"/>
   </g>
   <g id="patch_79">
    <path d="M 483.275369 268.249608 
L 488.382282 268.249608 
L 488.382282 290.072133 
L 483.275369 290.072133 
z
" clip-path="url(#p76bd6432a4)" style="fill: #e69f00"/>
   </g>
   <g id="patch_80">
    <path d="M 488.382282 268.249608 
L 493.489195 268.249608 
L 493.489195 287.989912 
L 488.382282 287.989912 
z
" clip-path="url(#p76bd6432a4)" style="fill: #e69f00"/>
   </g>
   <g id="patch_81">
    <path d="M 493.489195 268.249608 
L 498.596107 268.249608 
L 498.596107 291.25671 
L 493.489195 291.25671 
z
" clip-path="url(#p76bd6432a4)" style="fill: #e69f00"/>
   </g>
   <g id="patch_82">
    <path d="M 498.596107 268.249608 
L 503.70302 268.249608 
L 503.70302 286.442066 
L 498.596107 286.442066 
z
" clip-path="url(#p76bd6432a4)" style="fill: #e69f00"/>
   </g>
   <g id="patch_83">
    <path d="M 503.70302 268.249608 
L 508.809933 268.249608 
L 508.809933 284.932389 
L 503.70302 284.932389 
z
" clip-path="url(#p76bd6432a4)" style="fill: #e69f00"/>
   </g>
   <g id="patch_84">
    <path d="M 508.809933 268.249608 
L 513.916846 268.249608 
L 513.916846 287.646385 
L 508.809933 287.646385 
z
" clip-path="url(#p76bd6432a4)" style="fill: #e69f00"/>
   </g>
   <g id="patch_85">
    <path d="M 513.916846 268.249608 
L 519.023758 268.249608 
L 519.023758 288.085994 
L 513.916846 288.085994 
z
" clip-path="url(#p76bd6432a4)" style="fill: #e69f00"/>
   </g>
   <g id="patch_86">
    <path d="M 519.023758 268.249608 
L 524.130671 268.249608 
L 524.130671 287.001449 
L 519.023758 287.001449 
z
" clip-path="url(#p76bd6432a4)" style="fill: #e69f00"/>
   </g>
   <g id="patch_87">
    <path d="M 524.130671 268.249608 
L 529.237584 268.249608 
L 529.237584 288.791475 
L 524.130671 288.791475 
z
" clip-path="url(#p76bd6432a4)" style="fill: #e69f00"/>
   </g>
   <g id="patch_88">
    <path d="M 529.237584 268.249608 
L 534.344497 268.249608 
L 534.344497 288.174179 
L 529.237584 288.174179 
z
" clip-path="url(#p76bd6432a4)" style="fill: #e69f00"/>
   </g>
   <g id="patch_89">
    <path d="M 534.344497 268.249608 
L 539.451409 268.249608 
L 539.451409 288.017552 
L 534.344497 288.017552 
z
" clip-path="url(#p76bd6432a4)" style="fill: #e69f00"/>
   </g>
   <g id="patch_90">
    <path d="M 539.451409 268.249608 
L 544.558322 268.249608 
L 544.558322 287.897778 
L 539.451409 287.897778 
z
" clip-path="url(#p76bd6432a4)" style="fill: #e69f00"/>
   </g>
   <g id="patch_91">
    <path d="M 544.558322 268.249608 
L 549.665235 268.249608 
L 549.665235 288.440051 
L 544.558322 288.440051 
z
" clip-path="url(#p76bd6432a4)" style="fill: #e69f00"/>
   </g>
   <g id="patch_92">
    <path d="M 549.665235 268.249608 
L 554.772148 268.249608 
L 554.772148 288.920462 
L 549.665235 288.920462 
z
" clip-path="url(#p76bd6432a4)" style="fill: #e69f00"/>
   </g>
   <g id="patch_93">
    <path d="M 554.772148 268.249608 
L 559.87906 268.249608 
L 559.87906 289.278467 
L 554.772148 289.278467 
z
" clip-path="url(#p76bd6432a4)" style="fill: #e69f00"/>
   </g>
   <g id="patch_94">
    <path d="M 559.87906 268.249608 
L 564.985973 268.249608 
L 564.985973 294.21815 
L 559.87906 294.21815 
z
" clip-path="url(#p76bd6432a4)" style="fill: #e69f00"/>
   </g>
   <g id="patch_95">
    <path d="M 564.985973 268.249608 
L 570.092886 268.249608 
L 570.092886 294.545883 
L 564.985973 294.545883 
z
" clip-path="url(#p76bd6432a4)" style="fill: #e69f00"/>
   </g>
   <g id="patch_96">
    <path d="M 570.092886 268.249608 
L 575.199799 268.249608 
L 575.199799 298.735334 
L 570.092886 298.735334 
z
" clip-path="url(#p76bd6432a4)" style="fill: #e69f00"/>
   </g>
   <g id="patch_97">
    <path d="M 575.199799 268.249608 
L 580.306711 268.249608 
L 580.306711 295.047353 
L 575.199799 295.047353 
z
" clip-path="url(#p76bd6432a4)" style="fill: #e69f00"/>
   </g>
   <g id="patch_98">
    <path d="M 580.306711 268.249608 
L 585.413624 268.249608 
L 585.413624 305.962564 
L 580.306711 305.962564 
z
" clip-path="url(#p76bd6432a4)" style="fill: #e69f00"/>
   </g>
   <g id="patch_99">
    <path d="M 585.413624 268.249608 
L 590.520537 268.249608 
L 590.520537 320.318311 
L 585.413624 320.318311 
z
" clip-path="url(#p76bd6432a4)" style="fill: #e69f00"/>
   </g>
   <g id="patch_100">
    <path d="M 590.520537 268.249608 
L 595.62745 268.249608 
L 595.62745 322.97571 
L 590.520537 322.97571 
z
" clip-path="url(#p76bd6432a4)" style="fill: #e69f00"/>
   </g>
   <g id="patch_101">
    <path d="M 595.62745 268.249608 
L 600.734362 268.249608 
L 600.734362 321.347576 
L 595.62745 321.347576 
z
" clip-path="url(#p76bd6432a4)" style="fill: #e69f00"/>
   </g>
   <g id="patch_102">
    <path d="M 600.734362 268.249608 
L 605.841275 268.249608 
L 605.841275 305.56639 
L 600.734362 305.56639 
z
" clip-path="url(#p76bd6432a4)" style="fill: #e69f00"/>
   </g>
   <g id="patch_103">
    <path d="M 605.841275 268.249608 
L 610.948188 268.249608 
L 610.948188 304.114626 
L 605.841275 304.114626 
z
" clip-path="url(#p76bd6432a4)" style="fill: #e69f00"/>
   </g>
   <g id="patch_104">
    <path d="M 610.948188 268.249608 
L 616.055101 268.249608 
L 616.055101 301.841556 
L 610.948188 301.841556 
z
" clip-path="url(#p76bd6432a4)" style="fill: #e69f00"/>
   </g>
   <g id="patch_105">
    <path d="M 616.055101 268.249608 
L 621.162013 268.249608 
L 621.162013 295.992382 
L 616.055101 295.992382 
z
" clip-path="url(#p76bd6432a4)" style="fill: #e69f00"/>
   </g>
   <g id="patch_106">
    <path d="M 621.162013 268.249608 
L 626.268926 268.249608 
L 626.268926 297.427035 
L 621.162013 297.427035 
z
" clip-path="url(#p76bd6432a4)" style="fill: #e69f00"/>
   </g>
   <g id="patch_107">
    <path d="M 626.268926 268.249608 
L 631.375839 268.249608 
L 631.375839 299.136773 
L 626.268926 299.136773 
z
" clip-path="url(#p76bd6432a4)" style="fill: #e69f00"/>
   </g>
   <g id="patch_108">
    <path d="M 631.375839 268.249608 
L 636.482752 268.249608 
L 636.482752 307.523573 
L 631.375839 307.523573 
z
" clip-path="url(#p76bd6432a4)" style="fill: #e69f00"/>
   </g>
   <g id="patch_109">
    <path d="M 636.482752 268.249608 
L 641.589664 268.249608 
L 641.589664 306.99841 
L 636.482752 306.99841 
z
" clip-path="url(#p76bd6432a4)" style="fill: #e69f00"/>
   </g>
   <g id="patch_110">
    <path d="M 641.589664 268.249608 
L 646.696577 268.249608 
L 646.696577 305.604559 
L 641.589664 305.604559 
z
" clip-path="url(#p76bd6432a4)" style="fill: #e69f00"/>
   </g>
   <g id="patch_111">
    <path d="M 646.696577 268.249608 
L 651.80349 268.249608 
L 651.80349 301.508558 
L 646.696577 301.508558 
z
" clip-path="url(#p76bd6432a4)" style="fill: #e69f00"/>
   </g>
   <g id="patch_112">
    <path d="M 651.80349 268.249608 
L 656.910403 268.249608 
L 656.910403 298.291776 
L 651.80349 298.291776 
z
" clip-path="url(#p76bd6432a4)" style="fill: #e69f00"/>
   </g>
   <g id="patch_113">
    <path d="M 656.910403 268.249608 
L 662.017315 268.249608 
L 662.017315 297.253297 
L 656.910403 297.253297 
z
" clip-path="url(#p76bd6432a4)" style="fill: #e69f00"/>
   </g>
   <g id="patch_114">
    <path d="M 662.017315 268.249608 
L 667.124228 268.249608 
L 667.124228 300.489823 
L 662.017315 300.489823 
z
" clip-path="url(#p76bd6432a4)" style="fill: #e69f00"/>
   </g>
   <g id="patch_115">
    <path d="M 667.124228 268.249608 
L 672.231141 268.249608 
L 672.231141 295.459323 
L 667.124228 295.459323 
z
" clip-path="url(#p76bd6432a4)" style="fill: #e69f00"/>
   </g>
   <g id="patch_116">
    <path d="M 672.231141 268.249608 
L 677.338054 268.249608 
L 677.338054 296.496485 
L 672.231141 296.496485 
z
" clip-path="url(#p76bd6432a4)" style="fill: #e69f00"/>
   </g>
   <g id="patch_117">
    <path d="M 677.338054 268.249608 
L 682.444966 268.249608 
L 682.444966 296.526757 
L 677.338054 296.526757 
z
" clip-path="url(#p76bd6432a4)" style="fill: #e69f00"/>
   </g>
   <g id="patch_118">
    <path d="M 682.444966 268.249608 
L 687.551879 268.249608 
L 687.551879 301.412476 
L 682.444966 301.412476 
z
" clip-path="url(#p76bd6432a4)" style="fill: #e69f00"/>
   </g>
   <g id="patch_119">
    <path d="M 687.551879 268.249608 
L 692.658792 268.249608 
L 692.658792 300.818872 
L 687.551879 300.818872 
z
" clip-path="url(#p76bd6432a4)" style="fill: #e69f00"/>
   </g>
   <g id="patch_120">
    <path d="M 692.658792 268.249608 
L 697.765705 268.249608 
L 697.765705 302.11006 
L 692.658792 302.11006 
z
" clip-path="url(#p76bd6432a4)" style="fill: #e69f00"/>
   </g>
   <g id="patch_121">
    <path d="M 697.765705 268.249608 
L 702.872617 268.249608 
L 702.872617 307.569639 
L 697.765705 307.569639 
z
" clip-path="url(#p76bd6432a4)" style="fill: #e69f00"/>
   </g>
   <g id="patch_122">
    <path d="M 702.872617 268.249608 
L 707.97953 268.249608 
L 707.97953 311.237877 
L 702.872617 311.237877 
z
" clip-path="url(#p76bd6432a4)" style="fill: #e69f00"/>
   </g>
   <g id="patch_123">
    <path d="M 707.97953 268.249608 
L 713.086443 268.249608 
L 713.086443 312.979204 
L 707.97953 312.979204 
z
" clip-path="url(#p76bd6432a4)" style="fill: #e69f00"/>
   </g>
   <g id="patch_124">
    <path d="M 713.086443 268.249608 
L 718.193356 268.249608 
L 718.193356 312.847584 
L 713.086443 312.847584 
z
" clip-path="url(#p76bd6432a4)" style="fill: #e69f00"/>
   </g>
   <g id="patch_125">
    <path d="M 718.193356 268.249608 
L 723.300268 268.249608 
L 723.300268 318.97974 
L 718.193356 318.97974 
z
" clip-path="url(#p76bd6432a4)" style="fill: #e69f00"/>
   </g>
   <g id="patch_126">
    <path d="M 723.300268 268.249608 
L 728.407181 268.249608 
L 728.407181 318.946835 
L 723.300268 318.946835 
z
" clip-path="url(#p76bd6432a4)" style="fill: #e69f00"/>
   </g>
   <g id="patch_127">
    <path d="M 728.407181 268.249608 
L 733.514094 268.249608 
L 733.514094 315.244377 
L 728.407181 315.244377 
z
" clip-path="url(#p76bd6432a4)" style="fill: #e69f00"/>
   </g>
   <g id="patch_128">
    <path d="M 733.514094 268.249608 
L 738.621007 268.249608 
L 738.621007 313.120037 
L 733.514094 313.120037 
z
" clip-path="url(#p76bd6432a4)" style="fill: #e69f00"/>
   </g>
   <g id="patch_129">
    <path d="M 738.621007 268.249608 
L 743.727919 268.249608 
L 743.727919 310.553455 
L 738.621007 310.553455 
z
" clip-path="url(#p76bd6432a4)" style="fill: #e69f00"/>
   </g>
   <g id="patch_130">
    <path d="M 743.727919 268.249608 
L 748.834832 268.249608 
L 748.834832 311.695913 
L 743.727919 311.695913 
z
" clip-path="url(#p76bd6432a4)" style="fill: #e69f00"/>
   </g>
   <g id="patch_131">
    <path d="M 748.834832 268.249608 
L 753.941745 268.249608 
L 753.941745 314.346731 
L 748.834832 314.346731 
z
" clip-path="url(#p76bd6432a4)" style="fill: #e69f00"/>
   </g>
   <g id="patch_132">
    <path d="M 753.941745 268.249608 
L 759.048658 268.249608 
L 759.048658 316.403945 
L 753.941745 316.403945 
z
" clip-path="url(#p76bd6432a4)" style="fill: #e69f00"/>
   </g>
   <g id="patch_133">
    <path d="M 759.048658 268.249608 
L 764.15557 268.249608 
L 764.15557 318.420357 
L 759.048658 318.420357 
z
" clip-path="url(#p76bd6432a4)" style="fill: #e69f00"/>
   </g>
   <g id="patch_134">
    <path d="M 764.15557 268.249608 
L 769.262483 268.249608 
L 769.262483 327.357326 
L 764.15557 327.357326 
z
" clip-path="url(#p76bd6432a4)" style="fill: #e69f00"/>
   </g>
   <g id="patch_135">
    <path d="M 769.262483 268.249608 
L 774.369396 268.249608 
L 774.369396 328.028586 
L 769.262483 328.028586 
z
" clip-path="url(#p76bd6432a4)" style="fill: #e69f00"/>
   </g>
   <g id="patch_136">
    <path d="M 774.369396 268.249608 
L 779.476309 268.249608 
L 779.476309 327.865377 
L 774.369396 327.865377 
z
" clip-path="url(#p76bd6432a4)" style="fill: #e69f00"/>
   </g>
   <g id="patch_137">
    <path d="M 779.476309 268.249608 
L 784.583221 268.249608 
L 784.583221 319.897129 
L 779.476309 319.897129 
z
" clip-path="url(#p76bd6432a4)" style="fill: #e69f00"/>
   </g>
   <g id="patch_138">
    <path d="M 784.583221 268.249608 
L 789.690134 268.249608 
L 789.690134 332.549718 
L 784.583221 332.549718 
z
" clip-path="url(#p76bd6432a4)" style="fill: #e69f00"/>
   </g>
   <g id="patch_139">
    <path d="M 789.690134 268.249608 
L 794.797047 268.249608 
L 794.797047 335.611189 
L 789.690134 335.611189 
z
" clip-path="url(#p76bd6432a4)" style="fill: #e69f00"/>
   </g>
   <g id="patch_140">
    <path d="M 794.797047 268.249608 
L 799.90396 268.249608 
L 799.90396 336.358788 
L 794.797047 336.358788 
z
" clip-path="url(#p76bd6432a4)" style="fill: #e69f00"/>
   </g>
   <g id="patch_141">
    <path d="M 799.90396 268.249608 
L 805.010872 268.249608 
L 805.010872 335.000474 
L 799.90396 335.000474 
z
" clip-path="url(#p76bd6432a4)" style="fill: #e69f00"/>
   </g>
   <g id="patch_142">
    <path d="M 805.010872 268.249608 
L 810.117785 268.249608 
L 810.117785 335.687529 
L 805.010872 335.687529 
z
" clip-path="url(#p76bd6432a4)" style="fill: #e69f00"/>
   </g>
   <g id="patch_143">
    <path d="M 810.117785 268.249608 
L 815.224698 268.249608 
L 815.224698 341.732816 
L 810.117785 341.732816 
z
" clip-path="url(#p76bd6432a4)" style="fill: #e69f00"/>
   </g>
   <g id="patch_144">
    <path d="M 815.224698 268.249608 
L 820.331611 268.249608 
L 820.331611 328.634036 
L 815.224698 328.634036 
z
" clip-path="url(#p76bd6432a4)" style="fill: #e69f00"/>
   </g>
   <g id="patch_145">
    <path d="M 820.331611 268.249608 
L 825.438523 268.249608 
L 825.438523 328.294457 
L 820.331611 328.294457 
z
" clip-path="url(#p76bd6432a4)" style="fill: #e69f00"/>
   </g>
   <g id="patch_146">
    <path d="M 825.438523 268.249608 
L 830.545436 268.249608 
L 830.545436 330.0858 
L 825.438523 330.0858 
z
" clip-path="url(#p76bd6432a4)" style="fill: #e69f00"/>
   </g>
   <g id="patch_147">
    <path d="M 830.545436 268.249608 
L 835.652349 268.249608 
L 835.652349 331.055836 
L 830.545436 331.055836 
z
" clip-path="url(#p76bd6432a4)" style="fill: #e69f00"/>
   </g>
   <g id="patch_148">
    <path d="M 835.652349 268.249608 
L 840.759262 268.249608 
L 840.759262 332.660278 
L 835.652349 332.660278 
z
" clip-path="url(#p76bd6432a4)" style="fill: #e69f00"/>
   </g>
   <g id="patch_149">
    <path d="M 840.759262 268.249608 
L 845.866174 268.249608 
L 845.866174 331.800803 
L 840.759262 331.800803 
z
" clip-path="url(#p76bd6432a4)" style="fill: #e69f00"/>
   </g>
   <g id="patch_150">
    <path d="M 845.866174 268.249608 
L 850.973087 268.249608 
L 850.973087 334.838582 
L 845.866174 334.838582 
z
" clip-path="url(#p76bd6432a4)" style="fill: #e69f00"/>
   </g>
   <g id="patch_151">
    <path d="M 850.973087 268.249608 
L 856.08 268.249608 
L 856.08 364.903125 
L 850.973087 364.903125 
z
" clip-path="url(#p76bd6432a4)" style="fill: #e69f00"/>
   </g>
   <g id="patch_152">
    <path d="M 95.15 268.249608 
L 100.256913 268.249608 
L 100.256913 264.557679 
L 95.15 264.557679 
z
" clip-path="url(#p76bd6432a4)" style="fill: #56b4e9"/>
   </g>
   <g id="patch_153">
    <path d="M 100.256913 268.249608 
L 105.363826 268.249608 
L 105.363826 264.021988 
L 100.256913 264.021988 
z
" clip-path="url(#p76bd6432a4)" style="fill: #56b4e9"/>
   </g>
   <g id="patch_154">
    <path d="M 105.363826 268.249608 
L 110.470738 268.249608 
L 110.470738 263.921957 
L 105.363826 263.921957 
z
" clip-path="url(#p76bd6432a4)" style="fill: #56b4e9"/>
   </g>
   <g id="patch_155">
    <path d="M 110.470738 268.249608 
L 115.577651 268.249608 
L 115.577651 264.510296 
L 110.470738 264.510296 
z
" clip-path="url(#p76bd6432a4)" style="fill: #56b4e9"/>
   </g>
   <g id="patch_156">
    <path d="M 115.577651 268.249608 
L 120.684564 268.249608 
L 120.684564 264.838029 
L 115.577651 264.838029 
z
" clip-path="url(#p76bd6432a4)" style="fill: #56b4e9"/>
   </g>
   <g id="patch_157">
    <path d="M 120.684564 268.249608 
L 125.791477 268.249608 
L 125.791477 264.289176 
L 120.684564 264.289176 
z
" clip-path="url(#p76bd6432a4)" style="fill: #56b4e9"/>
   </g>
   <g id="patch_158">
    <path d="M 125.791477 268.249608 
L 130.898389 268.249608 
L 130.898389 264.357618 
L 125.791477 264.357618 
z
" clip-path="url(#p76bd6432a4)" style="fill: #56b4e9"/>
   </g>
   <g id="patch_159">
    <path d="M 130.898389 268.249608 
L 136.005302 268.249608 
L 136.005302 263.554738 
L 130.898389 263.554738 
z
" clip-path="url(#p76bd6432a4)" style="fill: #56b4e9"/>
   </g>
   <g id="patch_160">
    <path d="M 136.005302 268.249608 
L 141.112215 268.249608 
L 141.112215 262.783448 
L 136.005302 262.783448 
z
" clip-path="url(#p76bd6432a4)" style="fill: #56b4e9"/>
   </g>
   <g id="patch_161">
    <path d="M 141.112215 268.249608 
L 146.219128 268.249608 
L 146.219128 261.785771 
L 141.112215 261.785771 
z
" clip-path="url(#p76bd6432a4)" style="fill: #56b4e9"/>
   </g>
   <g id="patch_162">
    <path d="M 146.219128 268.249608 
L 151.32604 268.249608 
L 151.32604 260.626203 
L 146.219128 260.626203 
z
" clip-path="url(#p76bd6432a4)" style="fill: #56b4e9"/>
   </g>
   <g id="patch_163">
    <path d="M 151.32604 268.249608 
L 156.432953 268.249608 
L 156.432953 261.373802 
L 151.32604 261.373802 
z
" clip-path="url(#p76bd6432a4)" style="fill: #56b4e9"/>
   </g>
   <g id="patch_164">
    <path d="M 156.432953 268.249608 
L 161.539866 268.249608 
L 161.539866 262.139828 
L 156.432953 262.139828 
z
" clip-path="url(#p76bd6432a4)" style="fill: #56b4e9"/>
   </g>
   <g id="patch_165">
    <path d="M 161.539866 268.249608 
L 166.646779 268.249608 
L 166.646779 261.904229 
L 161.539866 261.904229 
z
" clip-path="url(#p76bd6432a4)" style="fill: #56b4e9"/>
   </g>
   <g id="patch_166">
    <path d="M 166.646779 268.249608 
L 171.753691 268.249608 
L 171.753691 261.005267 
L 166.646779 261.005267 
z
" clip-path="url(#p76bd6432a4)" style="fill: #56b4e9"/>
   </g>
   <g id="patch_167">
    <path d="M 171.753691 268.249608 
L 176.860604 268.249608 
L 176.860604 260.312948 
L 171.753691 260.312948 
z
" clip-path="url(#p76bd6432a4)" style="fill: #56b4e9"/>
   </g>
   <g id="patch_168">
    <path d="M 176.860604 268.249608 
L 181.967517 268.249608 
L 181.967517 260.202388 
L 176.860604 260.202388 
z
" clip-path="url(#p76bd6432a4)" style="fill: #56b4e9"/>
   </g>
   <g id="patch_169">
    <path d="M 181.967517 268.249608 
L 187.07443 268.249608 
L 187.07443 259.679858 
L 181.967517 259.679858 
z
" clip-path="url(#p76bd6432a4)" style="fill: #56b4e9"/>
   </g>
   <g id="patch_170">
    <path d="M 187.07443 268.249608 
L 192.181342 268.249608 
L 192.181342 258.540033 
L 187.07443 258.540033 
z
" clip-path="url(#p76bd6432a4)" style="fill: #56b4e9"/>
   </g>
   <g id="patch_171">
    <path d="M 192.181342 268.249608 
L 197.288255 268.249608 
L 197.288255 254.528268 
L 192.181342 254.528268 
z
" clip-path="url(#p76bd6432a4)" style="fill: #56b4e9"/>
   </g>
   <g id="patch_172">
    <path d="M 197.288255 268.249608 
L 202.395168 268.249608 
L 202.395168 257.025091 
L 197.288255 257.025091 
z
" clip-path="url(#p76bd6432a4)" style="fill: #56b4e9"/>
   </g>
   <g id="patch_173">
    <path d="M 202.395168 268.249608 
L 207.502081 268.249608 
L 207.502081 257.974068 
L 202.395168 257.974068 
z
" clip-path="url(#p76bd6432a4)" style="fill: #56b4e9"/>
   </g>
   <g id="patch_174">
    <path d="M 207.502081 268.249608 
L 212.608993 268.249608 
L 212.608993 257.902994 
L 207.502081 257.902994 
z
" clip-path="url(#p76bd6432a4)" style="fill: #56b4e9"/>
   </g>
   <g id="patch_175">
    <path d="M 212.608993 268.249608 
L 217.715906 268.249608 
L 217.715906 257.754264 
L 212.608993 257.754264 
z
" clip-path="url(#p76bd6432a4)" style="fill: #56b4e9"/>
   </g>
   <g id="patch_176">
    <path d="M 217.715906 268.249608 
L 222.822819 268.249608 
L 222.822819 257.462068 
L 217.715906 257.462068 
z
" clip-path="url(#p76bd6432a4)" style="fill: #56b4e9"/>
   </g>
   <g id="patch_177">
    <path d="M 222.822819 268.249608 
L 227.929732 268.249608 
L 227.929732 257.697667 
L 222.822819 257.697667 
z
" clip-path="url(#p76bd6432a4)" style="fill: #56b4e9"/>
   </g>
   <g id="patch_178">
    <path d="M 227.929732 268.249608 
L 233.036644 268.249608 
L 233.036644 258.218881 
L 227.929732 258.218881 
z
" clip-path="url(#p76bd6432a4)" style="fill: #56b4e9"/>
   </g>
   <g id="patch_179">
    <path d="M 233.036644 268.249608 
L 238.143557 268.249608 
L 238.143557 259.320537 
L 233.036644 259.320537 
z
" clip-path="url(#p76bd6432a4)" style="fill: #56b4e9"/>
   </g>
   <g id="patch_180">
    <path d="M 238.143557 268.249608 
L 243.25047 268.249608 
L 243.25047 258.216248 
L 238.143557 258.216248 
z
" clip-path="url(#p76bd6432a4)" style="fill: #56b4e9"/>
   </g>
   <g id="patch_181">
    <path d="M 243.25047 268.249608 
L 248.357383 268.249608 
L 248.357383 256.059004 
L 243.25047 256.059004 
z
" clip-path="url(#p76bd6432a4)" style="fill: #56b4e9"/>
   </g>
   <g id="patch_182">
    <path d="M 248.357383 268.249608 
L 253.464295 268.249608 
L 253.464295 256.918479 
L 248.357383 256.918479 
z
" clip-path="url(#p76bd6432a4)" style="fill: #56b4e9"/>
   </g>
   <g id="patch_183">
    <path d="M 253.464295 268.249608 
L 258.571208 268.249608 
L 258.571208 255.639137 
L 253.464295 255.639137 
z
" clip-path="url(#p76bd6432a4)" style="fill: #56b4e9"/>
   </g>
   <g id="patch_184">
    <path d="M 258.571208 268.249608 
L 263.678121 268.249608 
L 263.678121 256.518356 
L 258.571208 256.518356 
z
" clip-path="url(#p76bd6432a4)" style="fill: #56b4e9"/>
   </g>
   <g id="patch_185">
    <path d="M 263.678121 268.249608 
L 268.785034 268.249608 
L 268.785034 255.327199 
L 263.678121 255.327199 
z
" clip-path="url(#p76bd6432a4)" style="fill: #56b4e9"/>
   </g>
   <g id="patch_186">
    <path d="M 268.785034 268.249608 
L 273.891946 268.249608 
L 273.891946 257.626593 
L 268.785034 257.626593 
z
" clip-path="url(#p76bd6432a4)" style="fill: #56b4e9"/>
   </g>
   <g id="patch_187">
    <path d="M 273.891946 268.249608 
L 278.998859 268.249608 
L 278.998859 257.533143 
L 273.891946 257.533143 
z
" clip-path="url(#p76bd6432a4)" style="fill: #56b4e9"/>
   </g>
   <g id="patch_188">
    <path d="M 278.998859 268.249608 
L 284.105772 268.249608 
L 284.105772 258.046459 
L 278.998859 258.046459 
z
" clip-path="url(#p76bd6432a4)" style="fill: #56b4e9"/>
   </g>
   <g id="patch_189">
    <path d="M 284.105772 268.249608 
L 289.212685 268.249608 
L 289.212685 257.330449 
L 284.105772 257.330449 
z
" clip-path="url(#p76bd6432a4)" style="fill: #56b4e9"/>
   </g>
   <g id="patch_190">
    <path d="M 289.212685 268.249608 
L 294.319597 268.249608 
L 294.319597 257.184351 
L 289.212685 257.184351 
z
" clip-path="url(#p76bd6432a4)" style="fill: #56b4e9"/>
   </g>
   <g id="patch_191">
    <path d="M 294.319597 268.249608 
L 299.42651 268.249608 
L 299.42651 256.882942 
L 294.319597 256.882942 
z
" clip-path="url(#p76bd6432a4)" style="fill: #56b4e9"/>
   </g>
   <g id="patch_192">
    <path d="M 299.42651 268.249608 
L 304.533423 268.249608 
L 304.533423 259.882552 
L 299.42651 259.882552 
z
" clip-path="url(#p76bd6432a4)" style="fill: #56b4e9"/>
   </g>
   <g id="patch_193">
    <path d="M 304.533423 268.249608 
L 309.640336 268.249608 
L 309.640336 259.413987 
L 304.533423 259.413987 
z
" clip-path="url(#p76bd6432a4)" style="fill: #56b4e9"/>
   </g>
   <g id="patch_194">
    <path d="M 309.640336 268.249608 
L 314.747248 268.249608 
L 314.747248 260.601195 
L 309.640336 260.601195 
z
" clip-path="url(#p76bd6432a4)" style="fill: #56b4e9"/>
   </g>
   <g id="patch_195">
    <path d="M 314.747248 268.249608 
L 319.854161 268.249608 
L 319.854161 261.758131 
L 314.747248 261.758131 
z
" clip-path="url(#p76bd6432a4)" style="fill: #56b4e9"/>
   </g>
   <g id="patch_196">
    <path d="M 319.854161 268.249608 
L 324.961074 268.249608 
L 324.961074 257.971436 
L 319.854161 257.971436 
z
" clip-path="url(#p76bd6432a4)" style="fill: #56b4e9"/>
   </g>
   <g id="patch_197">
    <path d="M 324.961074 268.249608 
L 330.067987 268.249608 
L 330.067987 253.980731 
L 324.961074 253.980731 
z
" clip-path="url(#p76bd6432a4)" style="fill: #56b4e9"/>
   </g>
   <g id="patch_198">
    <path d="M 330.067987 268.249608 
L 335.174899 268.249608 
L 335.174899 256.994819 
L 330.067987 256.994819 
z
" clip-path="url(#p76bd6432a4)" style="fill: #56b4e9"/>
   </g>
   <g id="patch_199">
    <path d="M 335.174899 268.249608 
L 340.281812 268.249608 
L 340.281812 259.953627 
L 335.174899 259.953627 
z
" clip-path="url(#p76bd6432a4)" style="fill: #56b4e9"/>
   </g>
   <g id="patch_200">
    <path d="M 340.281812 268.249608 
L 345.388725 268.249608 
L 345.388725 260.580136 
L 340.281812 260.580136 
z
" clip-path="url(#p76bd6432a4)" style="fill: #56b4e9"/>
   </g>
   <g id="patch_201">
    <path d="M 345.388725 268.249608 
L 350.495638 268.249608 
L 350.495638 260.428773 
L 345.388725 260.428773 
z
" clip-path="url(#p76bd6432a4)" style="fill: #56b4e9"/>
   </g>
   <g id="patch_202">
    <path d="M 350.495638 268.249608 
L 355.60255 268.249608 
L 355.60255 261.598871 
L 350.495638 261.598871 
z
" clip-path="url(#p76bd6432a4)" style="fill: #56b4e9"/>
   </g>
   <g id="patch_203">
    <path d="M 355.60255 268.249608 
L 360.709463 268.249608 
L 360.709463 261.157946 
L 355.60255 261.157946 
z
" clip-path="url(#p76bd6432a4)" style="fill: #56b4e9"/>
   </g>
   <g id="patch_204">
    <path d="M 360.709463 268.249608 
L 365.816376 268.249608 
L 365.816376 260.776249 
L 360.709463 260.776249 
z
" clip-path="url(#p76bd6432a4)" style="fill: #56b4e9"/>
   </g>
   <g id="patch_205">
    <path d="M 365.816376 268.249608 
L 370.923289 268.249608 
L 370.923289 260.868383 
L 365.816376 260.868383 
z
" clip-path="url(#p76bd6432a4)" style="fill: #56b4e9"/>
   </g>
   <g id="patch_206">
    <path d="M 370.923289 268.249608 
L 376.030201 268.249608 
L 376.030201 259.910192 
L 370.923289 259.910192 
z
" clip-path="url(#p76bd6432a4)" style="fill: #56b4e9"/>
   </g>
   <g id="patch_207">
    <path d="M 376.030201 268.249608 
L 381.137114 268.249608 
L 381.137114 258.358398 
L 376.030201 258.358398 
z
" clip-path="url(#p76bd6432a4)" style="fill: #56b4e9"/>
   </g>
   <g id="patch_208">
    <path d="M 381.137114 268.249608 
L 386.244027 268.249608 
L 386.244027 257.206726 
L 381.137114 257.206726 
z
" clip-path="url(#p76bd6432a4)" style="fill: #56b4e9"/>
   </g>
   <g id="patch_209">
    <path d="M 386.244027 268.249608 
L 391.35094 268.249608 
L 391.35094 256.417009 
L 386.244027 256.417009 
z
" clip-path="url(#p76bd6432a4)" style="fill: #56b4e9"/>
   </g>
   <g id="patch_210">
    <path d="M 391.35094 268.249608 
L 396.457852 268.249608 
L 396.457852 258.699292 
L 391.35094 258.699292 
z
" clip-path="url(#p76bd6432a4)" style="fill: #56b4e9"/>
   </g>
   <g id="patch_211">
    <path d="M 396.457852 268.249608 
L 401.564765 268.249608 
L 401.564765 260.738079 
L 396.457852 260.738079 
z
" clip-path="url(#p76bd6432a4)" style="fill: #56b4e9"/>
   </g>
   <g id="patch_212">
    <path d="M 401.564765 268.249608 
L 406.671678 268.249608 
L 406.671678 261.126357 
L 401.564765 261.126357 
z
" clip-path="url(#p76bd6432a4)" style="fill: #56b4e9"/>
   </g>
   <g id="patch_213">
    <path d="M 406.671678 268.249608 
L 411.778591 268.249608 
L 411.778591 262.091129 
L 406.671678 262.091129 
z
" clip-path="url(#p76bd6432a4)" style="fill: #56b4e9"/>
   </g>
   <g id="patch_214">
    <path d="M 411.778591 268.249608 
L 416.885503 268.249608 
L 416.885503 262.366214 
L 411.778591 262.366214 
z
" clip-path="url(#p76bd6432a4)" style="fill: #56b4e9"/>
   </g>
   <g id="patch_215">
    <path d="M 416.885503 268.249608 
L 421.992416 268.249608 
L 421.992416 260.673586 
L 416.885503 260.673586 
z
" clip-path="url(#p76bd6432a4)" style="fill: #56b4e9"/>
   </g>
   <g id="patch_216">
    <path d="M 421.992416 268.249608 
L 427.099329 268.249608 
L 427.099329 258.801956 
L 421.992416 258.801956 
z
" clip-path="url(#p76bd6432a4)" style="fill: #56b4e9"/>
   </g>
   <g id="patch_217">
    <path d="M 427.099329 268.249608 
L 432.206242 268.249608 
L 432.206242 259.320537 
L 427.099329 259.320537 
z
" clip-path="url(#p76bd6432a4)" style="fill: #56b4e9"/>
   </g>
   <g id="patch_218">
    <path d="M 432.206242 268.249608 
L 437.313154 268.249608 
L 437.313154 262.650512 
L 432.206242 262.650512 
z
" clip-path="url(#p76bd6432a4)" style="fill: #56b4e9"/>
   </g>
   <g id="patch_219">
    <path d="M 437.313154 268.249608 
L 442.420067 268.249608 
L 442.420067 264.231263 
L 437.313154 264.231263 
z
" clip-path="url(#p76bd6432a4)" style="fill: #56b4e9"/>
   </g>
   <g id="patch_220">
    <path d="M 442.420067 268.249608 
L 447.52698 268.249608 
L 447.52698 260.024701 
L 442.420067 260.024701 
z
" clip-path="url(#p76bd6432a4)" style="fill: #56b4e9"/>
   </g>
   <g id="patch_221">
    <path d="M 447.52698 268.249608 
L 452.633893 268.249608 
L 452.633893 250.691558 
L 447.52698 250.691558 
z
" clip-path="url(#p76bd6432a4)" style="fill: #56b4e9"/>
   </g>
   <g id="patch_222">
    <path d="M 452.633893 268.249608 
L 457.740805 268.249608 
L 457.740805 240.443658 
L 452.633893 240.443658 
z
" clip-path="url(#p76bd6432a4)" style="fill: #56b4e9"/>
   </g>
   <g id="patch_223">
    <path d="M 457.740805 268.249608 
L 462.847718 268.249608 
L 462.847718 226.892107 
L 457.740805 226.892107 
z
" clip-path="url(#p76bd6432a4)" style="fill: #56b4e9"/>
   </g>
   <g id="patch_224">
    <path d="M 462.847718 268.249608 
L 467.954631 268.249608 
L 467.954631 226.922379 
L 462.847718 226.922379 
z
" clip-path="url(#p76bd6432a4)" style="fill: #56b4e9"/>
   </g>
   <g id="patch_225">
    <path d="M 467.954631 268.249608 
L 473.061544 268.249608 
L 473.061544 224.900702 
L 467.954631 224.900702 
z
" clip-path="url(#p76bd6432a4)" style="fill: #56b4e9"/>
   </g>
   <g id="patch_226">
    <path d="M 473.061544 268.249608 
L 478.168456 268.249608 
L 478.168456 236.66486 
L 473.061544 236.66486 
z
" clip-path="url(#p76bd6432a4)" style="fill: #56b4e9"/>
   </g>
   <g id="patch_227">
    <path d="M 478.168456 268.249608 
L 483.275369 268.249608 
L 483.275369 231.4751 
L 478.168456 231.4751 
z
" clip-path="url(#p76bd6432a4)" style="fill: #56b4e9"/>
   </g>
   <g id="patch_228">
    <path d="M 483.275369 268.249608 
L 488.382282 268.249608 
L 488.382282 226.653875 
L 483.275369 226.653875 
z
" clip-path="url(#p76bd6432a4)" style="fill: #56b4e9"/>
   </g>
   <g id="patch_229">
    <path d="M 488.382282 268.249608 
L 493.489195 268.249608 
L 493.489195 233.687625 
L 488.382282 233.687625 
z
" clip-path="url(#p76bd6432a4)" style="fill: #56b4e9"/>
   </g>
   <g id="patch_230">
    <path d="M 493.489195 268.249608 
L 498.596107 268.249608 
L 498.596107 243.011556 
L 493.489195 243.011556 
z
" clip-path="url(#p76bd6432a4)" style="fill: #56b4e9"/>
   </g>
   <g id="patch_231">
    <path d="M 498.596107 268.249608 
L 503.70302 268.249608 
L 503.70302 240.850362 
L 498.596107 240.850362 
z
" clip-path="url(#p76bd6432a4)" style="fill: #56b4e9"/>
   </g>
   <g id="patch_232">
    <path d="M 503.70302 268.249608 
L 508.809933 268.249608 
L 508.809933 228.672919 
L 503.70302 228.672919 
z
" clip-path="url(#p76bd6432a4)" style="fill: #56b4e9"/>
   </g>
   <g id="patch_233">
    <path d="M 508.809933 268.249608 
L 513.916846 268.249608 
L 513.916846 231.357959 
L 508.809933 231.357959 
z
" clip-path="url(#p76bd6432a4)" style="fill: #56b4e9"/>
   </g>
   <g id="patch_234">
    <path d="M 513.916846 268.249608 
L 519.023758 268.249608 
L 519.023758 224.784877 
L 513.916846 224.784877 
z
" clip-path="url(#p76bd6432a4)" style="fill: #56b4e9"/>
   </g>
   <g id="patch_235">
    <path d="M 519.023758 268.249608 
L 524.130671 268.249608 
L 524.130671 239.165632 
L 519.023758 239.165632 
z
" clip-path="url(#p76bd6432a4)" style="fill: #56b4e9"/>
   </g>
   <g id="patch_236">
    <path d="M 524.130671 268.249608 
L 529.237584 268.249608 
L 529.237584 243.124748 
L 524.130671 243.124748 
z
" clip-path="url(#p76bd6432a4)" style="fill: #56b4e9"/>
   </g>
   <g id="patch_237">
    <path d="M 529.237584 268.249608 
L 534.344497 268.249608 
L 534.344497 233.840304 
L 529.237584 233.840304 
z
" clip-path="url(#p76bd6432a4)" style="fill: #56b4e9"/>
   </g>
   <g id="patch_238">
    <path d="M 534.344497 268.249608 
L 539.451409 268.249608 
L 539.451409 229.265207 
L 534.344497 229.265207 
z
" clip-path="url(#p76bd6432a4)" style="fill: #56b4e9"/>
   </g>
   <g id="patch_239">
    <path d="M 539.451409 268.249608 
L 544.558322 268.249608 
L 544.558322 235.234155 
L 539.451409 235.234155 
z
" clip-path="url(#p76bd6432a4)" style="fill: #56b4e9"/>
   </g>
   <g id="patch_240">
    <path d="M 544.558322 268.249608 
L 549.665235 268.249608 
L 549.665235 232.778134 
L 544.558322 232.778134 
z
" clip-path="url(#p76bd6432a4)" style="fill: #56b4e9"/>
   </g>
   <g id="patch_241">
    <path d="M 549.665235 268.249608 
L 554.772148 268.249608 
L 554.772148 217.794562 
L 549.665235 217.794562 
z
" clip-path="url(#p76bd6432a4)" style="fill: #56b4e9"/>
   </g>
   <g id="patch_242">
    <path d="M 554.772148 268.249608 
L 559.87906 268.249608 
L 559.87906 202.984727 
L 554.772148 202.984727 
z
" clip-path="url(#p76bd6432a4)" style="fill: #56b4e9"/>
   </g>
   <g id="patch_243">
    <path d="M 559.87906 268.249608 
L 564.985973 268.249608 
L 564.985973 206.427895 
L 559.87906 206.427895 
z
" clip-path="url(#p76bd6432a4)" style="fill: #56b4e9"/>
   </g>
   <g id="patch_244">
    <path d="M 564.985973 268.249608 
L 570.092886 268.249608 
L 570.092886 228.786112 
L 564.985973 228.786112 
z
" clip-path="url(#p76bd6432a4)" style="fill: #56b4e9"/>
   </g>
   <g id="patch_245">
    <path d="M 570.092886 268.249608 
L 575.199799 268.249608 
L 575.199799 220.895519 
L 570.092886 220.895519 
z
" clip-path="url(#p76bd6432a4)" style="fill: #56b4e9"/>
   </g>
   <g id="patch_246">
    <path d="M 575.199799 268.249608 
L 580.306711 268.249608 
L 580.306711 183.351036 
L 575.199799 183.351036 
z
" clip-path="url(#p76bd6432a4)" style="fill: #56b4e9"/>
   </g>
   <g id="patch_247">
    <path d="M 580.306711 268.249608 
L 585.413624 268.249608 
L 585.413624 166.473458 
L 580.306711 166.473458 
z
" clip-path="url(#p76bd6432a4)" style="fill: #56b4e9"/>
   </g>
   <g id="patch_248">
    <path d="M 585.413624 268.249608 
L 590.520537 268.249608 
L 590.520537 212.159928 
L 585.413624 212.159928 
z
" clip-path="url(#p76bd6432a4)" style="fill: #56b4e9"/>
   </g>
   <g id="patch_249">
    <path d="M 590.520537 268.249608 
L 595.62745 268.249608 
L 595.62745 228.903254 
L 590.520537 228.903254 
z
" clip-path="url(#p76bd6432a4)" style="fill: #56b4e9"/>
   </g>
   <g id="patch_250">
    <path d="M 595.62745 268.249608 
L 600.734362 268.249608 
L 600.734362 229.496858 
L 595.62745 229.496858 
z
" clip-path="url(#p76bd6432a4)" style="fill: #56b4e9"/>
   </g>
   <g id="patch_251">
    <path d="M 600.734362 268.249608 
L 605.841275 268.249608 
L 605.841275 218.984403 
L 600.734362 218.984403 
z
" clip-path="url(#p76bd6432a4)" style="fill: #56b4e9"/>
   </g>
   <g id="patch_252">
    <path d="M 605.841275 268.249608 
L 610.948188 268.249608 
L 610.948188 210.161943 
L 605.841275 210.161943 
z
" clip-path="url(#p76bd6432a4)" style="fill: #56b4e9"/>
   </g>
   <g id="patch_253">
    <path d="M 610.948188 268.249608 
L 616.055101 268.249608 
L 616.055101 208.373233 
L 610.948188 208.373233 
z
" clip-path="url(#p76bd6432a4)" style="fill: #56b4e9"/>
   </g>
   <g id="patch_254">
    <path d="M 616.055101 268.249608 
L 621.162013 268.249608 
L 621.162013 210.330416 
L 616.055101 210.330416 
z
" clip-path="url(#p76bd6432a4)" style="fill: #56b4e9"/>
   </g>
   <g id="patch_255">
    <path d="M 621.162013 268.249608 
L 626.268926 268.249608 
L 626.268926 220.620434 
L 621.162013 220.620434 
z
" clip-path="url(#p76bd6432a4)" style="fill: #56b4e9"/>
   </g>
   <g id="patch_256">
    <path d="M 626.268926 268.249608 
L 631.375839 268.249608 
L 631.375839 219.517462 
L 626.268926 219.517462 
z
" clip-path="url(#p76bd6432a4)" style="fill: #56b4e9"/>
   </g>
   <g id="patch_257">
    <path d="M 631.375839 268.249608 
L 636.482752 268.249608 
L 636.482752 216.357276 
L 631.375839 216.357276 
z
" clip-path="url(#p76bd6432a4)" style="fill: #56b4e9"/>
   </g>
   <g id="patch_258">
    <path d="M 636.482752 268.249608 
L 641.589664 268.249608 
L 641.589664 225.77334 
L 636.482752 225.77334 
z
" clip-path="url(#p76bd6432a4)" style="fill: #56b4e9"/>
   </g>
   <g id="patch_259">
    <path d="M 641.589664 268.249608 
L 646.696577 268.249608 
L 646.696577 228.262266 
L 641.589664 228.262266 
z
" clip-path="url(#p76bd6432a4)" style="fill: #56b4e9"/>
   </g>
   <g id="patch_260">
    <path d="M 646.696577 268.249608 
L 651.80349 268.249608 
L 651.80349 232.060807 
L 646.696577 232.060807 
z
" clip-path="url(#p76bd6432a4)" style="fill: #56b4e9"/>
   </g>
   <g id="patch_261">
    <path d="M 651.80349 268.249608 
L 656.910403 268.249608 
L 656.910403 226.80787 
L 651.80349 226.80787 
z
" clip-path="url(#p76bd6432a4)" style="fill: #56b4e9"/>
   </g>
   <g id="patch_262">
    <path d="M 656.910403 268.249608 
L 662.017315 268.249608 
L 662.017315 224.647993 
L 656.910403 224.647993 
z
" clip-path="url(#p76bd6432a4)" style="fill: #56b4e9"/>
   </g>
   <g id="patch_263">
    <path d="M 662.017315 268.249608 
L 667.124228 268.249608 
L 667.124228 216.276988 
L 662.017315 216.276988 
z
" clip-path="url(#p76bd6432a4)" style="fill: #56b4e9"/>
   </g>
   <g id="patch_264">
    <path d="M 667.124228 268.249608 
L 672.231141 268.249608 
L 672.231141 212.092802 
L 667.124228 212.092802 
z
" clip-path="url(#p76bd6432a4)" style="fill: #56b4e9"/>
   </g>
   <g id="patch_265">
    <path d="M 672.231141 268.249608 
L 677.338054 268.249608 
L 677.338054 201.002537 
L 672.231141 201.002537 
z
" clip-path="url(#p76bd6432a4)" style="fill: #56b4e9"/>
   </g>
   <g id="patch_266">
    <path d="M 677.338054 268.249608 
L 682.444966 268.249608 
L 682.444966 181.557061 
L 677.338054 181.557061 
z
" clip-path="url(#p76bd6432a4)" style="fill: #56b4e9"/>
   </g>
   <g id="patch_267">
    <path d="M 682.444966 268.249608 
L 687.551879 268.249608 
L 687.551879 189.214688 
L 682.444966 189.214688 
z
" clip-path="url(#p76bd6432a4)" style="fill: #56b4e9"/>
   </g>
   <g id="patch_268">
    <path d="M 687.551879 268.249608 
L 692.658792 268.249608 
L 692.658792 202.793879 
L 687.551879 202.793879 
z
" clip-path="url(#p76bd6432a4)" style="fill: #56b4e9"/>
   </g>
   <g id="patch_269">
    <path d="M 692.658792 268.249608 
L 697.765705 268.249608 
L 697.765705 208.562765 
L 692.658792 208.562765 
z
" clip-path="url(#p76bd6432a4)" style="fill: #56b4e9"/>
   </g>
   <g id="patch_270">
    <path d="M 697.765705 268.249608 
L 702.872617 268.249608 
L 702.872617 186.813947 
L 697.765705 186.813947 
z
" clip-path="url(#p76bd6432a4)" style="fill: #56b4e9"/>
   </g>
   <g id="patch_271">
    <path d="M 702.872617 268.249608 
L 707.97953 268.249608 
L 707.97953 158.218279 
L 702.872617 158.218279 
z
" clip-path="url(#p76bd6432a4)" style="fill: #56b4e9"/>
   </g>
   <g id="patch_272">
    <path d="M 707.97953 268.249608 
L 713.086443 268.249608 
L 713.086443 207.853335 
L 707.97953 207.853335 
z
" clip-path="url(#p76bd6432a4)" style="fill: #56b4e9"/>
   </g>
   <g id="patch_273">
    <path d="M 713.086443 268.249608 
L 718.193356 268.249608 
L 718.193356 215.73998 
L 713.086443 215.73998 
z
" clip-path="url(#p76bd6432a4)" style="fill: #56b4e9"/>
   </g>
   <g id="patch_274">
    <path d="M 718.193356 268.249608 
L 723.300268 268.249608 
L 723.300268 209.260349 
L 718.193356 209.260349 
z
" clip-path="url(#p76bd6432a4)" style="fill: #56b4e9"/>
   </g>
   <g id="patch_275">
    <path d="M 723.300268 268.249608 
L 728.407181 268.249608 
L 728.407181 203.241386 
L 723.300268 203.241386 
z
" clip-path="url(#p76bd6432a4)" style="fill: #56b4e9"/>
   </g>
   <g id="patch_276">
    <path d="M 728.407181 268.249608 
L 733.514094 268.249608 
L 733.514094 202.65173 
L 728.407181 202.65173 
z
" clip-path="url(#p76bd6432a4)" style="fill: #56b4e9"/>
   </g>
   <g id="patch_277">
    <path d="M 733.514094 268.249608 
L 738.621007 268.249608 
L 738.621007 191.042884 
L 733.514094 191.042884 
z
" clip-path="url(#p76bd6432a4)" style="fill: #56b4e9"/>
   </g>
   <g id="patch_278">
    <path d="M 738.621007 268.249608 
L 743.727919 268.249608 
L 743.727919 188.23149 
L 738.621007 188.23149 
z
" clip-path="url(#p76bd6432a4)" style="fill: #56b4e9"/>
   </g>
   <g id="patch_279">
    <path d="M 743.727919 268.249608 
L 748.834832 268.249608 
L 748.834832 183.898573 
L 743.727919 183.898573 
z
" clip-path="url(#p76bd6432a4)" style="fill: #56b4e9"/>
   </g>
   <g id="patch_280">
    <path d="M 748.834832 268.249608 
L 753.941745 268.249608 
L 753.941745 184.282902 
L 748.834832 184.282902 
z
" clip-path="url(#p76bd6432a4)" style="fill: #56b4e9"/>
   </g>
   <g id="patch_281">
    <path d="M 753.941745 268.249608 
L 759.048658 268.249608 
L 759.048658 186.60862 
L 753.941745 186.60862 
z
" clip-path="url(#p76bd6432a4)" style="fill: #56b4e9"/>
   </g>
   <g id="patch_282">
    <path d="M 759.048658 268.249608 
L 764.15557 268.249608 
L 764.15557 182.395478 
L 759.048658 182.395478 
z
" clip-path="url(#p76bd6432a4)" style="fill: #56b4e9"/>
   </g>
   <g id="patch_283">
    <path d="M 764.15557 268.249608 
L 769.262483 268.249608 
L 769.262483 142.223868 
L 764.15557 142.223868 
z
" clip-path="url(#p76bd6432a4)" style="fill: #56b4e9"/>
   </g>
   <g id="patch_284">
    <path d="M 769.262483 268.249608 
L 774.369396 268.249608 
L 774.369396 137.307877 
L 769.262483 137.307877 
z
" clip-path="url(#p76bd6432a4)" style="fill: #56b4e9"/>
   </g>
   <g id="patch_285">
    <path d="M 774.369396 268.249608 
L 779.476309 268.249608 
L 779.476309 135.088771 
L 774.369396 135.088771 
z
" clip-path="url(#p76bd6432a4)" style="fill: #56b4e9"/>
   </g>
   <g id="patch_286">
    <path d="M 779.476309 268.249608 
L 784.583221 268.249608 
L 784.583221 133.62911 
L 779.476309 133.62911 
z
" clip-path="url(#p76bd6432a4)" style="fill: #56b4e9"/>
   </g>
   <g id="patch_287">
    <path d="M 784.583221 268.249608 
L 789.690134 268.249608 
L 789.690134 138.208155 
L 784.583221 138.208155 
z
" clip-path="url(#p76bd6432a4)" style="fill: #56b4e9"/>
   </g>
   <g id="patch_288">
    <path d="M 789.690134 268.249608 
L 794.797047 268.249608 
L 794.797047 141.280156 
L 789.690134 141.280156 
z
" clip-path="url(#p76bd6432a4)" style="fill: #56b4e9"/>
   </g>
   <g id="patch_289">
    <path d="M 794.797047 268.249608 
L 799.90396 268.249608 
L 799.90396 132.603794 
L 794.797047 132.603794 
z
" clip-path="url(#p76bd6432a4)" style="fill: #56b4e9"/>
   </g>
   <g id="patch_290">
    <path d="M 799.90396 268.249608 
L 805.010872 268.249608 
L 805.010872 115.774915 
L 799.90396 115.774915 
z
" clip-path="url(#p76bd6432a4)" style="fill: #56b4e9"/>
   </g>
   <g id="patch_291">
    <path d="M 805.010872 268.249608 
L 810.117785 268.249608 
L 810.117785 101.137503 
L 805.010872 101.137503 
z
" clip-path="url(#p76bd6432a4)" style="fill: #56b4e9"/>
   </g>
   <g id="patch_292">
    <path d="M 810.117785 268.249608 
L 815.224698 268.249608 
L 815.224698 91.563495 
L 810.117785 91.563495 
z
" clip-path="url(#p76bd6432a4)" style="fill: #56b4e9"/>
   </g>
   <g id="patch_293">
    <path d="M 815.224698 268.249608 
L 820.331611 268.249608 
L 820.331611 53.703125 
L 815.224698 53.703125 
z
" clip-path="url(#p76bd6432a4)" style="fill: #56b4e9"/>
   </g>
   <g id="patch_294">
    <path d="M 820.331611 268.249608 
L 825.438523 268.249608 
L 825.438523 78.073805 
L 820.331611 78.073805 
z
" clip-path="url(#p76bd6432a4)" style="fill: #56b4e9"/>
   </g>
   <g id="patch_295">
    <path d="M 825.438523 268.249608 
L 830.545436 268.249608 
L 830.545436 93.719423 
L 825.438523 93.719423 
z
" clip-path="url(#p76bd6432a4)" style="fill: #56b4e9"/>
   </g>
   <g id="patch_296">
    <path d="M 830.545436 268.249608 
L 835.652349 268.249608 
L 835.652349 115.827563 
L 830.545436 115.827563 
z
" clip-path="url(#p76bd6432a4)" style="fill: #56b4e9"/>
   </g>
   <g id="patch_297">
    <path d="M 835.652349 268.249608 
L 840.759262 268.249608 
L 840.759262 159.63977 
L 835.652349 159.63977 
z
" clip-path="url(#p76bd6432a4)" style="fill: #56b4e9"/>
   </g>
   <g id="patch_298">
    <path d="M 840.759262 268.249608 
L 845.866174 268.249608 
L 845.866174 148.961474 
L 840.759262 148.961474 
z
" clip-path="url(#p76bd6432a4)" style="fill: #56b4e9"/>
   </g>
   <g id="patch_299">
    <path d="M 845.866174 268.249608 
L 850.973087 268.249608 
L 850.973087 133.423784 
L 845.866174 133.423784 
z
" clip-path="url(#p76bd6432a4)" style="fill: #56b4e9"/>
   </g>
   <g id="patch_300">
    <path d="M 850.973087 268.249608 
L 856.08 268.249608 
L 856.08 143.850686 
L 850.973087 143.850686 
z
" clip-path="url(#p76bd6432a4)" style="fill: #56b4e9"/>
   </g>
   <g id="matplotlib.axis_1">
    <g id="xtick_1">
     <g id="line2d_1">
      <path d="M 123.23802 380.463125 
L 123.23802 38.143125 
" clip-path="url(#p76bd6432a4)" style="fill: none; stroke-dasharray: 2.96,1.28; stroke-dashoffset: 0; stroke: #b0b0b0; stroke-opacity: 0.5; stroke-width: 0.8"/>
     </g>
     <g id="line2d_2">
      <defs>
       <path id="mf4ef6175e0" d="M 0 0 
L 0 3.5 
" style="stroke: #000000; stroke-width: 0.8"/>
      </defs>
      <g>
       <use xlink:href="#mf4ef6175e0" x="123.23802" y="380.463125" style="stroke: #000000; stroke-width: 0.8"/>
      </g>
     </g>
     <g id="text_1">
      <text style="font-size: 14px; font-family: 'Liberation Sans', sans-serif; text-anchor: middle" x="123.23802" y="397.60875" transform="rotate(-0 123.23802 397.60875)">1880</text>
     </g>
    </g>
    <g id="xtick_2">
     <g id="line2d_3">
      <path d="M 174.307148 380.463125 
L 174.307148 38.143125 
" clip-path="url(#p76bd6432a4)" style="fill: none; stroke-dasharray: 2.96,1.28; stroke-dashoffset: 0; stroke: #b0b0b0; stroke-opacity: 0.5; stroke-width: 0.8"/>
     </g>
     <g id="line2d_4">
      <g>
       <use xlink:href="#mf4ef6175e0" x="174.307148" y="380.463125" style="stroke: #000000; stroke-width: 0.8"/>
      </g>
     </g>
     <g id="text_2">
      <text style="font-size: 14px; font-family: 'Liberation Sans', sans-serif; text-anchor: middle" x="174.307148" y="397.60875" transform="rotate(-0 174.307148 397.60875)">1890</text>
     </g>
    </g>
    <g id="xtick_3">
     <g id="line2d_5">
      <path d="M 225.376275 380.463125 
L 225.376275 38.143125 
" clip-path="url(#p76bd6432a4)" style="fill: none; stroke-dasharray: 2.96,1.28; stroke-dashoffset: 0; stroke: #b0b0b0; stroke-opacity: 0.5; stroke-width: 0.8"/>
     </g>
     <g id="line2d_6">
      <g>
       <use xlink:href="#mf4ef6175e0" x="225.376275" y="380.463125" style="stroke: #000000; stroke-width: 0.8"/>
      </g>
     </g>
     <g id="text_3">
      <text style="font-size: 14px; font-family: 'Liberation Sans', sans-serif; text-anchor: middle" x="225.376275" y="397.60875" transform="rotate(-0 225.376275 397.60875)">1900</text>
     </g>
    </g>
    <g id="xtick_4">
     <g id="line2d_7">
      <path d="M 276.445403 380.463125 
L 276.445403 38.143125 
" clip-path="url(#p76bd6432a4)" style="fill: none; stroke-dasharray: 2.96,1.28; stroke-dashoffset: 0; stroke: #b0b0b0; stroke-opacity: 0.5; stroke-width: 0.8"/>
     </g>
     <g id="line2d_8">
      <g>
       <use xlink:href="#mf4ef6175e0" x="276.445403" y="380.463125" style="stroke: #000000; stroke-width: 0.8"/>
      </g>
     </g>
     <g id="text_4">
      <text style="font-size: 14px; font-family: 'Liberation Sans', sans-serif; text-anchor: middle" x="276.445403" y="397.60875" transform="rotate(-0 276.445403 397.60875)">1910</text>
     </g>
    </g>
    <g id="xtick_5">
     <g id="line2d_9">
      <path d="M 327.51453 380.463125 
L 327.51453 38.143125 
" clip-path="url(#p76bd6432a4)" style="fill: none; stroke-dasharray: 2.96,1.28; stroke-dashoffset: 0; stroke: #b0b0b0; stroke-opacity: 0.5; stroke-width: 0.8"/>
     </g>
     <g id="line2d_10">
      <g>
       <use xlink:href="#mf4ef6175e0" x="327.51453" y="380.463125" style="stroke: #000000; stroke-width: 0.8"/>
      </g>
     </g>
     <g id="text_5">
      <text style="font-size: 14px; font-family: 'Liberation Sans', sans-serif; text-anchor: middle" x="327.51453" y="397.60875" transform="rotate(-0 327.51453 397.60875)">1920</text>
     </g>
    </g>
    <g id="xtick_6">
     <g id="line2d_11">
      <path d="M 378.583658 380.463125 
L 378.583658 38.143125 
" clip-path="url(#p76bd6432a4)" style="fill: none; stroke-dasharray: 2.96,1.28; stroke-dashoffset: 0; stroke: #b0b0b0; stroke-opacity: 0.5; stroke-width: 0.8"/>
     </g>
     <g id="line2d_12">
      <g>
       <use xlink:href="#mf4ef6175e0" x="378.583658" y="380.463125" style="stroke: #000000; stroke-width: 0.8"/>
      </g>
     </g>
     <g id="text_6">
      <text style="font-size: 14px; font-family: 'Liberation Sans', sans-serif; text-anchor: middle" x="378.583658" y="397.60875" transform="rotate(-0 378.583658 397.60875)">1930</text>
     </g>
    </g>
    <g id="xtick_7">
     <g id="line2d_13">
      <path d="M 429.652785 380.463125 
L 429.652785 38.143125 
" clip-path="url(#p76bd6432a4)" style="fill: none; stroke-dasharray: 2.96,1.28; stroke-dashoffset: 0; stroke: #b0b0b0; stroke-opacity: 0.5; stroke-width: 0.8"/>
     </g>
     <g id="line2d_14">
      <g>
       <use xlink:href="#mf4ef6175e0" x="429.652785" y="380.463125" style="stroke: #000000; stroke-width: 0.8"/>
      </g>
     </g>
     <g id="text_7">
      <text style="font-size: 14px; font-family: 'Liberation Sans', sans-serif; text-anchor: middle" x="429.652785" y="397.60875" transform="rotate(-0 429.652785 397.60875)">1940</text>
     </g>
    </g>
    <g id="xtick_8">
     <g id="line2d_15">
      <path d="M 480.721913 380.463125 
L 480.721913 38.143125 
" clip-path="url(#p76bd6432a4)" style="fill: none; stroke-dasharray: 2.96,1.28; stroke-dashoffset: 0; stroke: #b0b0b0; stroke-opacity: 0.5; stroke-width: 0.8"/>
     </g>
     <g id="line2d_16">
      <g>
       <use xlink:href="#mf4ef6175e0" x="480.721913" y="380.463125" style="stroke: #000000; stroke-width: 0.8"/>
      </g>
     </g>
     <g id="text_8">
      <text style="font-size: 14px; font-family: 'Liberation Sans', sans-serif; text-anchor: middle" x="480.721913" y="397.60875" transform="rotate(-0 480.721913 397.60875)">1950</text>
     </g>
    </g>
    <g id="xtick_9">
     <g id="line2d_17">
      <path d="M 531.79104 380.463125 
L 531.79104 38.143125 
" clip-path="url(#p76bd6432a4)" style="fill: none; stroke-dasharray: 2.96,1.28; stroke-dashoffset: 0; stroke: #b0b0b0; stroke-opacity: 0.5; stroke-width: 0.8"/>
     </g>
     <g id="line2d_18">
      <g>
       <use xlink:href="#mf4ef6175e0" x="531.79104" y="380.463125" style="stroke: #000000; stroke-width: 0.8"/>
      </g>
     </g>
     <g id="text_9">
      <text style="font-size: 14px; font-family: 'Liberation Sans', sans-serif; text-anchor: middle" x="531.79104" y="397.60875" transform="rotate(-0 531.79104 397.60875)">1960</text>
     </g>
    </g>
    <g id="xtick_10">
     <g id="line2d_19">
      <path d="M 582.860168 380.463125 
L 582.860168 38.143125 
" clip-path="url(#p76bd6432a4)" style="fill: none; stroke-dasharray: 2.96,1.28; stroke-dashoffset: 0; stroke: #b0b0b0; stroke-opacity: 0.5; stroke-width: 0.8"/>
     </g>
     <g id="line2d_20">
      <g>
       <use xlink:href="#mf4ef6175e0" x="582.860168" y="380.463125" style="stroke: #000000; stroke-width: 0.8"/>
      </g>
     </g>
     <g id="text_10">
      <text style="font-size: 14px; font-family: 'Liberation Sans', sans-serif; text-anchor: middle" x="582.860168" y="397.60875" transform="rotate(-0 582.860168 397.60875)">1970</text>
     </g>
    </g>
    <g id="xtick_11">
     <g id="line2d_21">
      <path d="M 633.929295 380.463125 
L 633.929295 38.143125 
" clip-path="url(#p76bd6432a4)" style="fill: none; stroke-dasharray: 2.96,1.28; stroke-dashoffset: 0; stroke: #b0b0b0; stroke-opacity: 0.5; stroke-width: 0.8"/>
     </g>
     <g id="line2d_22">
      <g>
       <use xlink:href="#mf4ef6175e0" x="633.929295" y="380.463125" style="stroke: #000000; stroke-width: 0.8"/>
      </g>
     </g>
     <g id="text_11">
      <text style="font-size: 14px; font-family: 'Liberation Sans', sans-serif; text-anchor: middle" x="633.929295" y="397.60875" transform="rotate(-0 633.929295 397.60875)">1980</text>
     </g>
    </g>
    <g id="xtick_12">
     <g id="line2d_23">
      <path d="M 684.998423 380.463125 
L 684.998423 38.143125 
" clip-path="url(#p76bd6432a4)" style="fill: none; stroke-dasharray: 2.96,1.28; stroke-dashoffset: 0; stroke: #b0b0b0; stroke-opacity: 0.5; stroke-width: 0.8"/>
     </g>
     <g id="line2d_24">
      <g>
       <use xlink:href="#mf4ef6175e0" x="684.998423" y="380.463125" style="stroke: #000000; stroke-width: 0.8"/>
      </g>
     </g>
     <g id="text_12">
      <text style="font-size: 14px; font-family: 'Liberation Sans', sans-serif; text-anchor: middle" x="684.998423" y="397.60875" transform="rotate(-0 684.998423 397.60875)">1990</text>
     </g>
    </g>
    <g id="xtick_13">
     <g id="line2d_25">
      <path d="M 736.06755 380.463125 
L 736.06755 38.143125 
" clip-path="url(#p76bd6432a4)" style="fill: none; stroke-dasharray: 2.96,1.28; stroke-dashoffset: 0; stroke: #b0b0b0; stroke-opacity: 0.5; stroke-width: 0.8"/>
     </g>
     <g id="line2d_26">
      <g>
       <use xlink:href="#mf4ef6175e0" x="736.06755" y="380.463125" style="stroke: #000000; stroke-width: 0.8"/>
      </g>
     </g>
     <g id="text_13">
      <text style="font-size: 14px; font-family: 'Liberation Sans', sans-serif; text-anchor: middle" x="736.06755" y="397.60875" transform="rotate(-0 736.06755 397.60875)">2000</text>
     </g>
    </g>
    <g id="xtick_14">
     <g id="line2d_27">
      <path d="M 787.136678 380.463125 
L 787.136678 38.143125 
" clip-path="url(#p76bd6432a4)" style="fill: none; stroke-dasharray: 2.96,1.28; stroke-dashoffset: 0; stroke: #b0b0b0; stroke-opacity: 0.5; stroke-width: 0.8"/>
     </g>
     <g id="line2d_28">
      <g>
       <use xlink:href="#mf4ef6175e0" x="787.136678" y="380.463125" style="stroke: #000000; stroke-width: 0.8"/>
      </g>
     </g>
     <g id="text_14">
      <text style="font-size: 14px; font-family: 'Liberation Sans', sans-serif; text-anchor: middle" x="787.136678" y="397.60875" transform="rotate(-0 787.136678 397.60875)">2010</text>
     </g>
    </g>
    <g id="xtick_15">
     <g id="line2d_29">
      <path d="M 838.205805 380.463125 
L 838.205805 38.143125 
" clip-path="url(#p76bd6432a4)" style="fill: none; stroke-dasharray: 2.96,1.28; stroke-dashoffset: 0; stroke: #b0b0b0; stroke-opacity: 0.5; stroke-width: 0.8"/>
     </g>
     <g id="line2d_30">
      <g>
       <use xlink:href="#mf4ef6175e0" x="838.205805" y="380.463125" style="stroke: #000000; stroke-width: 0.8"/>
      </g>
     </g>
     <g id="text_15">
      <text style="font-size: 14px; font-family: 'Liberation Sans', sans-serif; text-anchor: middle" x="838.205805" y="397.60875" transform="rotate(-0 838.205805 397.60875)">2020</text>
     </g>
    </g>
   </g>
   <g id="matplotlib.axis_2">
    <g id="ytick_1">
     <g id="line2d_31">
      <path d="M 95.15 373.545266 
L 856.08 373.545266 
" clip-path="url(#p76bd6432a4)" style="fill: none; stroke-dasharray: 2.96,1.28; stroke-dashoffset: 0; stroke: #b0b0b0; stroke-opacity: 0.5; stroke-width: 0.8"/>
     </g>
     <g id="line2d_32">
      <defs>
       <path id="m7174059320" d="M 0 0 
L -3.5 0 
" style="stroke: #000000; stroke-width: 0.8"/>
      </defs>
      <g>
       <use xlink:href="#m7174059320" x="95.15" y="373.545266" style="stroke: #000000; stroke-width: 0.8"/>
      </g>
     </g>
     <g id="text_16">
      <text style="font-size: 14px; font-family: 'Liberation Sans', sans-serif; text-anchor: end" x="88.15" y="378.618079" transform="rotate(-0 88.15 378.618079)">80,000</text>
     </g>
    </g>
    <g id="ytick_2">
     <g id="line2d_33">
      <path d="M 95.15 347.221352 
L 856.08 347.221352 
" clip-path="url(#p76bd6432a4)" style="fill: none; stroke-dasharray: 2.96,1.28; stroke-dashoffset: 0; stroke: #b0b0b0; stroke-opacity: 0.5; stroke-width: 0.8"/>
     </g>
     <g id="line2d_34">
      <g>
       <use xlink:href="#m7174059320" x="95.15" y="347.221352" style="stroke: #000000; stroke-width: 0.8"/>
      </g>
     </g>
     <g id="text_17">
      <text style="font-size: 14px; font-family: 'Liberation Sans', sans-serif; text-anchor: end" x="88.15" y="352.294164" transform="rotate(-0 88.15 352.294164)">60,000</text>
     </g>
    </g>
    <g id="ytick_3">
     <g id="line2d_35">
      <path d="M 95.15 320.897437 
L 856.08 320.897437 
" clip-path="url(#p76bd6432a4)" style="fill: none; stroke-dasharray: 2.96,1.28; stroke-dashoffset: 0; stroke: #b0b0b0; stroke-opacity: 0.5; stroke-width: 0.8"/>
     </g>
     <g id="line2d_36">
      <g>
       <use xlink:href="#m7174059320" x="95.15" y="320.897437" style="stroke: #000000; stroke-width: 0.8"/>
      </g>
     </g>
     <g id="text_18">
      <text style="font-size: 14px; font-family: 'Liberation Sans', sans-serif; text-anchor: end" x="88.15" y="325.97025" transform="rotate(-0 88.15 325.97025)">40,000</text>
     </g>
    </g>
    <g id="ytick_4">
     <g id="line2d_37">
      <path d="M 95.15 294.573523 
L 856.08 294.573523 
" clip-path="url(#p76bd6432a4)" style="fill: none; stroke-dasharray: 2.96,1.28; stroke-dashoffset: 0; stroke: #b0b0b0; stroke-opacity: 0.5; stroke-width: 0.8"/>
     </g>
     <g id="line2d_38">
      <g>
       <use xlink:href="#m7174059320" x="95.15" y="294.573523" style="stroke: #000000; stroke-width: 0.8"/>
      </g>
     </g>
     <g id="text_19">
      <text style="font-size: 14px; font-family: 'Liberation Sans', sans-serif; text-anchor: end" x="88.15" y="299.646335" transform="rotate(-0 88.15 299.646335)">20,000</text>
     </g>
    </g>
    <g id="ytick_5">
     <g id="line2d_39">
      <path d="M 95.15 268.249608 
L 856.08 268.249608 
" clip-path="url(#p76bd6432a4)" style="fill: none; stroke-dasharray: 2.96,1.28; stroke-dashoffset: 0; stroke: #b0b0b0; stroke-opacity: 0.5; stroke-width: 0.8"/>
     </g>
     <g id="line2d_40">
      <g>
       <use xlink:href="#m7174059320" x="95.15" y="268.249608" style="stroke: #000000; stroke-width: 0.8"/>
      </g>
     </g>
     <g id="text_20">
      <text style="font-size: 14px; font-family: 'Liberation Sans', sans-serif; text-anchor: end" x="88.15" y="273.322421" transform="rotate(-0 88.15 273.322421)">0</text>
     </g>
    </g>
    <g id="ytick_6">
     <g id="line2d_41">
      <path d="M 95.15 241.925694 
L 856.08 241.925694 
" clip-path="url(#p76bd6432a4)" style="fill: none; stroke-dasharray: 2.96,1.28; stroke-dashoffset: 0; stroke: #b0b0b0; stroke-opacity: 0.5; stroke-width: 0.8"/>
     </g>
     <g id="line2d_42">
      <g>
       <use xlink:href="#m7174059320" x="95.15" y="241.925694" style="stroke: #000000; stroke-width: 0.8"/>
      </g>
     </g>
     <g id="text_21">
      <text style="font-size: 14px; font-family: 'Liberation Sans', sans-serif; text-anchor: end" x="88.15" y="246.998507" transform="rotate(-0 88.15 246.998507)">20,000</text>
     </g>
    </g>
    <g id="ytick_7">
     <g id="line2d_43">
      <path d="M 95.15 215.60178 
L 856.08 215.60178 
" clip-path="url(#p76bd6432a4)" style="fill: none; stroke-dasharray: 2.96,1.28; stroke-dashoffset: 0; stroke: #b0b0b0; stroke-opacity: 0.5; stroke-width: 0.8"/>
     </g>
     <g id="line2d_44">
      <g>
       <use xlink:href="#m7174059320" x="95.15" y="215.60178" style="stroke: #000000; stroke-width: 0.8"/>
      </g>
     </g>
     <g id="text_22">
      <text style="font-size: 14px; font-family: 'Liberation Sans', sans-serif; text-anchor: end" x="88.15" y="220.674592" transform="rotate(-0 88.15 220.674592)">40,000</text>
     </g>
    </g>
    <g id="ytick_8">
     <g id="line2d_45">
      <path d="M 95.15 189.277865 
L 856.08 189.277865 
" clip-path="url(#p76bd6432a4)" style="fill: none; stroke-dasharray: 2.96,1.28; stroke-dashoffset: 0; stroke: #b0b0b0; stroke-opacity: 0.5; stroke-width: 0.8"/>
     </g>
     <g id="line2d_46">
      <g>
       <use xlink:href="#m7174059320" x="95.15" y="189.277865" style="stroke: #000000; stroke-width: 0.8"/>
      </g>
     </g>
     <g id="text_23">
      <text style="font-size: 14px; font-family: 'Liberation Sans', sans-serif; text-anchor: end" x="88.15" y="194.350678" transform="rotate(-0 88.15 194.350678)">60,000</text>
     </g>
    </g>
    <g id="ytick_9">
     <g id="line2d_47">
      <path d="M 95.15 162.953951 
L 856.08 162.953951 
" clip-path="url(#p76bd6432a4)" style="fill: none; stroke-dasharray: 2.96,1.28; stroke-dashoffset: 0; stroke: #b0b0b0; stroke-opacity: 0.5; stroke-width: 0.8"/>
     </g>
     <g id="line2d_48">
      <g>
       <use xlink:href="#m7174059320" x="95.15" y="162.953951" style="stroke: #000000; stroke-width: 0.8"/>
      </g>
     </g>
     <g id="text_24">
      <text style="font-size: 14px; font-family: 'Liberation Sans', sans-serif; text-anchor: end" x="88.15" y="168.026763" transform="rotate(-0 88.15 168.026763)">80,000</text>
     </g>
    </g>
    <g id="ytick_10">
     <g id="line2d_49">
      <path d="M 95.15 136.630036 
L 856.08 136.630036 
" clip-path="url(#p76bd6432a4)" style="fill: none; stroke-dasharray: 2.96,1.28; stroke-dashoffset: 0; stroke: #b0b0b0; stroke-opacity: 0.5; stroke-width: 0.8"/>
     </g>
     <g id="line2d_50">
      <g>
       <use xlink:href="#m7174059320" x="95.15" y="136.630036" style="stroke: #000000; stroke-width: 0.8"/>
      </g>
     </g>
     <g id="text_25">
      <text style="font-size: 14px; font-family: 'Liberation Sans', sans-serif; text-anchor: end" x="88.15" y="141.702849" transform="rotate(-0 88.15 141.702849)">100,000</text>
     </g>
    </g>
    <g id="ytick_11">
     <g id="line2d_51">
      <path d="M 95.15 110.306122 
L 856.08 110.306122 
" clip-path="url(#p76bd6432a4)" style="fill: none; stroke-dasharray: 2.96,1.28; stroke-dashoffset: 0; stroke: #b0b0b0; stroke-opacity: 0.5; stroke-width: 0.8"/>
     </g>
     <g id="line2d_52">
      <g>
       <use xlink:href="#m7174059320" x="95.15" y="110.306122" style="stroke: #000000; stroke-width: 0.8"/>
      </g>
     </g>
     <g id="text_26">
      <text style="font-size: 14px; font-family: 'Liberation Sans', sans-serif; text-anchor: end" x="88.15" y="115.378934" transform="rotate(-0 88.15 115.378934)">120,000</text>
     </g>
    </g>
    <g id="ytick_12">
     <g id="line2d_53">
      <path d="M 95.15 83.982208 
L 856.08 83.982208 
" clip-path="url(#p76bd6432a4)" style="fill: none; stroke-dasharray: 2.96,1.28; stroke-dashoffset: 0; stroke: #b0b0b0; stroke-opacity: 0.5; stroke-width: 0.8"/>
     </g>
     <g id="line2d_54">
      <g>
       <use xlink:href="#m7174059320" x="95.15" y="83.982208" style="stroke: #000000; stroke-width: 0.8"/>
      </g>
     </g>
     <g id="text_27">
      <text style="font-size: 14px; font-family: 'Liberation Sans', sans-serif; text-anchor: end" x="88.15" y="89.05502" transform="rotate(-0 88.15 89.05502)">140,000</text>
     </g>
    </g>
    <g id="ytick_13">
     <g id="line2d_55">
      <path d="M 95.15 57.658293 
L 856.08 57.658293 
" clip-path="url(#p76bd6432a4)" style="fill: none; stroke-dasharray: 2.96,1.28; stroke-dashoffset: 0; stroke: #b0b0b0; stroke-opacity: 0.5; stroke-width: 0.8"/>
     </g>
     <g id="line2d_56">
      <g>
       <use xlink:href="#m7174059320" x="95.15" y="57.658293" style="stroke: #000000; stroke-width: 0.8"/>
      </g>
     </g>
     <g id="text_28">
      <text style="font-size: 14px; font-family: 'Liberation Sans', sans-serif; text-anchor: end" x="88.15" y="62.731106" transform="rotate(-0 88.15 62.731106)">160,000</text>
     </g>
    </g>
    <g id="text_29">
     <text style="font-size: 12px; font-family: 'Liberation Sans', sans-serif; text-anchor: start" x="31.05875" y="380.463125" transform="rotate(-90 31.05875 380.463125)">Number of People per Year</text>
    </g>
   </g>
   <g id="line2d_57">
    <path d="M 97.703456 277.360315 
L 102.810369 276.417919 
L 107.917282 273.938206 
L 113.024195 276.398176 
L 118.131107 288.051773 
L 123.23802 319.712861 
L 128.344933 324.892091 
L 133.451846 329.598807 
L 138.558758 304.381813 
L 143.665671 292.795342 
L 148.772584 291.547589 
L 153.879497 304.662163 
L 158.986409 328.984144 
L 164.093322 328.139146 
L 169.200235 304.917505 
L 174.307148 305.342636 
L 179.41406 316.503976 
L 184.520973 319.572028 
L 189.627886 312.331636 
L 194.734799 272.11001 
L 199.841711 281.973581 
L 204.948624 283.707011 
L 210.055537 277.065487 
L 215.16245 275.737446 
L 220.269362 279.674187 
L 225.376275 284.891587 
L 230.483188 290.618355 
L 235.590101 308.160611 
L 240.697013 310.238884 
L 245.803926 285.520729 
L 250.910839 288.567722 
L 256.017752 288.154436 
L 261.124664 286.761901 
L 266.231577 271.778329 
L 271.33849 286.572369 
L 276.445403 294.144443 
L 281.552315 284.366425 
L 286.659228 281.175967 
L 291.766141 283.963669 
L 296.873054 273.940839 
L 301.979966 269.769815 
L 307.086879 273.327492 
L 312.193792 269.077496 
L 317.300705 268.145629 
L 322.407617 267.628364 
L 327.51453 267.461207 
L 332.621443 268.774771 
L 337.728356 275.480788 
L 342.835268 299.063066 
L 347.942181 274.473898 
L 353.049094 277.324778 
L 358.156007 278.325087 
L 363.262919 277.685416 
L 368.369832 278.571215 
L 373.476745 274.413353 
L 378.583658 265.837022 
L 383.69057 261.117144 
L 388.797483 259.203395 
L 393.904396 261.880537 
L 399.011309 263.896949 
L 404.118221 264.356302 
L 409.225134 265.211829 
L 414.332047 265.378986 
L 419.43896 263.387581 
L 424.545872 263.513936 
L 429.652785 263.403376 
L 434.759698 264.099643 
L 439.866611 265.468487 
L 444.973523 260.928928 
L 450.080436 251.414149 
L 455.187349 251.316751 
L 460.294262 235.9936 
L 465.401174 235.413158 
L 470.508087 237.778361 
L 475.615 255.320618 
L 480.721913 248.401377 
L 485.828826 248.4764 
L 490.935738 253.427928 
L 496.042651 266.018657 
L 501.149564 259.042819 
L 506.256477 245.3557 
L 511.363389 250.754735 
L 516.470302 244.621263 
L 521.577215 257.917472 
L 526.684128 263.666615 
L 531.79104 253.764875 
L 536.897953 249.033151 
L 542.004866 254.882325 
L 547.111779 252.968576 
L 557.325604 224.013586 
L 562.432517 232.396437 
L 567.53943 255.082386 
L 572.646342 251.381244 
L 577.753255 210.148781 
L 582.860168 204.186414 
L 587.967081 264.228631 
L 593.073993 283.629355 
L 598.180906 282.594826 
L 603.287819 256.301184 
L 608.394732 246.02696 
L 613.501644 241.96518 
L 618.608557 238.073189 
L 623.71547 249.797861 
L 628.822383 250.404627 
L 633.929295 255.63124 
L 639.036208 264.522142 
L 644.143121 265.617217 
L 649.250034 265.319757 
L 654.356946 256.850037 
L 659.463859 253.651682 
L 664.570772 248.517202 
L 669.677685 239.302516 
L 674.784597 229.249413 
L 679.89151 209.83421 
L 684.998423 222.377555 
L 690.105336 235.363142 
L 695.212248 242.423216 
L 700.319161 226.133978 
L 705.426074 201.206547 
L 710.532987 252.582931 
L 715.639899 260.337956 
L 720.746812 259.99048 
L 725.853725 253.938612 
L 730.960638 249.646498 
L 736.06755 235.913312 
L 741.174463 230.535336 
L 746.281376 227.344878 
L 751.388289 230.380025 
L 756.495201 234.762957 
L 761.602114 232.566226 
L 766.709027 201.331586 
L 771.81594 197.086854 
L 776.922852 194.70454 
L 782.029765 185.27663 
L 787.136678 202.508265 
L 792.243591 208.641737 
L 797.350503 200.712974 
L 802.457416 182.525781 
L 807.564329 168.575423 
L 812.671242 165.046702 
L 817.778154 114.087552 
L 822.885067 138.118654 
L 827.99198 155.555615 
L 833.098893 178.63379 
L 838.205805 224.05044 
L 843.312718 212.512668 
L 848.419631 200.012758 
L 853.526544 240.504203 
L 853.526544 240.504203 
" clip-path="url(#p76bd6432a4)" style="fill: none; stroke: #000000; stroke-opacity: 0.8; stroke-linecap: square"/>
   </g>
   <g id="line2d_58">
    <path d="M 95.15 268.249608 
L 856.08 268.249608 
" clip-path="url(#p76bd6432a4)" style="fill: none; stroke: #000000; stroke-opacity: 0.6; stroke-linecap: square"/>
   </g>
   <g id="patch_301">
    <path d="M 95.15 380.463125 
L 95.15 38.143125 
" style="fill: none; stroke: #000000; stroke-width: 0.8; stroke-linejoin: miter; stroke-linecap: square"/>
   </g>
   <g id="patch_302">
    <path d="M 856.08 380.463125 
L 856.08 38.143125 
" style="fill: none; stroke: #000000; stroke-width: 0.8; stroke-linejoin: miter; stroke-linecap: square"/>
   </g>
   <g id="patch_303">
    <path d="M 95.15 380.463125 
L 856.08 380.463125 
" style="fill: none; stroke: #000000; stroke-width: 0.8; stroke-linejoin: miter; stroke-linecap: square"/>
   </g>
   <g id="patch_304">
    <path d="M 95.15 38.143125 
L 856.08 38.143125 
" style="fill: none; stroke: #000000; stroke-width: 0.8; stroke-linejoin: miter; stroke-linecap: square"/>
   </g>
   <g id="text_30">
    <text style="font-weight: 700; font-size: 22px; font-family: 'Liberation Sans', sans-serif; text-anchor: middle" x="475.615" y="23.143125" transform="rotate(-0 475.615 23.143125)">Immigration and Emigration in Sweden (1875 - 2023)</text>
   </g>
   <g id="legend_1">
    <g id="patch_305">
     <path d="M 104.95 109.495 
L 232.999688 109.495 
Q 235.799688 109.495 235.799688 106.695 
L 235.799688 47.943125 
Q 235.799688 45.143125 232.999688 45.143125 
L 104.95 45.143125 
Q 102.15 45.143125 102.15 47.943125 
L 102.15 106.695 
Q 102.15 109.495 104.95 109.495 
z
" style="fill: #ffffff; opacity: 0.8; stroke: #cccccc; stroke-linejoin: miter"/>
    </g>
    <g id="patch_306">
     <path d="M 107.75 60.88875 
L 135.75 60.88875 
L 135.75 51.08875 
L 107.75 51.08875 
z
" style="fill: #56b4e9"/>
    </g>
    <g id="text_31">
     <text style="font-size: 14px; font-family: 'Liberation Sans', sans-serif; text-anchor: start" x="146.95" y="60.88875" transform="rotate(-0 146.95 60.88875)">Immigration</text>
    </g>
    <g id="patch_307">
     <path d="M 107.75 80.939375 
L 135.75 80.939375 
L 135.75 71.139375 
L 107.75 71.139375 
z
" style="fill: #e69f00"/>
    </g>
    <g id="text_32">
     <text style="font-size: 14px; font-family: 'Liberation Sans', sans-serif; text-anchor: start" x="146.95" y="80.939375" transform="rotate(-0 146.95 80.939375)">Emigration</text>
    </g>
    <g id="line2d_59">
     <path d="M 107.75 96.09 
L 121.75 96.09 
L 135.75 96.09 
" style="fill: none; stroke: #000000; stroke-opacity: 0.8; stroke-linecap: square"/>
    </g>
    <g id="text_33">
     <text style="font-size: 14px; font-family: 'Liberation Sans', sans-serif; text-anchor: start" x="146.95" y="100.99" transform="rotate(-0 146.95 100.99)">Net Migration</text>
    </g>
   </g>
  </g>
  <g id="text_34">
   <text style="font-size: 10px; font-family: 'Liberation Sans', sans-serif; text-anchor: start" x="7.2" y="422.108125" transform="rotate(-0 7.2 422.108125)">Source: Statistics Sweden - Population and population changes in Sweden. Year by sex, year and observations (BE0101) - Updated: 9 Feb 2024</text>
  </g>
 </g>
 <defs>
  <clipPath id="p76bd6432a4">
   <rect x="95.15" y="38.143125" width="760.93" height="342.32"/>
  </clipPath>
 </defs>
</svg>
