<?xml version="1.0" encoding="utf-8" standalone="no"?>
<!DOCTYPE svg PUBLIC "-//W3C//DTD SVG 1.1//EN"
  "http://www.w3.org/Graphics/SVG/1.1/DTD/svg11.dtd">
<svg xmlns:xlink="http://www.w3.org/1999/xlink" width="848.13625pt" height="422.73375pt" viewBox="0 0 848.13625 422.73375" xmlns="http://www.w3.org/2000/svg" version="1.1">
 <metadata>
  <rdf:RDF xmlns:dc="http://purl.org/dc/elements/1.1/" xmlns:cc="http://creativecommons.org/ns#" xmlns:rdf="http://www.w3.org/1999/02/22-rdf-syntax-ns#">
   <cc:Work>
    <dc:type rdf:resource="http://purl.org/dc/dcmitype/StillImage"/>
    <dc:date>2025-01-12T19:07:06.253390</dc:date>
    <dc:format>image/svg+xml</dc:format>
    <dc:creator>
     <cc:Agent>
      <dc:title>Matplotlib v3.10.0, https://matplotlib.org/</dc:title>
     </cc:Agent>
    </dc:creator>
   </cc:Work>
  </rdf:RDF>
 </metadata>
 <defs>
  <style type="text/css">*{stroke-linejoin: round; stroke-linecap: butt}</style>
 </defs>
 <g id="figure_1">
  <g id="patch_1">
   <path d="M 0 422.73375 
L 848.13625 422.73375 
L 848.13625 0 
L 0 0 
z
" style="fill: #ffffff"/>
  </g>
  <g id="axes_1">
   <g id="patch_2">
    <path d="M 61.30125 380.97375 
L 840.93625 380.97375 
L 840.93625 27.69375 
L 61.30125 27.69375 
z
" style="fill: #ffffff"/>
   </g>
   <g id="patch_3">
    <path d="M 96.739205 265.167513 
L 120.56304 265.167513 
L 120.56304 185.488874 
L 96.739205 185.488874 
z
" clip-path="url(#p43ecfa2c4b)" style="fill: #0072b2"/>
   </g>
   <g id="patch_4">
    <path d="M 126.518998 265.167513 
L 150.342833 265.167513 
L 150.342833 182.587468 
L 126.518998 182.587468 
z
" clip-path="url(#p43ecfa2c4b)" style="fill: #0072b2"/>
   </g>
   <g id="patch_5">
    <path d="M 156.298792 265.167513 
L 180.122627 265.167513 
L 180.122627 178.115825 
L 156.298792 178.115825 
z
" clip-path="url(#p43ecfa2c4b)" style="fill: #0072b2"/>
   </g>
   <g id="patch_6">
    <path d="M 186.078586 265.167513 
L 209.902421 265.167513 
L 209.902421 178.512459 
L 186.078586 178.512459 
z
" clip-path="url(#p43ecfa2c4b)" style="fill: #0072b2"/>
   </g>
   <g id="patch_7">
    <path d="M 215.858379 265.167513 
L 239.682214 265.167513 
L 239.682214 180.912639 
L 215.858379 180.912639 
z
" clip-path="url(#p43ecfa2c4b)" style="fill: #0072b2"/>
   </g>
   <g id="patch_8">
    <path d="M 245.638173 265.167513 
L 269.462008 265.167513 
L 269.462008 176.564605 
L 245.638173 176.564605 
z
" clip-path="url(#p43ecfa2c4b)" style="fill: #0072b2"/>
   </g>
   <g id="patch_9">
    <path d="M 275.417967 265.167513 
L 299.241802 265.167513 
L 299.241802 135.106828 
L 275.417967 135.106828 
z
" clip-path="url(#p43ecfa2c4b)" style="fill: #0072b2"/>
   </g>
   <g id="patch_10">
    <path d="M 305.197761 265.167513 
L 329.021596 265.167513 
L 329.021596 130.033443 
L 305.197761 130.033443 
z
" clip-path="url(#p43ecfa2c4b)" style="fill: #0072b2"/>
   </g>
   <g id="patch_11">
    <path d="M 334.977554 265.167513 
L 358.801389 265.167513 
L 358.801389 127.743288 
L 334.977554 127.743288 
z
" clip-path="url(#p43ecfa2c4b)" style="fill: #0072b2"/>
   </g>
   <g id="patch_12">
    <path d="M 364.757348 265.167513 
L 388.581183 265.167513 
L 388.581183 126.236893 
L 364.757348 126.236893 
z
" clip-path="url(#p43ecfa2c4b)" style="fill: #0072b2"/>
   </g>
   <g id="patch_13">
    <path d="M 394.537142 265.167513 
L 418.360977 265.167513 
L 418.360977 130.962545 
L 394.537142 130.962545 
z
" clip-path="url(#p43ecfa2c4b)" style="fill: #0072b2"/>
   </g>
   <g id="patch_14">
    <path d="M 424.316936 265.167513 
L 448.140771 265.167513 
L 448.140771 134.132901 
L 424.316936 134.132901 
z
" clip-path="url(#p43ecfa2c4b)" style="fill: #0072b2"/>
   </g>
   <g id="patch_15">
    <path d="M 454.096729 265.167513 
L 477.920564 265.167513 
L 477.920564 125.178749 
L 454.096729 125.178749 
z
" clip-path="url(#p43ecfa2c4b)" style="fill: #0072b2"/>
   </g>
   <g id="patch_16">
    <path d="M 483.876523 265.167513 
L 507.700358 265.167513 
L 507.700358 107.811064 
L 483.876523 107.811064 
z
" clip-path="url(#p43ecfa2c4b)" style="fill: #0072b2"/>
   </g>
   <g id="patch_17">
    <path d="M 513.656317 265.167513 
L 537.480152 265.167513 
L 537.480152 92.705008 
L 513.656317 92.705008 
z
" clip-path="url(#p43ecfa2c4b)" style="fill: #0072b2"/>
   </g>
   <g id="patch_18">
    <path d="M 543.436111 265.167513 
L 567.259946 265.167513 
L 567.259946 82.824471 
L 543.436111 82.824471 
z
" clip-path="url(#p43ecfa2c4b)" style="fill: #0072b2"/>
   </g>
   <g id="patch_19">
    <path d="M 573.215904 265.167513 
L 597.039739 265.167513 
L 597.039739 43.751932 
L 573.215904 43.751932 
z
" clip-path="url(#p43ecfa2c4b)" style="fill: #0072b2"/>
   </g>
   <g id="patch_20">
    <path d="M 602.995698 265.167513 
L 626.819533 265.167513 
L 626.819533 68.902884 
L 602.995698 68.902884 
z
" clip-path="url(#p43ecfa2c4b)" style="fill: #0072b2"/>
   </g>
   <g id="patch_21">
    <path d="M 632.775492 265.167513 
L 656.599327 265.167513 
L 656.599327 85.049425 
L 632.775492 85.049425 
z
" clip-path="url(#p43ecfa2c4b)" style="fill: #0072b2"/>
   </g>
   <g id="patch_22">
    <path d="M 662.555286 265.167513 
L 686.379121 265.167513 
L 686.379121 107.865397 
L 662.555286 107.865397 
z
" clip-path="url(#p43ecfa2c4b)" style="fill: #0072b2"/>
   </g>
   <g id="patch_23">
    <path d="M 692.335079 265.167513 
L 716.158914 265.167513 
L 716.158914 153.080332 
L 692.335079 153.080332 
z
" clip-path="url(#p43ecfa2c4b)" style="fill: #0072b2"/>
   </g>
   <g id="patch_24">
    <path d="M 722.114873 265.167513 
L 745.938708 265.167513 
L 745.938708 142.060151 
L 722.114873 142.060151 
z
" clip-path="url(#p43ecfa2c4b)" style="fill: #0072b2"/>
   </g>
   <g id="patch_25">
    <path d="M 751.894667 265.167513 
L 775.718502 265.167513 
L 775.718502 126.024993 
L 751.894667 126.024993 
z
" clip-path="url(#p43ecfa2c4b)" style="fill: #0072b2"/>
   </g>
   <g id="patch_26">
    <path d="M 781.67446 265.167513 
L 805.498295 265.167513 
L 805.498295 136.785732 
L 781.67446 136.785732 
z
" clip-path="url(#p43ecfa2c4b)" style="fill: #0072b2"/>
   </g>
   <g id="patch_27">
    <path d="M 96.739205 265.167513 
L 120.56304 265.167513 
L 120.56304 311.47455 
L 96.739205 311.47455 
z
" clip-path="url(#p43ecfa2c4b)" style="fill: #d55e00"/>
   </g>
   <g id="patch_28">
    <path d="M 126.518998 265.167513 
L 150.342833 265.167513 
L 150.342833 308.825794 
L 126.518998 308.825794 
z
" clip-path="url(#p43ecfa2c4b)" style="fill: #d55e00"/>
   </g>
   <g id="patch_29">
    <path d="M 156.298792 265.167513 
L 180.122627 265.167513 
L 180.122627 310.00483 
L 156.298792 310.00483 
z
" clip-path="url(#p43ecfa2c4b)" style="fill: #d55e00"/>
   </g>
   <g id="patch_30">
    <path d="M 186.078586 265.167513 
L 209.902421 265.167513 
L 209.902421 312.740519 
L 186.078586 312.740519 
z
" clip-path="url(#p43ecfa2c4b)" style="fill: #d55e00"/>
   </g>
   <g id="patch_31">
    <path d="M 215.858379 265.167513 
L 239.682214 265.167513 
L 239.682214 314.863598 
L 215.858379 314.863598 
z
" clip-path="url(#p43ecfa2c4b)" style="fill: #d55e00"/>
   </g>
   <g id="patch_32">
    <path d="M 245.638173 265.167513 
L 269.462008 265.167513 
L 269.462008 316.944569 
L 245.638173 316.944569 
z
" clip-path="url(#p43ecfa2c4b)" style="fill: #d55e00"/>
   </g>
   <g id="patch_33">
    <path d="M 275.417967 265.167513 
L 299.241802 265.167513 
L 299.241802 326.167672 
L 275.417967 326.167672 
z
" clip-path="url(#p43ecfa2c4b)" style="fill: #d55e00"/>
   </g>
   <g id="patch_34">
    <path d="M 305.197761 265.167513 
L 329.021596 265.167513 
L 329.021596 326.860423 
L 305.197761 326.860423 
z
" clip-path="url(#p43ecfa2c4b)" style="fill: #d55e00"/>
   </g>
   <g id="patch_35">
    <path d="M 334.977554 265.167513 
L 358.801389 265.167513 
L 358.801389 326.691989 
L 334.977554 326.691989 
z
" clip-path="url(#p43ecfa2c4b)" style="fill: #d55e00"/>
   </g>
   <g id="patch_36">
    <path d="M 364.757348 265.167513 
L 388.581183 265.167513 
L 388.581183 318.468623 
L 364.757348 318.468623 
z
" clip-path="url(#p43ecfa2c4b)" style="fill: #d55e00"/>
   </g>
   <g id="patch_37">
    <path d="M 394.537142 265.167513 
L 418.360977 265.167513 
L 418.360977 331.526308 
L 394.537142 331.526308 
z
" clip-path="url(#p43ecfa2c4b)" style="fill: #d55e00"/>
   </g>
   <g id="patch_38">
    <path d="M 424.316936 265.167513 
L 448.140771 265.167513 
L 448.140771 334.685798 
L 424.316936 334.685798 
z
" clip-path="url(#p43ecfa2c4b)" style="fill: #d55e00"/>
   </g>
   <g id="patch_39">
    <path d="M 454.096729 265.167513 
L 477.920564 265.167513 
L 477.920564 335.457333 
L 454.096729 335.457333 
z
" clip-path="url(#p43ecfa2c4b)" style="fill: #d55e00"/>
   </g>
   <g id="patch_40">
    <path d="M 483.876523 265.167513 
L 507.700358 265.167513 
L 507.700358 334.05553 
L 483.876523 334.05553 
z
" clip-path="url(#p43ecfa2c4b)" style="fill: #d55e00"/>
   </g>
   <g id="patch_41">
    <path d="M 513.656317 265.167513 
L 537.480152 265.167513 
L 537.480152 334.764581 
L 513.656317 334.764581 
z
" clip-path="url(#p43ecfa2c4b)" style="fill: #d55e00"/>
   </g>
   <g id="patch_42">
    <path d="M 543.436111 265.167513 
L 567.259946 265.167513 
L 567.259946 341.003419 
L 543.436111 341.003419 
z
" clip-path="url(#p43ecfa2c4b)" style="fill: #d55e00"/>
   </g>
   <g id="patch_43">
    <path d="M 573.215904 265.167513 
L 597.039739 265.167513 
L 597.039739 327.485258 
L 573.215904 327.485258 
z
" clip-path="url(#p43ecfa2c4b)" style="fill: #d55e00"/>
   </g>
   <g id="patch_44">
    <path d="M 602.995698 265.167513 
L 626.819533 265.167513 
L 626.819533 327.134807 
L 602.995698 327.134807 
z
" clip-path="url(#p43ecfa2c4b)" style="fill: #d55e00"/>
   </g>
   <g id="patch_45">
    <path d="M 632.775492 265.167513 
L 656.599327 265.167513 
L 656.599327 328.983503 
L 632.775492 328.983503 
z
" clip-path="url(#p43ecfa2c4b)" style="fill: #d55e00"/>
   </g>
   <g id="patch_46">
    <path d="M 662.555286 265.167513 
L 686.379121 265.167513 
L 686.379121 329.984596 
L 662.555286 329.984596 
z
" clip-path="url(#p43ecfa2c4b)" style="fill: #d55e00"/>
   </g>
   <g id="patch_47">
    <path d="M 692.335079 265.167513 
L 716.158914 265.167513 
L 716.158914 331.640408 
L 692.335079 331.640408 
z
" clip-path="url(#p43ecfa2c4b)" style="fill: #d55e00"/>
   </g>
   <g id="patch_48">
    <path d="M 722.114873 265.167513 
L 745.938708 265.167513 
L 745.938708 330.753414 
L 722.114873 330.753414 
z
" clip-path="url(#p43ecfa2c4b)" style="fill: #d55e00"/>
   </g>
   <g id="patch_49">
    <path d="M 751.894667 265.167513 
L 775.718502 265.167513 
L 775.718502 333.888454 
L 751.894667 333.888454 
z
" clip-path="url(#p43ecfa2c4b)" style="fill: #d55e00"/>
   </g>
   <g id="patch_50">
    <path d="M 781.67446 265.167513 
L 805.498295 265.167513 
L 805.498295 364.915568 
L 781.67446 364.915568 
z
" clip-path="url(#p43ecfa2c4b)" style="fill: #d55e00"/>
   </g>
   <g id="matplotlib.axis_1">
    <g id="xtick_1">
     <g id="line2d_1">
      <path d="M 108.651122 380.97375 
L 108.651122 27.69375 
" clip-path="url(#p43ecfa2c4b)" style="fill: none; stroke-dasharray: 2.96,1.28; stroke-dashoffset: 0; stroke: #b0b0b0; stroke-opacity: 0.7; stroke-width: 0.8"/>
     </g>
     <g id="line2d_2"/>
     <g id="text_1">
      <text style="font-size: 14px; font-family: 'Liberation Sans', sans-serif; text-anchor: middle" x="108.651122" y="394.619375" transform="rotate(-0 108.651122 394.619375)">2000</text>
     </g>
    </g>
    <g id="xtick_2">
     <g id="line2d_3">
      <path d="M 138.430916 380.97375 
L 138.430916 27.69375 
" clip-path="url(#p43ecfa2c4b)" style="fill: none; stroke-dasharray: 2.96,1.28; stroke-dashoffset: 0; stroke: #b0b0b0; stroke-opacity: 0.7; stroke-width: 0.8"/>
     </g>
     <g id="line2d_4"/>
    </g>
    <g id="xtick_3">
     <g id="line2d_5">
      <path d="M 168.21071 380.97375 
L 168.21071 27.69375 
" clip-path="url(#p43ecfa2c4b)" style="fill: none; stroke-dasharray: 2.96,1.28; stroke-dashoffset: 0; stroke: #b0b0b0; stroke-opacity: 0.7; stroke-width: 0.8"/>
     </g>
     <g id="line2d_6"/>
    </g>
    <g id="xtick_4">
     <g id="line2d_7">
      <path d="M 197.990503 380.97375 
L 197.990503 27.69375 
" clip-path="url(#p43ecfa2c4b)" style="fill: none; stroke-dasharray: 2.96,1.28; stroke-dashoffset: 0; stroke: #b0b0b0; stroke-opacity: 0.7; stroke-width: 0.8"/>
     </g>
     <g id="line2d_8"/>
    </g>
    <g id="xtick_5">
     <g id="line2d_9">
      <path d="M 227.770297 380.97375 
L 227.770297 27.69375 
" clip-path="url(#p43ecfa2c4b)" style="fill: none; stroke-dasharray: 2.96,1.28; stroke-dashoffset: 0; stroke: #b0b0b0; stroke-opacity: 0.7; stroke-width: 0.8"/>
     </g>
     <g id="line2d_10"/>
    </g>
    <g id="xtick_6">
     <g id="line2d_11">
      <path d="M 257.550091 380.97375 
L 257.550091 27.69375 
" clip-path="url(#p43ecfa2c4b)" style="fill: none; stroke-dasharray: 2.96,1.28; stroke-dashoffset: 0; stroke: #b0b0b0; stroke-opacity: 0.7; stroke-width: 0.8"/>
     </g>
     <g id="line2d_12"/>
     <g id="text_2">
      <text style="font-size: 14px; font-family: 'Liberation Sans', sans-serif; text-anchor: middle" x="257.550091" y="394.619375" transform="rotate(-0 257.550091 394.619375)">2005</text>
     </g>
    </g>
    <g id="xtick_7">
     <g id="line2d_13">
      <path d="M 287.329884 380.97375 
L 287.329884 27.69375 
" clip-path="url(#p43ecfa2c4b)" style="fill: none; stroke-dasharray: 2.96,1.28; stroke-dashoffset: 0; stroke: #b0b0b0; stroke-opacity: 0.7; stroke-width: 0.8"/>
     </g>
     <g id="line2d_14"/>
    </g>
    <g id="xtick_8">
     <g id="line2d_15">
      <path d="M 317.109678 380.97375 
L 317.109678 27.69375 
" clip-path="url(#p43ecfa2c4b)" style="fill: none; stroke-dasharray: 2.96,1.28; stroke-dashoffset: 0; stroke: #b0b0b0; stroke-opacity: 0.7; stroke-width: 0.8"/>
     </g>
     <g id="line2d_16"/>
    </g>
    <g id="xtick_9">
     <g id="line2d_17">
      <path d="M 346.889472 380.97375 
L 346.889472 27.69375 
" clip-path="url(#p43ecfa2c4b)" style="fill: none; stroke-dasharray: 2.96,1.28; stroke-dashoffset: 0; stroke: #b0b0b0; stroke-opacity: 0.7; stroke-width: 0.8"/>
     </g>
     <g id="line2d_18"/>
    </g>
    <g id="xtick_10">
     <g id="line2d_19">
      <path d="M 376.669266 380.97375 
L 376.669266 27.69375 
" clip-path="url(#p43ecfa2c4b)" style="fill: none; stroke-dasharray: 2.96,1.28; stroke-dashoffset: 0; stroke: #b0b0b0; stroke-opacity: 0.7; stroke-width: 0.8"/>
     </g>
     <g id="line2d_20"/>
    </g>
    <g id="xtick_11">
     <g id="line2d_21">
      <path d="M 406.449059 380.97375 
L 406.449059 27.69375 
" clip-path="url(#p43ecfa2c4b)" style="fill: none; stroke-dasharray: 2.96,1.28; stroke-dashoffset: 0; stroke: #b0b0b0; stroke-opacity: 0.7; stroke-width: 0.8"/>
     </g>
     <g id="line2d_22"/>
     <g id="text_3">
      <text style="font-size: 14px; font-family: 'Liberation Sans', sans-serif; text-anchor: middle" x="406.449059" y="394.619375" transform="rotate(-0 406.449059 394.619375)">2010</text>
     </g>
    </g>
    <g id="xtick_12">
     <g id="line2d_23">
      <path d="M 436.228853 380.97375 
L 436.228853 27.69375 
" clip-path="url(#p43ecfa2c4b)" style="fill: none; stroke-dasharray: 2.96,1.28; stroke-dashoffset: 0; stroke: #b0b0b0; stroke-opacity: 0.7; stroke-width: 0.8"/>
     </g>
     <g id="line2d_24"/>
    </g>
    <g id="xtick_13">
     <g id="line2d_25">
      <path d="M 466.008647 380.97375 
L 466.008647 27.69375 
" clip-path="url(#p43ecfa2c4b)" style="fill: none; stroke-dasharray: 2.96,1.28; stroke-dashoffset: 0; stroke: #b0b0b0; stroke-opacity: 0.7; stroke-width: 0.8"/>
     </g>
     <g id="line2d_26"/>
    </g>
    <g id="xtick_14">
     <g id="line2d_27">
      <path d="M 495.788441 380.97375 
L 495.788441 27.69375 
" clip-path="url(#p43ecfa2c4b)" style="fill: none; stroke-dasharray: 2.96,1.28; stroke-dashoffset: 0; stroke: #b0b0b0; stroke-opacity: 0.7; stroke-width: 0.8"/>
     </g>
     <g id="line2d_28"/>
    </g>
    <g id="xtick_15">
     <g id="line2d_29">
      <path d="M 525.568234 380.97375 
L 525.568234 27.69375 
" clip-path="url(#p43ecfa2c4b)" style="fill: none; stroke-dasharray: 2.96,1.28; stroke-dashoffset: 0; stroke: #b0b0b0; stroke-opacity: 0.7; stroke-width: 0.8"/>
     </g>
     <g id="line2d_30"/>
    </g>
    <g id="xtick_16">
     <g id="line2d_31">
      <path d="M 555.348028 380.97375 
L 555.348028 27.69375 
" clip-path="url(#p43ecfa2c4b)" style="fill: none; stroke-dasharray: 2.96,1.28; stroke-dashoffset: 0; stroke: #b0b0b0; stroke-opacity: 0.7; stroke-width: 0.8"/>
     </g>
     <g id="line2d_32"/>
     <g id="text_4">
      <text style="font-size: 14px; font-family: 'Liberation Sans', sans-serif; text-anchor: middle" x="555.348028" y="394.619375" transform="rotate(-0 555.348028 394.619375)">2015</text>
     </g>
    </g>
    <g id="xtick_17">
     <g id="line2d_33">
      <path d="M 585.127822 380.97375 
L 585.127822 27.69375 
" clip-path="url(#p43ecfa2c4b)" style="fill: none; stroke-dasharray: 2.96,1.28; stroke-dashoffset: 0; stroke: #b0b0b0; stroke-opacity: 0.7; stroke-width: 0.8"/>
     </g>
     <g id="line2d_34"/>
    </g>
    <g id="xtick_18">
     <g id="line2d_35">
      <path d="M 614.907616 380.97375 
L 614.907616 27.69375 
" clip-path="url(#p43ecfa2c4b)" style="fill: none; stroke-dasharray: 2.96,1.28; stroke-dashoffset: 0; stroke: #b0b0b0; stroke-opacity: 0.7; stroke-width: 0.8"/>
     </g>
     <g id="line2d_36"/>
    </g>
    <g id="xtick_19">
     <g id="line2d_37">
      <path d="M 644.687409 380.97375 
L 644.687409 27.69375 
" clip-path="url(#p43ecfa2c4b)" style="fill: none; stroke-dasharray: 2.96,1.28; stroke-dashoffset: 0; stroke: #b0b0b0; stroke-opacity: 0.7; stroke-width: 0.8"/>
     </g>
     <g id="line2d_38"/>
    </g>
    <g id="xtick_20">
     <g id="line2d_39">
      <path d="M 674.467203 380.97375 
L 674.467203 27.69375 
" clip-path="url(#p43ecfa2c4b)" style="fill: none; stroke-dasharray: 2.96,1.28; stroke-dashoffset: 0; stroke: #b0b0b0; stroke-opacity: 0.7; stroke-width: 0.8"/>
     </g>
     <g id="line2d_40"/>
    </g>
    <g id="xtick_21">
     <g id="line2d_41">
      <path d="M 704.246997 380.97375 
L 704.246997 27.69375 
" clip-path="url(#p43ecfa2c4b)" style="fill: none; stroke-dasharray: 2.96,1.28; stroke-dashoffset: 0; stroke: #b0b0b0; stroke-opacity: 0.7; stroke-width: 0.8"/>
     </g>
     <g id="line2d_42"/>
     <g id="text_5">
      <text style="font-size: 14px; font-family: 'Liberation Sans', sans-serif; text-anchor: middle" x="704.246997" y="394.619375" transform="rotate(-0 704.246997 394.619375)">2020</text>
     </g>
    </g>
    <g id="xtick_22">
     <g id="line2d_43">
      <path d="M 734.02679 380.97375 
L 734.02679 27.69375 
" clip-path="url(#p43ecfa2c4b)" style="fill: none; stroke-dasharray: 2.96,1.28; stroke-dashoffset: 0; stroke: #b0b0b0; stroke-opacity: 0.7; stroke-width: 0.8"/>
     </g>
     <g id="line2d_44"/>
    </g>
    <g id="xtick_23">
     <g id="line2d_45">
      <path d="M 763.806584 380.97375 
L 763.806584 27.69375 
" clip-path="url(#p43ecfa2c4b)" style="fill: none; stroke-dasharray: 2.96,1.28; stroke-dashoffset: 0; stroke: #b0b0b0; stroke-opacity: 0.7; stroke-width: 0.8"/>
     </g>
     <g id="line2d_46"/>
    </g>
    <g id="xtick_24">
     <g id="line2d_47">
      <path d="M 793.586378 380.97375 
L 793.586378 27.69375 
" clip-path="url(#p43ecfa2c4b)" style="fill: none; stroke-dasharray: 2.96,1.28; stroke-dashoffset: 0; stroke: #b0b0b0; stroke-opacity: 0.7; stroke-width: 0.8"/>
     </g>
     <g id="line2d_48"/>
     <g id="text_6">
      <text style="font-size: 14px; font-family: 'Liberation Sans', sans-serif; text-anchor: middle" x="793.586378" y="394.619375" transform="rotate(-0 793.586378 394.619375)">2023</text>
     </g>
    </g>
   </g>
   <g id="matplotlib.axis_2">
    <g id="ytick_1">
     <g id="line2d_49">
      <path d="M 61.30125 333.084319 
L 840.93625 333.084319 
" clip-path="url(#p43ecfa2c4b)" style="fill: none; stroke-dasharray: 2.96,1.28; stroke-dashoffset: 0; stroke: #b0b0b0; stroke-opacity: 0.7; stroke-width: 0.8"/>
     </g>
     <g id="line2d_50"/>
     <g id="text_7">
      <text style="font-size: 14px; font-family: 'Liberation Sans', sans-serif; text-anchor: end" x="57.80125" y="338.157132" transform="rotate(-0 57.80125 338.157132)">-50,000</text>
     </g>
    </g>
    <g id="ytick_2">
     <g id="line2d_51">
      <path d="M 61.30125 265.167513 
L 840.93625 265.167513 
" clip-path="url(#p43ecfa2c4b)" style="fill: none; stroke-dasharray: 2.96,1.28; stroke-dashoffset: 0; stroke: #b0b0b0; stroke-opacity: 0.7; stroke-width: 0.8"/>
     </g>
     <g id="line2d_52"/>
     <g id="text_8">
      <text style="font-size: 14px; font-family: 'Liberation Sans', sans-serif; text-anchor: end" x="57.80125" y="270.240325" transform="rotate(-0 57.80125 270.240325)">0</text>
     </g>
    </g>
    <g id="ytick_3">
     <g id="line2d_53">
      <path d="M 61.30125 197.250706 
L 840.93625 197.250706 
" clip-path="url(#p43ecfa2c4b)" style="fill: none; stroke-dasharray: 2.96,1.28; stroke-dashoffset: 0; stroke: #b0b0b0; stroke-opacity: 0.7; stroke-width: 0.8"/>
     </g>
     <g id="line2d_54"/>
     <g id="text_9">
      <text style="font-size: 14px; font-family: 'Liberation Sans', sans-serif; text-anchor: end" x="57.80125" y="202.323519" transform="rotate(-0 57.80125 202.323519)">50,000</text>
     </g>
    </g>
    <g id="ytick_4">
     <g id="line2d_55">
      <path d="M 61.30125 129.3339 
L 840.93625 129.3339 
" clip-path="url(#p43ecfa2c4b)" style="fill: none; stroke-dasharray: 2.96,1.28; stroke-dashoffset: 0; stroke: #b0b0b0; stroke-opacity: 0.7; stroke-width: 0.8"/>
     </g>
     <g id="line2d_56"/>
     <g id="text_10">
      <text style="font-size: 14px; font-family: 'Liberation Sans', sans-serif; text-anchor: end" x="57.80125" y="134.406712" transform="rotate(-0 57.80125 134.406712)">100,000</text>
     </g>
    </g>
    <g id="ytick_5">
     <g id="line2d_57">
      <path d="M 61.30125 61.417093 
L 840.93625 61.417093 
" clip-path="url(#p43ecfa2c4b)" style="fill: none; stroke-dasharray: 2.96,1.28; stroke-dashoffset: 0; stroke: #b0b0b0; stroke-opacity: 0.7; stroke-width: 0.8"/>
     </g>
     <g id="line2d_58"/>
     <g id="text_11">
      <text style="font-size: 14px; font-family: 'Liberation Sans', sans-serif; text-anchor: end" x="57.80125" y="66.489906" transform="rotate(-0 57.80125 66.489906)">150,000</text>
     </g>
    </g>
   </g>
   <g id="patch_51">
    <path d="M 61.30125 380.97375 
L 61.30125 27.69375 
" style="fill: none; stroke: #c0c0c0; stroke-width: 0.8; stroke-linejoin: miter; stroke-linecap: square"/>
   </g>
   <g id="patch_52">
    <path d="M 840.93625 380.97375 
L 840.93625 27.69375 
" style="fill: none; stroke: #c0c0c0; stroke-width: 0.8; stroke-linejoin: miter; stroke-linecap: square"/>
   </g>
   <g id="patch_53">
    <path d="M 61.30125 380.97375 
L 840.93625 380.97375 
" style="fill: none; stroke: #c0c0c0; stroke-width: 0.8; stroke-linejoin: miter; stroke-linecap: square"/>
   </g>
   <g id="patch_54">
    <path d="M 61.30125 27.69375 
L 840.93625 27.69375 
" style="fill: none; stroke: #c0c0c0; stroke-width: 0.8; stroke-linejoin: miter; stroke-linecap: square"/>
   </g>
   <g id="text_12">
    <text style="font-weight: 700; font-size: 20px; font-family: 'Liberation Sans', sans-serif; text-anchor: middle" x="451.11875" y="21.69375" transform="rotate(-0 451.11875 21.69375)">Swedish migration per year </text>
   </g>
   <g id="legend_1">
    <g id="patch_55">
     <path d="M 697.189062 95.795 
L 831.13625 95.795 
Q 833.93625 95.795 833.93625 92.995 
L 833.93625 37.49375 
Q 833.93625 34.69375 831.13625 34.69375 
L 697.189062 34.69375 
Q 694.389062 34.69375 694.389062 37.49375 
L 694.389062 92.995 
Q 694.389062 95.795 697.189062 95.795 
z
" style="fill: #ffffff; opacity: 0.8; stroke: #c0c0c0; stroke-linejoin: miter"/>
    </g>
    <g id="patch_56">
     <path d="M 708.389062 58.839375 
L 736.389062 58.839375 
L 736.389062 49.039375 
L 708.389062 49.039375 
z
" style="fill: #0072b2"/>
    </g>
    <g id="text_13">
     <text style="font-size: 14px; font-family: 'Liberation Sans', sans-serif; text-anchor: start" x="747.589062" y="58.839375" transform="rotate(-0 747.589062 58.839375)">immigration</text>
    </g>
    <g id="patch_57">
     <path d="M 708.389062 78.89 
L 736.389062 78.89 
L 736.389062 69.09 
L 708.389062 69.09 
z
" style="fill: #d55e00"/>
    </g>
    <g id="text_14">
     <text style="font-size: 14px; font-family: 'Liberation Sans', sans-serif; text-anchor: start" x="747.589062" y="78.89" transform="rotate(-0 747.589062 78.89)">emigration</text>
    </g>
   </g>
   <g id="line2d_59">
    <path d="M 61.30125 265.167513 
L 840.93625 265.167513 
" clip-path="url(#p43ecfa2c4b)" style="fill: none; stroke: #000000; stroke-width: 0.5; stroke-linecap: square"/>
   </g>
  </g>
  <g id="text_15">
   <text style="font-size: 10px; font-family: 'Liberation Sans', sans-serif; text-anchor: start" x="61.17625" y="413.45875" transform="rotate(-0 61.17625 413.45875)">Source: Statistics Sweden SCB - Invandringar och utvandringar efter födelseland, kön, år och tabellinnehåll (BE0101)</text>
  </g>
 </g>
 <defs>
  <clipPath id="p43ecfa2c4b">
   <rect x="61.30125" y="27.69375" width="779.635" height="353.28"/>
  </clipPath>
 </defs>
</svg>
