<?xml version="1.0" encoding="utf-8" standalone="no"?>
<!DOCTYPE svg PUBLIC "-//W3C//DTD SVG 1.1//EN"
  "http://www.w3.org/Graphics/SVG/1.1/DTD/svg11.dtd">
<svg xmlns:xlink="http://www.w3.org/1999/xlink" width="848.09125pt" height="422.73375pt" viewBox="0 0 848.09125 422.73375" xmlns="http://www.w3.org/2000/svg" version="1.1">
 <metadata>
  <rdf:RDF xmlns:dc="http://purl.org/dc/elements/1.1/" xmlns:cc="http://creativecommons.org/ns#" xmlns:rdf="http://www.w3.org/1999/02/22-rdf-syntax-ns#">
   <cc:Work>
    <dc:type rdf:resource="http://purl.org/dc/dcmitype/StillImage"/>
    <dc:date>2025-01-10T10:08:45.121704</dc:date>
    <dc:format>image/svg+xml</dc:format>
    <dc:creator>
     <cc:Agent>
      <dc:title>Matplotlib v3.10.0, https://matplotlib.org/</dc:title>
     </cc:Agent>
    </dc:creator>
   </cc:Work>
  </rdf:RDF>
 </metadata>
 <defs>
  <style type="text/css">*{stroke-linejoin: round; stroke-linecap: butt}</style>
 </defs>
 <g id="figure_1">
  <g id="patch_1">
   <path d="M 0 422.73375 
L 848.09125 422.73375 
L 848.09125 0 
L 0 0 
z
" style="fill: #ffffff"/>
  </g>
  <g id="axes_1">
   <g id="patch_2">
    <path d="M 61.30125 359.37375 
L 840.89125 359.37375 
L 840.89125 27.69375 
L 61.30125 27.69375 
z
" style="fill: #ffffff"/>
   </g>
   <g id="matplotlib.axis_1">
    <g id="xtick_1">
     <g id="line2d_1">
      <path d="M 96.737159 359.37375 
L 96.737159 27.69375 
" clip-path="url(#pdd9112f77e)" style="fill: none; stroke-dasharray: 2.96,1.28; stroke-dashoffset: 0; stroke: #b0b0b0; stroke-opacity: 0.7; stroke-width: 0.8"/>
     </g>
     <g id="line2d_2"/>
     <g id="text_1">
      <!-- 2000 -->
      <g transform="translate(88.287012 392.067979) rotate(-45) scale(0.14 -0.14)">
       <defs>
        <path id="LiberationSans-32" d="M 322 0 
L 322 397 
Q 481 763 711 1042 
Q 941 1322 1194 1548 
Q 1447 1775 1695 1969 
Q 1944 2163 2144 2356 
Q 2344 2550 2467 2762 
Q 2591 2975 2591 3244 
Q 2591 3606 2378 3806 
Q 2166 4006 1788 4006 
Q 1428 4006 1195 3811 
Q 963 3616 922 3263 
L 347 3316 
Q 409 3844 795 4156 
Q 1181 4469 1788 4469 
Q 2453 4469 2811 4155 
Q 3169 3841 3169 3263 
Q 3169 3006 3051 2753 
Q 2934 2500 2703 2247 
Q 2472 1994 1819 1463 
Q 1459 1169 1246 933 
Q 1034 697 941 478 
L 3238 478 
L 3238 0 
L 322 0 
z
" transform="scale(0.015625)"/>
        <path id="LiberationSans-30" d="M 3309 2203 
Q 3309 1100 2920 518 
Q 2531 -63 1772 -63 
Q 1013 -63 631 515 
Q 250 1094 250 2203 
Q 250 3338 620 3903 
Q 991 4469 1791 4469 
Q 2569 4469 2939 3897 
Q 3309 3325 3309 2203 
z
M 2738 2203 
Q 2738 3156 2517 3584 
Q 2297 4013 1791 4013 
Q 1272 4013 1045 3591 
Q 819 3169 819 2203 
Q 819 1266 1048 831 
Q 1278 397 1778 397 
Q 2275 397 2506 840 
Q 2738 1284 2738 2203 
z
" transform="scale(0.015625)"/>
       </defs>
       <use xlink:href="#LiberationSans-32"/>
       <use xlink:href="#LiberationSans-30" transform="translate(55.615234 0)"/>
       <use xlink:href="#LiberationSans-30" transform="translate(111.230469 0)"/>
       <use xlink:href="#LiberationSans-30" transform="translate(166.845703 0)"/>
      </g>
     </g>
    </g>
    <g id="xtick_2">
     <g id="line2d_3">
      <path d="M 127.550993 359.37375 
L 127.550993 27.69375 
" clip-path="url(#pdd9112f77e)" style="fill: none; stroke-dasharray: 2.96,1.28; stroke-dashoffset: 0; stroke: #b0b0b0; stroke-opacity: 0.7; stroke-width: 0.8"/>
     </g>
     <g id="line2d_4"/>
     <g id="text_2">
      <!-- 2001 -->
      <g transform="translate(119.100846 392.067979) rotate(-45) scale(0.14 -0.14)">
       <defs>
        <path id="LiberationSans-31" d="M 488 0 
L 488 478 
L 1609 478 
L 1609 3866 
L 616 3156 
L 616 3688 
L 1656 4403 
L 2175 4403 
L 2175 478 
L 3247 478 
L 3247 0 
L 488 0 
z
" transform="scale(0.015625)"/>
       </defs>
       <use xlink:href="#LiberationSans-32"/>
       <use xlink:href="#LiberationSans-30" transform="translate(55.615234 0)"/>
       <use xlink:href="#LiberationSans-30" transform="translate(111.230469 0)"/>
       <use xlink:href="#LiberationSans-31" transform="translate(166.845703 0)"/>
      </g>
     </g>
    </g>
    <g id="xtick_3">
     <g id="line2d_5">
      <path d="M 158.364827 359.37375 
L 158.364827 27.69375 
" clip-path="url(#pdd9112f77e)" style="fill: none; stroke-dasharray: 2.96,1.28; stroke-dashoffset: 0; stroke: #b0b0b0; stroke-opacity: 0.7; stroke-width: 0.8"/>
     </g>
     <g id="line2d_6"/>
     <g id="text_3">
      <!-- 2002 -->
      <g transform="translate(149.91468 392.067979) rotate(-45) scale(0.14 -0.14)">
       <use xlink:href="#LiberationSans-32"/>
       <use xlink:href="#LiberationSans-30" transform="translate(55.615234 0)"/>
       <use xlink:href="#LiberationSans-30" transform="translate(111.230469 0)"/>
       <use xlink:href="#LiberationSans-32" transform="translate(166.845703 0)"/>
      </g>
     </g>
    </g>
    <g id="xtick_4">
     <g id="line2d_7">
      <path d="M 189.178661 359.37375 
L 189.178661 27.69375 
" clip-path="url(#pdd9112f77e)" style="fill: none; stroke-dasharray: 2.96,1.28; stroke-dashoffset: 0; stroke: #b0b0b0; stroke-opacity: 0.7; stroke-width: 0.8"/>
     </g>
     <g id="line2d_8"/>
     <g id="text_4">
      <!-- 2003 -->
      <g transform="translate(180.728514 392.067979) rotate(-45) scale(0.14 -0.14)">
       <defs>
        <path id="LiberationSans-33" d="M 3278 1216 
Q 3278 606 2890 271 
Q 2503 -63 1784 -63 
Q 1116 -63 717 239 
Q 319 541 244 1131 
L 825 1184 
Q 938 403 1784 403 
Q 2209 403 2451 612 
Q 2694 822 2694 1234 
Q 2694 1594 2417 1795 
Q 2141 1997 1619 1997 
L 1300 1997 
L 1300 2484 
L 1606 2484 
Q 2069 2484 2323 2686 
Q 2578 2888 2578 3244 
Q 2578 3597 2370 3801 
Q 2163 4006 1753 4006 
Q 1381 4006 1151 3815 
Q 922 3625 884 3278 
L 319 3322 
Q 381 3863 767 4166 
Q 1153 4469 1759 4469 
Q 2422 4469 2789 4161 
Q 3156 3853 3156 3303 
Q 3156 2881 2920 2617 
Q 2684 2353 2234 2259 
L 2234 2247 
Q 2728 2194 3003 1916 
Q 3278 1638 3278 1216 
z
" transform="scale(0.015625)"/>
       </defs>
       <use xlink:href="#LiberationSans-32"/>
       <use xlink:href="#LiberationSans-30" transform="translate(55.615234 0)"/>
       <use xlink:href="#LiberationSans-30" transform="translate(111.230469 0)"/>
       <use xlink:href="#LiberationSans-33" transform="translate(166.845703 0)"/>
      </g>
     </g>
    </g>
    <g id="xtick_5">
     <g id="line2d_9">
      <path d="M 219.992495 359.37375 
L 219.992495 27.69375 
" clip-path="url(#pdd9112f77e)" style="fill: none; stroke-dasharray: 2.96,1.28; stroke-dashoffset: 0; stroke: #b0b0b0; stroke-opacity: 0.7; stroke-width: 0.8"/>
     </g>
     <g id="line2d_10"/>
     <g id="text_5">
      <!-- 2004 -->
      <g transform="translate(211.542348 392.067979) rotate(-45) scale(0.14 -0.14)">
       <defs>
        <path id="LiberationSans-34" d="M 2753 997 
L 2753 0 
L 2222 0 
L 2222 997 
L 147 997 
L 147 1434 
L 2163 4403 
L 2753 4403 
L 2753 1441 
L 3372 1441 
L 3372 997 
L 2753 997 
z
M 2222 3769 
Q 2216 3750 2134 3603 
Q 2053 3456 2013 3397 
L 884 1734 
L 716 1503 
L 666 1441 
L 2222 1441 
L 2222 3769 
z
" transform="scale(0.015625)"/>
       </defs>
       <use xlink:href="#LiberationSans-32"/>
       <use xlink:href="#LiberationSans-30" transform="translate(55.615234 0)"/>
       <use xlink:href="#LiberationSans-30" transform="translate(111.230469 0)"/>
       <use xlink:href="#LiberationSans-34" transform="translate(166.845703 0)"/>
      </g>
     </g>
    </g>
    <g id="xtick_6">
     <g id="line2d_11">
      <path d="M 250.806329 359.37375 
L 250.806329 27.69375 
" clip-path="url(#pdd9112f77e)" style="fill: none; stroke-dasharray: 2.96,1.28; stroke-dashoffset: 0; stroke: #b0b0b0; stroke-opacity: 0.7; stroke-width: 0.8"/>
     </g>
     <g id="line2d_12"/>
     <g id="text_6">
      <!-- 2005 -->
      <g transform="translate(242.356182 392.067979) rotate(-45) scale(0.14 -0.14)">
       <defs>
        <path id="LiberationSans-35" d="M 3291 1434 
Q 3291 738 2877 337 
Q 2463 -63 1728 -63 
Q 1113 -63 734 206 
Q 356 475 256 984 
L 825 1050 
Q 1003 397 1741 397 
Q 2194 397 2450 670 
Q 2706 944 2706 1422 
Q 2706 1838 2448 2094 
Q 2191 2350 1753 2350 
Q 1525 2350 1328 2278 
Q 1131 2206 934 2034 
L 384 2034 
L 531 4403 
L 3034 4403 
L 3034 3925 
L 1044 3925 
L 959 2528 
Q 1325 2809 1869 2809 
Q 2519 2809 2905 2428 
Q 3291 2047 3291 1434 
z
" transform="scale(0.015625)"/>
       </defs>
       <use xlink:href="#LiberationSans-32"/>
       <use xlink:href="#LiberationSans-30" transform="translate(55.615234 0)"/>
       <use xlink:href="#LiberationSans-30" transform="translate(111.230469 0)"/>
       <use xlink:href="#LiberationSans-35" transform="translate(166.845703 0)"/>
      </g>
     </g>
    </g>
    <g id="xtick_7">
     <g id="line2d_13">
      <path d="M 281.620163 359.37375 
L 281.620163 27.69375 
" clip-path="url(#pdd9112f77e)" style="fill: none; stroke-dasharray: 2.96,1.28; stroke-dashoffset: 0; stroke: #b0b0b0; stroke-opacity: 0.7; stroke-width: 0.8"/>
     </g>
     <g id="line2d_14"/>
     <g id="text_7">
      <!-- 2006 -->
      <g transform="translate(273.170016 392.067979) rotate(-45) scale(0.14 -0.14)">
       <defs>
        <path id="LiberationSans-36" d="M 3278 1441 
Q 3278 744 2900 340 
Q 2522 -63 1856 -63 
Q 1113 -63 719 490 
Q 325 1044 325 2100 
Q 325 3244 734 3856 
Q 1144 4469 1900 4469 
Q 2897 4469 3156 3572 
L 2619 3475 
Q 2453 4013 1894 4013 
Q 1413 4013 1148 3564 
Q 884 3116 884 2266 
Q 1038 2550 1316 2698 
Q 1594 2847 1953 2847 
Q 2563 2847 2920 2465 
Q 3278 2084 3278 1441 
z
M 2706 1416 
Q 2706 1894 2472 2153 
Q 2238 2413 1819 2413 
Q 1425 2413 1183 2183 
Q 941 1953 941 1550 
Q 941 1041 1192 716 
Q 1444 391 1838 391 
Q 2244 391 2475 664 
Q 2706 938 2706 1416 
z
" transform="scale(0.015625)"/>
       </defs>
       <use xlink:href="#LiberationSans-32"/>
       <use xlink:href="#LiberationSans-30" transform="translate(55.615234 0)"/>
       <use xlink:href="#LiberationSans-30" transform="translate(111.230469 0)"/>
       <use xlink:href="#LiberationSans-36" transform="translate(166.845703 0)"/>
      </g>
     </g>
    </g>
    <g id="xtick_8">
     <g id="line2d_15">
      <path d="M 312.433997 359.37375 
L 312.433997 27.69375 
" clip-path="url(#pdd9112f77e)" style="fill: none; stroke-dasharray: 2.96,1.28; stroke-dashoffset: 0; stroke: #b0b0b0; stroke-opacity: 0.7; stroke-width: 0.8"/>
     </g>
     <g id="line2d_16"/>
     <g id="text_8">
      <!-- 2007 -->
      <g transform="translate(303.98385 392.067979) rotate(-45) scale(0.14 -0.14)">
       <defs>
        <path id="LiberationSans-37" d="M 3238 3947 
Q 2563 2916 2284 2331 
Q 2006 1747 1867 1178 
Q 1728 609 1728 0 
L 1141 0 
Q 1141 844 1498 1776 
Q 1856 2709 2694 3925 
L 328 3925 
L 328 4403 
L 3238 4403 
L 3238 3947 
z
" transform="scale(0.015625)"/>
       </defs>
       <use xlink:href="#LiberationSans-32"/>
       <use xlink:href="#LiberationSans-30" transform="translate(55.615234 0)"/>
       <use xlink:href="#LiberationSans-30" transform="translate(111.230469 0)"/>
       <use xlink:href="#LiberationSans-37" transform="translate(166.845703 0)"/>
      </g>
     </g>
    </g>
    <g id="xtick_9">
     <g id="line2d_17">
      <path d="M 343.247831 359.37375 
L 343.247831 27.69375 
" clip-path="url(#pdd9112f77e)" style="fill: none; stroke-dasharray: 2.96,1.28; stroke-dashoffset: 0; stroke: #b0b0b0; stroke-opacity: 0.7; stroke-width: 0.8"/>
     </g>
     <g id="line2d_18"/>
     <g id="text_9">
      <!-- 2008 -->
      <g transform="translate(334.797684 392.067979) rotate(-45) scale(0.14 -0.14)">
       <defs>
        <path id="LiberationSans-38" d="M 3281 1228 
Q 3281 619 2893 278 
Q 2506 -63 1781 -63 
Q 1075 -63 676 271 
Q 278 606 278 1222 
Q 278 1653 525 1947 
Q 772 2241 1156 2303 
L 1156 2316 
Q 797 2400 589 2681 
Q 381 2963 381 3341 
Q 381 3844 757 4156 
Q 1134 4469 1769 4469 
Q 2419 4469 2795 4162 
Q 3172 3856 3172 3334 
Q 3172 2956 2962 2675 
Q 2753 2394 2391 2322 
L 2391 2309 
Q 2813 2241 3047 1952 
Q 3281 1663 3281 1228 
z
M 2588 3303 
Q 2588 4050 1769 4050 
Q 1372 4050 1164 3862 
Q 956 3675 956 3303 
Q 956 2925 1170 2726 
Q 1384 2528 1775 2528 
Q 2172 2528 2380 2711 
Q 2588 2894 2588 3303 
z
M 2697 1281 
Q 2697 1691 2453 1898 
Q 2209 2106 1769 2106 
Q 1341 2106 1100 1882 
Q 859 1659 859 1269 
Q 859 359 1788 359 
Q 2247 359 2472 579 
Q 2697 800 2697 1281 
z
" transform="scale(0.015625)"/>
       </defs>
       <use xlink:href="#LiberationSans-32"/>
       <use xlink:href="#LiberationSans-30" transform="translate(55.615234 0)"/>
       <use xlink:href="#LiberationSans-30" transform="translate(111.230469 0)"/>
       <use xlink:href="#LiberationSans-38" transform="translate(166.845703 0)"/>
      </g>
     </g>
    </g>
    <g id="xtick_10">
     <g id="line2d_19">
      <path d="M 374.061665 359.37375 
L 374.061665 27.69375 
" clip-path="url(#pdd9112f77e)" style="fill: none; stroke-dasharray: 2.96,1.28; stroke-dashoffset: 0; stroke: #b0b0b0; stroke-opacity: 0.7; stroke-width: 0.8"/>
     </g>
     <g id="line2d_20"/>
     <g id="text_10">
      <!-- 2009 -->
      <g transform="translate(365.611518 392.067979) rotate(-45) scale(0.14 -0.14)">
       <defs>
        <path id="LiberationSans-39" d="M 3256 2291 
Q 3256 1156 2842 546 
Q 2428 -63 1663 -63 
Q 1147 -63 836 154 
Q 525 372 391 856 
L 928 941 
Q 1097 391 1672 391 
Q 2156 391 2422 841 
Q 2688 1291 2700 2125 
Q 2575 1844 2272 1673 
Q 1969 1503 1606 1503 
Q 1013 1503 656 1909 
Q 300 2316 300 2988 
Q 300 3678 687 4073 
Q 1075 4469 1766 4469 
Q 2500 4469 2878 3925 
Q 3256 3381 3256 2291 
z
M 2644 2834 
Q 2644 3366 2400 3689 
Q 2156 4013 1747 4013 
Q 1341 4013 1106 3736 
Q 872 3459 872 2988 
Q 872 2506 1106 2226 
Q 1341 1947 1741 1947 
Q 1984 1947 2193 2058 
Q 2403 2169 2523 2372 
Q 2644 2575 2644 2834 
z
" transform="scale(0.015625)"/>
       </defs>
       <use xlink:href="#LiberationSans-32"/>
       <use xlink:href="#LiberationSans-30" transform="translate(55.615234 0)"/>
       <use xlink:href="#LiberationSans-30" transform="translate(111.230469 0)"/>
       <use xlink:href="#LiberationSans-39" transform="translate(166.845703 0)"/>
      </g>
     </g>
    </g>
    <g id="xtick_11">
     <g id="line2d_21">
      <path d="M 404.875499 359.37375 
L 404.875499 27.69375 
" clip-path="url(#pdd9112f77e)" style="fill: none; stroke-dasharray: 2.96,1.28; stroke-dashoffset: 0; stroke: #b0b0b0; stroke-opacity: 0.7; stroke-width: 0.8"/>
     </g>
     <g id="line2d_22"/>
     <g id="text_11">
      <!-- 2010 -->
      <g transform="translate(396.425352 392.067979) rotate(-45) scale(0.14 -0.14)">
       <use xlink:href="#LiberationSans-32"/>
       <use xlink:href="#LiberationSans-30" transform="translate(55.615234 0)"/>
       <use xlink:href="#LiberationSans-31" transform="translate(111.230469 0)"/>
       <use xlink:href="#LiberationSans-30" transform="translate(166.845703 0)"/>
      </g>
     </g>
    </g>
    <g id="xtick_12">
     <g id="line2d_23">
      <path d="M 435.689333 359.37375 
L 435.689333 27.69375 
" clip-path="url(#pdd9112f77e)" style="fill: none; stroke-dasharray: 2.96,1.28; stroke-dashoffset: 0; stroke: #b0b0b0; stroke-opacity: 0.7; stroke-width: 0.8"/>
     </g>
     <g id="line2d_24"/>
     <g id="text_12">
      <!-- 2011 -->
      <g transform="translate(427.60423 391.337892) rotate(-45) scale(0.14 -0.14)">
       <use xlink:href="#LiberationSans-32"/>
       <use xlink:href="#LiberationSans-30" transform="translate(55.615234 0)"/>
       <use xlink:href="#LiberationSans-31" transform="translate(111.230469 0)"/>
       <use xlink:href="#LiberationSans-31" transform="translate(159.470703 0)"/>
      </g>
     </g>
    </g>
    <g id="xtick_13">
     <g id="line2d_25">
      <path d="M 466.503167 359.37375 
L 466.503167 27.69375 
" clip-path="url(#pdd9112f77e)" style="fill: none; stroke-dasharray: 2.96,1.28; stroke-dashoffset: 0; stroke: #b0b0b0; stroke-opacity: 0.7; stroke-width: 0.8"/>
     </g>
     <g id="line2d_26"/>
     <g id="text_13">
      <!-- 2012 -->
      <g transform="translate(458.05302 392.067979) rotate(-45) scale(0.14 -0.14)">
       <use xlink:href="#LiberationSans-32"/>
       <use xlink:href="#LiberationSans-30" transform="translate(55.615234 0)"/>
       <use xlink:href="#LiberationSans-31" transform="translate(111.230469 0)"/>
       <use xlink:href="#LiberationSans-32" transform="translate(166.845703 0)"/>
      </g>
     </g>
    </g>
    <g id="xtick_14">
     <g id="line2d_27">
      <path d="M 497.317001 359.37375 
L 497.317001 27.69375 
" clip-path="url(#pdd9112f77e)" style="fill: none; stroke-dasharray: 2.96,1.28; stroke-dashoffset: 0; stroke: #b0b0b0; stroke-opacity: 0.7; stroke-width: 0.8"/>
     </g>
     <g id="line2d_28"/>
     <g id="text_14">
      <!-- 2013 -->
      <g transform="translate(488.866854 392.067979) rotate(-45) scale(0.14 -0.14)">
       <use xlink:href="#LiberationSans-32"/>
       <use xlink:href="#LiberationSans-30" transform="translate(55.615234 0)"/>
       <use xlink:href="#LiberationSans-31" transform="translate(111.230469 0)"/>
       <use xlink:href="#LiberationSans-33" transform="translate(166.845703 0)"/>
      </g>
     </g>
    </g>
    <g id="xtick_15">
     <g id="line2d_29">
      <path d="M 528.130835 359.37375 
L 528.130835 27.69375 
" clip-path="url(#pdd9112f77e)" style="fill: none; stroke-dasharray: 2.96,1.28; stroke-dashoffset: 0; stroke: #b0b0b0; stroke-opacity: 0.7; stroke-width: 0.8"/>
     </g>
     <g id="line2d_30"/>
     <g id="text_15">
      <!-- 2014 -->
      <g transform="translate(519.680688 392.067979) rotate(-45) scale(0.14 -0.14)">
       <use xlink:href="#LiberationSans-32"/>
       <use xlink:href="#LiberationSans-30" transform="translate(55.615234 0)"/>
       <use xlink:href="#LiberationSans-31" transform="translate(111.230469 0)"/>
       <use xlink:href="#LiberationSans-34" transform="translate(166.845703 0)"/>
      </g>
     </g>
    </g>
    <g id="xtick_16">
     <g id="line2d_31">
      <path d="M 558.944669 359.37375 
L 558.944669 27.69375 
" clip-path="url(#pdd9112f77e)" style="fill: none; stroke-dasharray: 2.96,1.28; stroke-dashoffset: 0; stroke: #b0b0b0; stroke-opacity: 0.7; stroke-width: 0.8"/>
     </g>
     <g id="line2d_32"/>
     <g id="text_16">
      <!-- 2015 -->
      <g transform="translate(550.494522 392.067979) rotate(-45) scale(0.14 -0.14)">
       <use xlink:href="#LiberationSans-32"/>
       <use xlink:href="#LiberationSans-30" transform="translate(55.615234 0)"/>
       <use xlink:href="#LiberationSans-31" transform="translate(111.230469 0)"/>
       <use xlink:href="#LiberationSans-35" transform="translate(166.845703 0)"/>
      </g>
     </g>
    </g>
    <g id="xtick_17">
     <g id="line2d_33">
      <path d="M 589.758503 359.37375 
L 589.758503 27.69375 
" clip-path="url(#pdd9112f77e)" style="fill: none; stroke-dasharray: 2.96,1.28; stroke-dashoffset: 0; stroke: #b0b0b0; stroke-opacity: 0.7; stroke-width: 0.8"/>
     </g>
     <g id="line2d_34"/>
     <g id="text_17">
      <!-- 2016 -->
      <g transform="translate(581.308356 392.067979) rotate(-45) scale(0.14 -0.14)">
       <use xlink:href="#LiberationSans-32"/>
       <use xlink:href="#LiberationSans-30" transform="translate(55.615234 0)"/>
       <use xlink:href="#LiberationSans-31" transform="translate(111.230469 0)"/>
       <use xlink:href="#LiberationSans-36" transform="translate(166.845703 0)"/>
      </g>
     </g>
    </g>
    <g id="xtick_18">
     <g id="line2d_35">
      <path d="M 620.572337 359.37375 
L 620.572337 27.69375 
" clip-path="url(#pdd9112f77e)" style="fill: none; stroke-dasharray: 2.96,1.28; stroke-dashoffset: 0; stroke: #b0b0b0; stroke-opacity: 0.7; stroke-width: 0.8"/>
     </g>
     <g id="line2d_36"/>
     <g id="text_18">
      <!-- 2017 -->
      <g transform="translate(612.12219 392.067979) rotate(-45) scale(0.14 -0.14)">
       <use xlink:href="#LiberationSans-32"/>
       <use xlink:href="#LiberationSans-30" transform="translate(55.615234 0)"/>
       <use xlink:href="#LiberationSans-31" transform="translate(111.230469 0)"/>
       <use xlink:href="#LiberationSans-37" transform="translate(166.845703 0)"/>
      </g>
     </g>
    </g>
    <g id="xtick_19">
     <g id="line2d_37">
      <path d="M 651.386171 359.37375 
L 651.386171 27.69375 
" clip-path="url(#pdd9112f77e)" style="fill: none; stroke-dasharray: 2.96,1.28; stroke-dashoffset: 0; stroke: #b0b0b0; stroke-opacity: 0.7; stroke-width: 0.8"/>
     </g>
     <g id="line2d_38"/>
     <g id="text_19">
      <!-- 2018 -->
      <g transform="translate(642.936024 392.067979) rotate(-45) scale(0.14 -0.14)">
       <use xlink:href="#LiberationSans-32"/>
       <use xlink:href="#LiberationSans-30" transform="translate(55.615234 0)"/>
       <use xlink:href="#LiberationSans-31" transform="translate(111.230469 0)"/>
       <use xlink:href="#LiberationSans-38" transform="translate(166.845703 0)"/>
      </g>
     </g>
    </g>
    <g id="xtick_20">
     <g id="line2d_39">
      <path d="M 682.200005 359.37375 
L 682.200005 27.69375 
" clip-path="url(#pdd9112f77e)" style="fill: none; stroke-dasharray: 2.96,1.28; stroke-dashoffset: 0; stroke: #b0b0b0; stroke-opacity: 0.7; stroke-width: 0.8"/>
     </g>
     <g id="line2d_40"/>
     <g id="text_20">
      <!-- 2019 -->
      <g transform="translate(673.749858 392.067979) rotate(-45) scale(0.14 -0.14)">
       <use xlink:href="#LiberationSans-32"/>
       <use xlink:href="#LiberationSans-30" transform="translate(55.615234 0)"/>
       <use xlink:href="#LiberationSans-31" transform="translate(111.230469 0)"/>
       <use xlink:href="#LiberationSans-39" transform="translate(166.845703 0)"/>
      </g>
     </g>
    </g>
    <g id="xtick_21">
     <g id="line2d_41">
      <path d="M 713.013839 359.37375 
L 713.013839 27.69375 
" clip-path="url(#pdd9112f77e)" style="fill: none; stroke-dasharray: 2.96,1.28; stroke-dashoffset: 0; stroke: #b0b0b0; stroke-opacity: 0.7; stroke-width: 0.8"/>
     </g>
     <g id="line2d_42"/>
     <g id="text_21">
      <!-- 2020 -->
      <g transform="translate(704.563692 392.067979) rotate(-45) scale(0.14 -0.14)">
       <use xlink:href="#LiberationSans-32"/>
       <use xlink:href="#LiberationSans-30" transform="translate(55.615234 0)"/>
       <use xlink:href="#LiberationSans-32" transform="translate(111.230469 0)"/>
       <use xlink:href="#LiberationSans-30" transform="translate(166.845703 0)"/>
      </g>
     </g>
    </g>
    <g id="xtick_22">
     <g id="line2d_43">
      <path d="M 743.827673 359.37375 
L 743.827673 27.69375 
" clip-path="url(#pdd9112f77e)" style="fill: none; stroke-dasharray: 2.96,1.28; stroke-dashoffset: 0; stroke: #b0b0b0; stroke-opacity: 0.7; stroke-width: 0.8"/>
     </g>
     <g id="line2d_44"/>
     <g id="text_22">
      <!-- 2021 -->
      <g transform="translate(735.377526 392.067979) rotate(-45) scale(0.14 -0.14)">
       <use xlink:href="#LiberationSans-32"/>
       <use xlink:href="#LiberationSans-30" transform="translate(55.615234 0)"/>
       <use xlink:href="#LiberationSans-32" transform="translate(111.230469 0)"/>
       <use xlink:href="#LiberationSans-31" transform="translate(166.845703 0)"/>
      </g>
     </g>
    </g>
    <g id="xtick_23">
     <g id="line2d_45">
      <path d="M 774.641507 359.37375 
L 774.641507 27.69375 
" clip-path="url(#pdd9112f77e)" style="fill: none; stroke-dasharray: 2.96,1.28; stroke-dashoffset: 0; stroke: #b0b0b0; stroke-opacity: 0.7; stroke-width: 0.8"/>
     </g>
     <g id="line2d_46"/>
     <g id="text_23">
      <!-- 2022 -->
      <g transform="translate(766.19136 392.067979) rotate(-45) scale(0.14 -0.14)">
       <use xlink:href="#LiberationSans-32"/>
       <use xlink:href="#LiberationSans-30" transform="translate(55.615234 0)"/>
       <use xlink:href="#LiberationSans-32" transform="translate(111.230469 0)"/>
       <use xlink:href="#LiberationSans-32" transform="translate(166.845703 0)"/>
      </g>
     </g>
    </g>
    <g id="xtick_24">
     <g id="line2d_47">
      <path d="M 805.455341 359.37375 
L 805.455341 27.69375 
" clip-path="url(#pdd9112f77e)" style="fill: none; stroke-dasharray: 2.96,1.28; stroke-dashoffset: 0; stroke: #b0b0b0; stroke-opacity: 0.7; stroke-width: 0.8"/>
     </g>
     <g id="line2d_48"/>
     <g id="text_24">
      <!-- 2023 -->
      <g transform="translate(797.005194 392.067979) rotate(-45) scale(0.14 -0.14)">
       <use xlink:href="#LiberationSans-32"/>
       <use xlink:href="#LiberationSans-30" transform="translate(55.615234 0)"/>
       <use xlink:href="#LiberationSans-32" transform="translate(111.230469 0)"/>
       <use xlink:href="#LiberationSans-33" transform="translate(166.845703 0)"/>
      </g>
     </g>
    </g>
   </g>
   <g id="matplotlib.axis_2">
    <g id="ytick_1">
     <g id="line2d_49">
      <path d="M 61.30125 359.37375 
L 840.89125 359.37375 
" clip-path="url(#pdd9112f77e)" style="fill: none; stroke-dasharray: 2.96,1.28; stroke-dashoffset: 0; stroke: #b0b0b0; stroke-opacity: 0.7; stroke-width: 0.8"/>
     </g>
     <g id="line2d_50"/>
     <g id="text_25">
      <!-- 0 -->
      <g transform="translate(50.015938 364.446562) scale(0.14 -0.14)">
       <use xlink:href="#LiberationSans-30"/>
      </g>
     </g>
    </g>
    <g id="ytick_2">
     <g id="line2d_51">
      <path d="M 61.30125 320.248593 
L 840.89125 320.248593 
" clip-path="url(#pdd9112f77e)" style="fill: none; stroke-dasharray: 2.96,1.28; stroke-dashoffset: 0; stroke: #b0b0b0; stroke-opacity: 0.7; stroke-width: 0.8"/>
     </g>
     <g id="line2d_52"/>
     <g id="text_26">
      <!-- 20,000 -->
      <g transform="translate(14.985313 325.321405) scale(0.14 -0.14)">
       <defs>
        <path id="LiberationSans-2c" d="M 1203 684 
L 1203 159 
Q 1203 -172 1143 -394 
Q 1084 -616 959 -819 
L 575 -819 
Q 869 -394 869 0 
L 594 0 
L 594 684 
L 1203 684 
z
" transform="scale(0.015625)"/>
       </defs>
       <use xlink:href="#LiberationSans-32"/>
       <use xlink:href="#LiberationSans-30" transform="translate(55.615234 0)"/>
       <use xlink:href="#LiberationSans-2c" transform="translate(111.230469 0)"/>
       <use xlink:href="#LiberationSans-30" transform="translate(139.013672 0)"/>
       <use xlink:href="#LiberationSans-30" transform="translate(194.628906 0)"/>
       <use xlink:href="#LiberationSans-30" transform="translate(250.244141 0)"/>
      </g>
     </g>
    </g>
    <g id="ytick_3">
     <g id="line2d_53">
      <path d="M 61.30125 281.123435 
L 840.89125 281.123435 
" clip-path="url(#pdd9112f77e)" style="fill: none; stroke-dasharray: 2.96,1.28; stroke-dashoffset: 0; stroke: #b0b0b0; stroke-opacity: 0.7; stroke-width: 0.8"/>
     </g>
     <g id="line2d_54"/>
     <g id="text_27">
      <!-- 40,000 -->
      <g transform="translate(14.985313 286.196248) scale(0.14 -0.14)">
       <use xlink:href="#LiberationSans-34"/>
       <use xlink:href="#LiberationSans-30" transform="translate(55.615234 0)"/>
       <use xlink:href="#LiberationSans-2c" transform="translate(111.230469 0)"/>
       <use xlink:href="#LiberationSans-30" transform="translate(139.013672 0)"/>
       <use xlink:href="#LiberationSans-30" transform="translate(194.628906 0)"/>
       <use xlink:href="#LiberationSans-30" transform="translate(250.244141 0)"/>
      </g>
     </g>
    </g>
    <g id="ytick_4">
     <g id="line2d_55">
      <path d="M 61.30125 241.998278 
L 840.89125 241.998278 
" clip-path="url(#pdd9112f77e)" style="fill: none; stroke-dasharray: 2.96,1.28; stroke-dashoffset: 0; stroke: #b0b0b0; stroke-opacity: 0.7; stroke-width: 0.8"/>
     </g>
     <g id="line2d_56"/>
     <g id="text_28">
      <!-- 60,000 -->
      <g transform="translate(14.985313 247.071091) scale(0.14 -0.14)">
       <use xlink:href="#LiberationSans-36"/>
       <use xlink:href="#LiberationSans-30" transform="translate(55.615234 0)"/>
       <use xlink:href="#LiberationSans-2c" transform="translate(111.230469 0)"/>
       <use xlink:href="#LiberationSans-30" transform="translate(139.013672 0)"/>
       <use xlink:href="#LiberationSans-30" transform="translate(194.628906 0)"/>
       <use xlink:href="#LiberationSans-30" transform="translate(250.244141 0)"/>
      </g>
     </g>
    </g>
    <g id="ytick_5">
     <g id="line2d_57">
      <path d="M 61.30125 202.873121 
L 840.89125 202.873121 
" clip-path="url(#pdd9112f77e)" style="fill: none; stroke-dasharray: 2.96,1.28; stroke-dashoffset: 0; stroke: #b0b0b0; stroke-opacity: 0.7; stroke-width: 0.8"/>
     </g>
     <g id="line2d_58"/>
     <g id="text_29">
      <!-- 80,000 -->
      <g transform="translate(14.985313 207.945933) scale(0.14 -0.14)">
       <use xlink:href="#LiberationSans-38"/>
       <use xlink:href="#LiberationSans-30" transform="translate(55.615234 0)"/>
       <use xlink:href="#LiberationSans-2c" transform="translate(111.230469 0)"/>
       <use xlink:href="#LiberationSans-30" transform="translate(139.013672 0)"/>
       <use xlink:href="#LiberationSans-30" transform="translate(194.628906 0)"/>
       <use xlink:href="#LiberationSans-30" transform="translate(250.244141 0)"/>
      </g>
     </g>
    </g>
    <g id="ytick_6">
     <g id="line2d_59">
      <path d="M 61.30125 163.747963 
L 840.89125 163.747963 
" clip-path="url(#pdd9112f77e)" style="fill: none; stroke-dasharray: 2.96,1.28; stroke-dashoffset: 0; stroke: #b0b0b0; stroke-opacity: 0.7; stroke-width: 0.8"/>
     </g>
     <g id="line2d_60"/>
     <g id="text_30">
      <!-- 100,000 -->
      <g transform="translate(7.2 168.820776) scale(0.14 -0.14)">
       <use xlink:href="#LiberationSans-31"/>
       <use xlink:href="#LiberationSans-30" transform="translate(55.615234 0)"/>
       <use xlink:href="#LiberationSans-30" transform="translate(111.230469 0)"/>
       <use xlink:href="#LiberationSans-2c" transform="translate(166.845703 0)"/>
       <use xlink:href="#LiberationSans-30" transform="translate(194.628906 0)"/>
       <use xlink:href="#LiberationSans-30" transform="translate(250.244141 0)"/>
       <use xlink:href="#LiberationSans-30" transform="translate(305.859375 0)"/>
      </g>
     </g>
    </g>
    <g id="ytick_7">
     <g id="line2d_61">
      <path d="M 61.30125 124.622806 
L 840.89125 124.622806 
" clip-path="url(#pdd9112f77e)" style="fill: none; stroke-dasharray: 2.96,1.28; stroke-dashoffset: 0; stroke: #b0b0b0; stroke-opacity: 0.7; stroke-width: 0.8"/>
     </g>
     <g id="line2d_62"/>
     <g id="text_31">
      <!-- 120,000 -->
      <g transform="translate(7.2 129.695619) scale(0.14 -0.14)">
       <use xlink:href="#LiberationSans-31"/>
       <use xlink:href="#LiberationSans-32" transform="translate(55.615234 0)"/>
       <use xlink:href="#LiberationSans-30" transform="translate(111.230469 0)"/>
       <use xlink:href="#LiberationSans-2c" transform="translate(166.845703 0)"/>
       <use xlink:href="#LiberationSans-30" transform="translate(194.628906 0)"/>
       <use xlink:href="#LiberationSans-30" transform="translate(250.244141 0)"/>
       <use xlink:href="#LiberationSans-30" transform="translate(305.859375 0)"/>
      </g>
     </g>
    </g>
    <g id="ytick_8">
     <g id="line2d_63">
      <path d="M 61.30125 85.497649 
L 840.89125 85.497649 
" clip-path="url(#pdd9112f77e)" style="fill: none; stroke-dasharray: 2.96,1.28; stroke-dashoffset: 0; stroke: #b0b0b0; stroke-opacity: 0.7; stroke-width: 0.8"/>
     </g>
     <g id="line2d_64"/>
     <g id="text_32">
      <!-- 140,000 -->
      <g transform="translate(7.2 90.570461) scale(0.14 -0.14)">
       <use xlink:href="#LiberationSans-31"/>
       <use xlink:href="#LiberationSans-34" transform="translate(55.615234 0)"/>
       <use xlink:href="#LiberationSans-30" transform="translate(111.230469 0)"/>
       <use xlink:href="#LiberationSans-2c" transform="translate(166.845703 0)"/>
       <use xlink:href="#LiberationSans-30" transform="translate(194.628906 0)"/>
       <use xlink:href="#LiberationSans-30" transform="translate(250.244141 0)"/>
       <use xlink:href="#LiberationSans-30" transform="translate(305.859375 0)"/>
      </g>
     </g>
    </g>
    <g id="ytick_9">
     <g id="line2d_65">
      <path d="M 61.30125 46.372491 
L 840.89125 46.372491 
" clip-path="url(#pdd9112f77e)" style="fill: none; stroke-dasharray: 2.96,1.28; stroke-dashoffset: 0; stroke: #b0b0b0; stroke-opacity: 0.7; stroke-width: 0.8"/>
     </g>
     <g id="line2d_66"/>
     <g id="text_33">
      <!-- 160,000 -->
      <g transform="translate(7.2 51.445304) scale(0.14 -0.14)">
       <use xlink:href="#LiberationSans-31"/>
       <use xlink:href="#LiberationSans-36" transform="translate(55.615234 0)"/>
       <use xlink:href="#LiberationSans-30" transform="translate(111.230469 0)"/>
       <use xlink:href="#LiberationSans-2c" transform="translate(166.845703 0)"/>
       <use xlink:href="#LiberationSans-30" transform="translate(194.628906 0)"/>
       <use xlink:href="#LiberationSans-30" transform="translate(250.244141 0)"/>
       <use xlink:href="#LiberationSans-30" transform="translate(305.859375 0)"/>
      </g>
     </g>
    </g>
   </g>
   <g id="line2d_67">
    <path d="M 96.737159 244.62162 
L 127.550993 240.443053 
L 158.364827 234.003052 
L 189.178661 234.574279 
L 219.992495 238.030987 
L 250.806329 231.769006 
L 281.620163 172.062059 
L 312.433997 164.755436 
L 343.247831 161.457185 
L 374.061665 159.287695 
L 404.875499 166.093517 
L 435.689333 170.659422 
L 466.503167 157.763771 
L 497.317001 132.751057 
L 528.130835 110.995514 
L 558.944669 96.765694 
L 589.758503 40.493936 
L 620.572337 76.716007 
L 651.386171 99.970044 
L 682.200005 132.829308 
L 713.013839 197.947263 
L 743.827673 182.076143 
L 774.641507 158.982519 
L 805.455341 174.479994 
" clip-path="url(#pdd9112f77e)" style="fill: none; stroke: #2b6cb0; stroke-opacity: 0.4; stroke-width: 3; stroke-linecap: square"/>
   </g>
   <g id="line2d_68">
    <defs>
     <path id="mf1a0858f27" d="M 0 3 
C 0.795609 3 1.55874 2.683901 2.12132 2.12132 
C 2.683901 1.55874 3 0.795609 3 0 
C 3 -0.795609 2.683901 -1.55874 2.12132 -2.12132 
C 1.55874 -2.683901 0.795609 -3 0 -3 
C -0.795609 -3 -1.55874 -2.683901 -2.12132 -2.12132 
C -2.683901 -1.55874 -3 -0.795609 -3 0 
C -3 0.795609 -2.683901 1.55874 -2.12132 2.12132 
C -1.55874 2.683901 -0.795609 3 0 3 
z
" style="stroke: #2b6cb0"/>
    </defs>
    <g clip-path="url(#pdd9112f77e)">
     <use xlink:href="#mf1a0858f27" x="96.737159" y="244.62162" style="fill: #2b6cb0; stroke: #2b6cb0"/>
     <use xlink:href="#mf1a0858f27" x="127.550993" y="240.443053" style="fill: #2b6cb0; stroke: #2b6cb0"/>
     <use xlink:href="#mf1a0858f27" x="158.364827" y="234.003052" style="fill: #2b6cb0; stroke: #2b6cb0"/>
     <use xlink:href="#mf1a0858f27" x="189.178661" y="234.574279" style="fill: #2b6cb0; stroke: #2b6cb0"/>
     <use xlink:href="#mf1a0858f27" x="219.992495" y="238.030987" style="fill: #2b6cb0; stroke: #2b6cb0"/>
     <use xlink:href="#mf1a0858f27" x="250.806329" y="231.769006" style="fill: #2b6cb0; stroke: #2b6cb0"/>
     <use xlink:href="#mf1a0858f27" x="281.620163" y="172.062059" style="fill: #2b6cb0; stroke: #2b6cb0"/>
     <use xlink:href="#mf1a0858f27" x="312.433997" y="164.755436" style="fill: #2b6cb0; stroke: #2b6cb0"/>
     <use xlink:href="#mf1a0858f27" x="343.247831" y="161.457185" style="fill: #2b6cb0; stroke: #2b6cb0"/>
     <use xlink:href="#mf1a0858f27" x="374.061665" y="159.287695" style="fill: #2b6cb0; stroke: #2b6cb0"/>
     <use xlink:href="#mf1a0858f27" x="404.875499" y="166.093517" style="fill: #2b6cb0; stroke: #2b6cb0"/>
     <use xlink:href="#mf1a0858f27" x="435.689333" y="170.659422" style="fill: #2b6cb0; stroke: #2b6cb0"/>
     <use xlink:href="#mf1a0858f27" x="466.503167" y="157.763771" style="fill: #2b6cb0; stroke: #2b6cb0"/>
     <use xlink:href="#mf1a0858f27" x="497.317001" y="132.751057" style="fill: #2b6cb0; stroke: #2b6cb0"/>
     <use xlink:href="#mf1a0858f27" x="528.130835" y="110.995514" style="fill: #2b6cb0; stroke: #2b6cb0"/>
     <use xlink:href="#mf1a0858f27" x="558.944669" y="96.765694" style="fill: #2b6cb0; stroke: #2b6cb0"/>
     <use xlink:href="#mf1a0858f27" x="589.758503" y="40.493936" style="fill: #2b6cb0; stroke: #2b6cb0"/>
     <use xlink:href="#mf1a0858f27" x="620.572337" y="76.716007" style="fill: #2b6cb0; stroke: #2b6cb0"/>
     <use xlink:href="#mf1a0858f27" x="651.386171" y="99.970044" style="fill: #2b6cb0; stroke: #2b6cb0"/>
     <use xlink:href="#mf1a0858f27" x="682.200005" y="132.829308" style="fill: #2b6cb0; stroke: #2b6cb0"/>
     <use xlink:href="#mf1a0858f27" x="713.013839" y="197.947263" style="fill: #2b6cb0; stroke: #2b6cb0"/>
     <use xlink:href="#mf1a0858f27" x="743.827673" y="182.076143" style="fill: #2b6cb0; stroke: #2b6cb0"/>
     <use xlink:href="#mf1a0858f27" x="774.641507" y="158.982519" style="fill: #2b6cb0; stroke: #2b6cb0"/>
     <use xlink:href="#mf1a0858f27" x="805.455341" y="174.479994" style="fill: #2b6cb0; stroke: #2b6cb0"/>
    </g>
   </g>
   <g id="line2d_69">
    <path d="M 96.737159 292.682963 
L 127.550993 296.497666 
L 158.364827 294.799634 
L 189.178661 290.859731 
L 219.992495 287.8021 
L 250.806329 284.805113 
L 281.620163 271.522122 
L 312.433997 270.52443 
L 343.247831 270.767006 
L 374.061665 282.610191 
L 404.875499 263.804684 
L 435.689333 259.254429 
L 466.503167 258.143274 
L 497.317001 260.162132 
L 528.130835 259.140966 
L 558.944669 250.155873 
L 589.758503 269.624552 
L 620.572337 270.129266 
L 651.386171 267.466799 
L 682.200005 266.025037 
L 713.013839 263.640359 
L 743.827673 264.917795 
L 774.641507 260.402752 
L 805.455341 215.71791 
" clip-path="url(#pdd9112f77e)" style="fill: none; stroke: #c05621; stroke-opacity: 0.4; stroke-width: 3; stroke-linecap: square"/>
   </g>
   <g id="line2d_70">
    <defs>
     <path id="mc11643fe67" d="M 0 3 
C 0.795609 3 1.55874 2.683901 2.12132 2.12132 
C 2.683901 1.55874 3 0.795609 3 0 
C 3 -0.795609 2.683901 -1.55874 2.12132 -2.12132 
C 1.55874 -2.683901 0.795609 -3 0 -3 
C -0.795609 -3 -1.55874 -2.683901 -2.12132 -2.12132 
C -2.683901 -1.55874 -3 -0.795609 -3 0 
C -3 0.795609 -2.683901 1.55874 -2.12132 2.12132 
C -1.55874 2.683901 -0.795609 3 0 3 
z
" style="stroke: #c05621"/>
    </defs>
    <g clip-path="url(#pdd9112f77e)">
     <use xlink:href="#mc11643fe67" x="96.737159" y="292.682963" style="fill: #c05621; stroke: #c05621"/>
     <use xlink:href="#mc11643fe67" x="127.550993" y="296.497666" style="fill: #c05621; stroke: #c05621"/>
     <use xlink:href="#mc11643fe67" x="158.364827" y="294.799634" style="fill: #c05621; stroke: #c05621"/>
     <use xlink:href="#mc11643fe67" x="189.178661" y="290.859731" style="fill: #c05621; stroke: #c05621"/>
     <use xlink:href="#mc11643fe67" x="219.992495" y="287.8021" style="fill: #c05621; stroke: #c05621"/>
     <use xlink:href="#mc11643fe67" x="250.806329" y="284.805113" style="fill: #c05621; stroke: #c05621"/>
     <use xlink:href="#mc11643fe67" x="281.620163" y="271.522122" style="fill: #c05621; stroke: #c05621"/>
     <use xlink:href="#mc11643fe67" x="312.433997" y="270.52443" style="fill: #c05621; stroke: #c05621"/>
     <use xlink:href="#mc11643fe67" x="343.247831" y="270.767006" style="fill: #c05621; stroke: #c05621"/>
     <use xlink:href="#mc11643fe67" x="374.061665" y="282.610191" style="fill: #c05621; stroke: #c05621"/>
     <use xlink:href="#mc11643fe67" x="404.875499" y="263.804684" style="fill: #c05621; stroke: #c05621"/>
     <use xlink:href="#mc11643fe67" x="435.689333" y="259.254429" style="fill: #c05621; stroke: #c05621"/>
     <use xlink:href="#mc11643fe67" x="466.503167" y="258.143274" style="fill: #c05621; stroke: #c05621"/>
     <use xlink:href="#mc11643fe67" x="497.317001" y="260.162132" style="fill: #c05621; stroke: #c05621"/>
     <use xlink:href="#mc11643fe67" x="528.130835" y="259.140966" style="fill: #c05621; stroke: #c05621"/>
     <use xlink:href="#mc11643fe67" x="558.944669" y="250.155873" style="fill: #c05621; stroke: #c05621"/>
     <use xlink:href="#mc11643fe67" x="589.758503" y="269.624552" style="fill: #c05621; stroke: #c05621"/>
     <use xlink:href="#mc11643fe67" x="620.572337" y="270.129266" style="fill: #c05621; stroke: #c05621"/>
     <use xlink:href="#mc11643fe67" x="651.386171" y="267.466799" style="fill: #c05621; stroke: #c05621"/>
     <use xlink:href="#mc11643fe67" x="682.200005" y="266.025037" style="fill: #c05621; stroke: #c05621"/>
     <use xlink:href="#mc11643fe67" x="713.013839" y="263.640359" style="fill: #c05621; stroke: #c05621"/>
     <use xlink:href="#mc11643fe67" x="743.827673" y="264.917795" style="fill: #c05621; stroke: #c05621"/>
     <use xlink:href="#mc11643fe67" x="774.641507" y="260.402752" style="fill: #c05621; stroke: #c05621"/>
     <use xlink:href="#mc11643fe67" x="805.455341" y="215.71791" style="fill: #c05621; stroke: #c05621"/>
    </g>
   </g>
   <g id="patch_3">
    <path d="M 61.30125 359.37375 
L 61.30125 27.69375 
" style="fill: none; stroke: #c0c0c0; stroke-width: 0.8; stroke-linejoin: miter; stroke-linecap: square"/>
   </g>
   <g id="patch_4">
    <path d="M 840.89125 359.37375 
L 840.89125 27.69375 
" style="fill: none; stroke: #c0c0c0; stroke-width: 0.8; stroke-linejoin: miter; stroke-linecap: square"/>
   </g>
   <g id="patch_5">
    <path d="M 61.30125 359.37375 
L 840.89125 359.37375 
" style="fill: none; stroke: #c0c0c0; stroke-width: 0.8; stroke-linejoin: miter; stroke-linecap: square"/>
   </g>
   <g id="patch_6">
    <path d="M 61.30125 27.69375 
L 840.89125 27.69375 
" style="fill: none; stroke: #c0c0c0; stroke-width: 0.8; stroke-linejoin: miter; stroke-linecap: square"/>
   </g>
   <g id="text_34">
    <!-- Swedish migration per year  -->
    <g transform="translate(317.729063 21.69375) scale(0.2 -0.2)">
     <defs>
      <path id="LiberationSans-Bold-53" d="M 4019 1269 
Q 4019 622 3539 279 
Q 3059 -63 2131 -63 
Q 1284 -63 803 237 
Q 322 538 184 1147 
L 1075 1294 
Q 1166 944 1428 786 
Q 1691 628 2156 628 
Q 3122 628 3122 1216 
Q 3122 1403 3011 1525 
Q 2900 1647 2698 1728 
Q 2497 1809 1925 1925 
Q 1431 2041 1237 2111 
Q 1044 2181 887 2276 
Q 731 2372 622 2506 
Q 513 2641 452 2822 
Q 391 3003 391 3238 
Q 391 3834 839 4151 
Q 1288 4469 2144 4469 
Q 2963 4469 3373 4212 
Q 3784 3956 3903 3366 
L 3009 3244 
Q 2941 3528 2730 3672 
Q 2519 3816 2125 3816 
Q 1288 3816 1288 3291 
Q 1288 3119 1377 3009 
Q 1466 2900 1641 2823 
Q 1816 2747 2350 2631 
Q 2984 2497 3257 2383 
Q 3531 2269 3690 2117 
Q 3850 1966 3934 1755 
Q 4019 1544 4019 1269 
z
" transform="scale(0.015625)"/>
      <path id="LiberationSans-Bold-77" d="M 4103 0 
L 3175 0 
L 2638 2063 
Q 2600 2203 2491 2756 
L 2328 2056 
L 1784 0 
L 856 0 
L -19 3381 
L 806 3381 
L 1363 797 
L 1406 1028 
L 1484 1394 
L 2016 3381 
L 2956 3381 
L 3475 1394 
Q 3519 1231 3603 797 
L 3691 1209 
L 4178 3381 
L 4991 3381 
L 4103 0 
z
" transform="scale(0.015625)"/>
      <path id="LiberationSans-Bold-65" d="M 1831 -63 
Q 1069 -63 659 389 
Q 250 841 250 1706 
Q 250 2544 665 2994 
Q 1081 3444 1844 3444 
Q 2572 3444 2956 2961 
Q 3341 2478 3341 1547 
L 3341 1522 
L 1172 1522 
Q 1172 1028 1355 776 
Q 1538 525 1875 525 
Q 2341 525 2463 928 
L 3291 856 
Q 2931 -63 1831 -63 
z
M 1831 2891 
Q 1522 2891 1355 2675 
Q 1188 2459 1178 2072 
L 2491 2072 
Q 2466 2481 2294 2686 
Q 2122 2891 1831 2891 
z
" transform="scale(0.015625)"/>
      <path id="LiberationSans-Bold-64" d="M 2638 0 
Q 2625 47 2608 236 
Q 2591 425 2591 550 
L 2578 550 
Q 2294 -63 1497 -63 
Q 906 -63 584 398 
Q 263 859 263 1688 
Q 263 2528 602 2986 
Q 941 3444 1563 3444 
Q 1922 3444 2183 3294 
Q 2444 3144 2584 2847 
L 2591 2847 
L 2584 3403 
L 2584 4638 
L 3463 4638 
L 3463 738 
Q 3463 425 3488 0 
L 2638 0 
z
M 2597 1709 
Q 2597 2256 2414 2551 
Q 2231 2847 1875 2847 
Q 1522 2847 1350 2561 
Q 1178 2275 1178 1688 
Q 1178 538 1869 538 
Q 2216 538 2406 842 
Q 2597 1147 2597 1709 
z
" transform="scale(0.015625)"/>
      <path id="LiberationSans-Bold-69" d="M 447 3991 
L 447 4638 
L 1325 4638 
L 1325 3991 
L 447 3991 
z
M 447 0 
L 447 3381 
L 1325 3381 
L 1325 0 
L 447 0 
z
" transform="scale(0.015625)"/>
      <path id="LiberationSans-Bold-73" d="M 3297 988 
Q 3297 497 2895 217 
Q 2494 -63 1784 -63 
Q 1088 -63 717 157 
Q 347 378 225 844 
L 997 959 
Q 1063 719 1223 619 
Q 1384 519 1784 519 
Q 2153 519 2322 612 
Q 2491 706 2491 906 
Q 2491 1069 2355 1164 
Q 2219 1259 1894 1325 
Q 1150 1472 890 1598 
Q 631 1725 495 1926 
Q 359 2128 359 2422 
Q 359 2906 732 3176 
Q 1106 3447 1791 3447 
Q 2394 3447 2761 3212 
Q 3128 2978 3219 2534 
L 2441 2453 
Q 2403 2659 2256 2761 
Q 2109 2863 1791 2863 
Q 1478 2863 1322 2783 
Q 1166 2703 1166 2516 
Q 1166 2369 1286 2283 
Q 1406 2197 1691 2141 
Q 2088 2059 2395 1973 
Q 2703 1888 2889 1769 
Q 3075 1650 3186 1464 
Q 3297 1278 3297 988 
z
" transform="scale(0.015625)"/>
      <path id="LiberationSans-Bold-68" d="M 1313 2706 
Q 1491 3094 1759 3269 
Q 2028 3444 2400 3444 
Q 2938 3444 3225 3112 
Q 3513 2781 3513 2144 
L 3513 0 
L 2638 0 
L 2638 1894 
Q 2638 2784 2034 2784 
Q 1716 2784 1520 2511 
Q 1325 2238 1325 1809 
L 1325 0 
L 447 0 
L 447 4638 
L 1325 4638 
L 1325 3372 
Q 1325 3031 1300 2706 
L 1313 2706 
z
" transform="scale(0.015625)"/>
      <path id="LiberationSans-Bold-20" transform="scale(0.015625)"/>
      <path id="LiberationSans-Bold-6d" d="M 2438 0 
L 2438 1897 
Q 2438 2788 1925 2788 
Q 1659 2788 1492 2516 
Q 1325 2244 1325 1813 
L 1325 0 
L 447 0 
L 447 2625 
Q 447 2897 439 3070 
Q 431 3244 422 3381 
L 1259 3381 
Q 1269 3322 1284 3064 
Q 1300 2806 1300 2709 
L 1313 2709 
Q 1475 3097 1717 3272 
Q 1959 3447 2297 3447 
Q 3072 3447 3238 2709 
L 3256 2709 
Q 3428 3103 3668 3275 
Q 3909 3447 4281 3447 
Q 4775 3447 5034 3111 
Q 5294 2775 5294 2147 
L 5294 0 
L 4422 0 
L 4422 1897 
Q 4422 2788 3909 2788 
Q 3653 2788 3489 2539 
Q 3325 2291 3309 1853 
L 3309 0 
L 2438 0 
z
" transform="scale(0.015625)"/>
      <path id="LiberationSans-Bold-67" d="M 1863 -1356 
Q 1244 -1356 867 -1120 
Q 491 -884 403 -447 
L 1281 -344 
Q 1328 -547 1483 -662 
Q 1638 -778 1888 -778 
Q 2253 -778 2422 -553 
Q 2591 -328 2591 116 
L 2591 294 
L 2597 628 
L 2591 628 
Q 2300 6 1503 6 
Q 913 6 588 450 
Q 263 894 263 1719 
Q 263 2547 597 2997 
Q 931 3447 1569 3447 
Q 2306 3447 2591 2838 
L 2606 2838 
Q 2606 2947 2620 3134 
Q 2634 3322 2650 3381 
L 3481 3381 
Q 3463 3044 3463 2600 
L 3463 103 
Q 3463 -619 3053 -987 
Q 2644 -1356 1863 -1356 
z
M 2597 1738 
Q 2597 2259 2411 2551 
Q 2225 2844 1881 2844 
Q 1178 2844 1178 1719 
Q 1178 616 1875 616 
Q 2225 616 2411 908 
Q 2597 1200 2597 1738 
z
" transform="scale(0.015625)"/>
      <path id="LiberationSans-Bold-72" d="M 447 0 
L 447 2588 
Q 447 2866 439 3052 
Q 431 3238 422 3381 
L 1259 3381 
Q 1269 3325 1284 3039 
Q 1300 2753 1300 2659 
L 1313 2659 
Q 1441 3016 1541 3161 
Q 1641 3306 1778 3376 
Q 1916 3447 2122 3447 
Q 2291 3447 2394 3400 
L 2394 2666 
Q 2181 2713 2019 2713 
Q 1691 2713 1508 2447 
Q 1325 2181 1325 1659 
L 1325 0 
L 447 0 
z
" transform="scale(0.015625)"/>
      <path id="LiberationSans-Bold-61" d="M 1228 -63 
Q 738 -63 463 204 
Q 188 472 188 956 
Q 188 1481 530 1756 
Q 872 2031 1522 2038 
L 2250 2050 
L 2250 2222 
Q 2250 2553 2134 2714 
Q 2019 2875 1756 2875 
Q 1513 2875 1398 2764 
Q 1284 2653 1256 2397 
L 341 2441 
Q 425 2934 792 3189 
Q 1159 3444 1794 3444 
Q 2434 3444 2781 3128 
Q 3128 2813 3128 2231 
L 3128 1000 
Q 3128 716 3192 608 
Q 3256 500 3406 500 
Q 3506 500 3600 519 
L 3600 44 
Q 3522 25 3459 9 
Q 3397 -6 3334 -15 
Q 3272 -25 3201 -31 
Q 3131 -38 3038 -38 
Q 2706 -38 2548 125 
Q 2391 288 2359 603 
L 2341 603 
Q 1972 -63 1228 -63 
z
M 2250 1566 
L 1800 1559 
Q 1494 1547 1366 1492 
Q 1238 1438 1170 1325 
Q 1103 1213 1103 1025 
Q 1103 784 1214 667 
Q 1325 550 1509 550 
Q 1716 550 1886 662 
Q 2056 775 2153 973 
Q 2250 1172 2250 1394 
L 2250 1566 
z
" transform="scale(0.015625)"/>
      <path id="LiberationSans-Bold-74" d="M 1313 -56 
Q 925 -56 715 155 
Q 506 366 506 794 
L 506 2788 
L 78 2788 
L 78 3381 
L 550 3381 
L 825 4175 
L 1375 4175 
L 1375 3381 
L 2016 3381 
L 2016 2788 
L 1375 2788 
L 1375 1031 
Q 1375 784 1469 667 
Q 1563 550 1759 550 
Q 1863 550 2053 594 
L 2053 50 
Q 1728 -56 1313 -56 
z
" transform="scale(0.015625)"/>
      <path id="LiberationSans-Bold-6f" d="M 3659 1694 
Q 3659 872 3203 404 
Q 2747 -63 1941 -63 
Q 1150 -63 700 406 
Q 250 875 250 1694 
Q 250 2509 700 2976 
Q 1150 3444 1959 3444 
Q 2788 3444 3223 2992 
Q 3659 2541 3659 1694 
z
M 2741 1694 
Q 2741 2297 2544 2569 
Q 2347 2841 1972 2841 
Q 1172 2841 1172 1694 
Q 1172 1128 1367 833 
Q 1563 538 1931 538 
Q 2741 538 2741 1694 
z
" transform="scale(0.015625)"/>
      <path id="LiberationSans-Bold-6e" d="M 2638 0 
L 2638 1897 
Q 2638 2788 2034 2788 
Q 1716 2788 1520 2514 
Q 1325 2241 1325 1813 
L 1325 0 
L 447 0 
L 447 2625 
Q 447 2897 439 3070 
Q 431 3244 422 3381 
L 1259 3381 
Q 1269 3322 1284 3064 
Q 1300 2806 1300 2709 
L 1313 2709 
Q 1491 3097 1759 3272 
Q 2028 3447 2400 3447 
Q 2938 3447 3225 3115 
Q 3513 2784 3513 2147 
L 3513 0 
L 2638 0 
z
" transform="scale(0.015625)"/>
      <path id="LiberationSans-Bold-70" d="M 3647 1706 
Q 3647 859 3308 398 
Q 2969 -63 2350 -63 
Q 1994 -63 1730 92 
Q 1466 247 1325 538 
L 1306 538 
Q 1325 444 1325 -31 
L 1325 -1328 
L 447 -1328 
L 447 2603 
Q 447 3081 422 3381 
L 1275 3381 
Q 1291 3325 1302 3159 
Q 1313 2994 1313 2831 
L 1325 2831 
Q 1622 3453 2406 3453 
Q 2997 3453 3322 2998 
Q 3647 2544 3647 1706 
z
M 2731 1706 
Q 2731 2844 2034 2844 
Q 1684 2844 1498 2537 
Q 1313 2231 1313 1681 
Q 1313 1134 1498 836 
Q 1684 538 2028 538 
Q 2731 538 2731 1706 
z
" transform="scale(0.015625)"/>
      <path id="LiberationSans-Bold-79" d="M 884 -1328 
Q 569 -1328 331 -1288 
L 331 -663 
Q 497 -688 634 -688 
Q 822 -688 945 -628 
Q 1069 -569 1167 -431 
Q 1266 -294 1388 34 
L 50 3381 
L 978 3381 
L 1509 1797 
Q 1634 1456 1825 753 
L 1903 1050 
L 2106 1784 
L 2606 3381 
L 3525 3381 
L 2188 -178 
Q 1919 -828 1630 -1078 
Q 1341 -1328 884 -1328 
z
" transform="scale(0.015625)"/>
     </defs>
     <use xlink:href="#LiberationSans-Bold-53"/>
     <use xlink:href="#LiberationSans-Bold-77" transform="translate(66.699219 0)"/>
     <use xlink:href="#LiberationSans-Bold-65" transform="translate(144.482422 0)"/>
     <use xlink:href="#LiberationSans-Bold-64" transform="translate(200.097656 0)"/>
     <use xlink:href="#LiberationSans-Bold-69" transform="translate(261.181641 0)"/>
     <use xlink:href="#LiberationSans-Bold-73" transform="translate(288.964844 0)"/>
     <use xlink:href="#LiberationSans-Bold-68" transform="translate(344.580078 0)"/>
     <use xlink:href="#LiberationSans-Bold-20" transform="translate(405.664062 0)"/>
     <use xlink:href="#LiberationSans-Bold-6d" transform="translate(433.447266 0)"/>
     <use xlink:href="#LiberationSans-Bold-69" transform="translate(522.363281 0)"/>
     <use xlink:href="#LiberationSans-Bold-67" transform="translate(550.146484 0)"/>
     <use xlink:href="#LiberationSans-Bold-72" transform="translate(611.230469 0)"/>
     <use xlink:href="#LiberationSans-Bold-61" transform="translate(650.146484 0)"/>
     <use xlink:href="#LiberationSans-Bold-74" transform="translate(705.761719 0)"/>
     <use xlink:href="#LiberationSans-Bold-69" transform="translate(739.0625 0)"/>
     <use xlink:href="#LiberationSans-Bold-6f" transform="translate(766.845703 0)"/>
     <use xlink:href="#LiberationSans-Bold-6e" transform="translate(827.929688 0)"/>
     <use xlink:href="#LiberationSans-Bold-20" transform="translate(889.013672 0)"/>
     <use xlink:href="#LiberationSans-Bold-70" transform="translate(916.796875 0)"/>
     <use xlink:href="#LiberationSans-Bold-65" transform="translate(977.880859 0)"/>
     <use xlink:href="#LiberationSans-Bold-72" transform="translate(1033.496094 0)"/>
     <use xlink:href="#LiberationSans-Bold-20" transform="translate(1072.412109 0)"/>
     <use xlink:href="#LiberationSans-Bold-79" transform="translate(1100.195312 0)"/>
     <use xlink:href="#LiberationSans-Bold-65" transform="translate(1155.810547 0)"/>
     <use xlink:href="#LiberationSans-Bold-61" transform="translate(1211.425781 0)"/>
     <use xlink:href="#LiberationSans-Bold-72" transform="translate(1267.041016 0)"/>
     <use xlink:href="#LiberationSans-Bold-20" transform="translate(1305.957031 0)"/>
    </g>
   </g>
   <g id="legend_1">
    <g id="patch_7">
     <path d="M 697.144063 95.795 
L 831.09125 95.795 
Q 833.89125 95.795 833.89125 92.995 
L 833.89125 37.49375 
Q 833.89125 34.69375 831.09125 34.69375 
L 697.144063 34.69375 
Q 694.344063 34.69375 694.344063 37.49375 
L 694.344063 92.995 
Q 694.344063 95.795 697.144063 95.795 
z
" style="fill: #ffffff; opacity: 0.8; stroke: #c0c0c0; stroke-linejoin: miter"/>
    </g>
    <g id="line2d_71">
     <g>
      <use xlink:href="#mf1a0858f27" x="722.344063" y="53.939375" style="fill: #2b6cb0; stroke: #2b6cb0"/>
     </g>
    </g>
    <g id="text_35">
     <!-- immigration -->
     <g transform="translate(747.544063 58.839375) scale(0.14 -0.14)">
      <defs>
       <path id="LiberationSans-69" d="M 428 4100 
L 428 4638 
L 991 4638 
L 991 4100 
L 428 4100 
z
M 428 0 
L 428 3381 
L 991 3381 
L 991 0 
L 428 0 
z
" transform="scale(0.015625)"/>
       <path id="LiberationSans-6d" d="M 2400 0 
L 2400 2144 
Q 2400 2634 2265 2821 
Q 2131 3009 1781 3009 
Q 1422 3009 1212 2734 
Q 1003 2459 1003 1959 
L 1003 0 
L 444 0 
L 444 2659 
Q 444 3250 425 3381 
L 956 3381 
Q 959 3366 962 3297 
Q 966 3228 970 3139 
Q 975 3050 981 2803 
L 991 2803 
Q 1172 3163 1406 3303 
Q 1641 3444 1978 3444 
Q 2363 3444 2586 3291 
Q 2809 3138 2897 2803 
L 2906 2803 
Q 3081 3144 3329 3294 
Q 3578 3444 3931 3444 
Q 4444 3444 4676 3166 
Q 4909 2888 4909 2253 
L 4909 0 
L 4353 0 
L 4353 2144 
Q 4353 2634 4218 2821 
Q 4084 3009 3734 3009 
Q 3366 3009 3161 2736 
Q 2956 2463 2956 1959 
L 2956 0 
L 2400 0 
z
" transform="scale(0.015625)"/>
       <path id="LiberationSans-67" d="M 1713 -1328 
Q 1159 -1328 831 -1111 
Q 503 -894 409 -494 
L 975 -413 
Q 1031 -647 1223 -773 
Q 1416 -900 1728 -900 
Q 2569 -900 2569 84 
L 2569 628 
L 2563 628 
Q 2403 303 2125 139 
Q 1847 -25 1475 -25 
Q 853 -25 561 387 
Q 269 800 269 1684 
Q 269 2581 583 3007 
Q 897 3434 1538 3434 
Q 1897 3434 2161 3270 
Q 2425 3106 2569 2803 
L 2575 2803 
Q 2575 2897 2587 3128 
Q 2600 3359 2613 3381 
L 3147 3381 
Q 3128 3213 3128 2681 
L 3128 97 
Q 3128 -1328 1713 -1328 
z
M 2569 1691 
Q 2569 2103 2456 2401 
Q 2344 2700 2139 2858 
Q 1934 3016 1675 3016 
Q 1244 3016 1047 2703 
Q 850 2391 850 1691 
Q 850 997 1034 694 
Q 1219 391 1666 391 
Q 1931 391 2137 547 
Q 2344 703 2456 995 
Q 2569 1288 2569 1691 
z
" transform="scale(0.015625)"/>
       <path id="LiberationSans-72" d="M 444 0 
L 444 2594 
Q 444 2950 425 3381 
L 956 3381 
Q 981 2806 981 2691 
L 994 2691 
Q 1128 3125 1303 3284 
Q 1478 3444 1797 3444 
Q 1909 3444 2025 3413 
L 2025 2897 
Q 1913 2928 1725 2928 
Q 1375 2928 1190 2626 
Q 1006 2325 1006 1763 
L 1006 0 
L 444 0 
z
" transform="scale(0.015625)"/>
       <path id="LiberationSans-61" d="M 1294 -63 
Q 784 -63 528 206 
Q 272 475 272 944 
Q 272 1469 617 1750 
Q 963 2031 1731 2050 
L 2491 2063 
L 2491 2247 
Q 2491 2659 2316 2837 
Q 2141 3016 1766 3016 
Q 1388 3016 1216 2887 
Q 1044 2759 1009 2478 
L 422 2531 
Q 566 3444 1778 3444 
Q 2416 3444 2737 3151 
Q 3059 2859 3059 2306 
L 3059 850 
Q 3059 600 3125 473 
Q 3191 347 3375 347 
Q 3456 347 3559 369 
L 3559 19 
Q 3347 -31 3125 -31 
Q 2813 -31 2670 133 
Q 2528 297 2509 647 
L 2491 647 
Q 2275 259 1989 98 
Q 1703 -63 1294 -63 
z
M 1422 359 
Q 1731 359 1972 500 
Q 2213 641 2352 886 
Q 2491 1131 2491 1391 
L 2491 1669 
L 1875 1656 
Q 1478 1650 1273 1575 
Q 1069 1500 959 1344 
Q 850 1188 850 934 
Q 850 659 998 509 
Q 1147 359 1422 359 
z
" transform="scale(0.015625)"/>
       <path id="LiberationSans-74" d="M 1731 25 
Q 1453 -50 1163 -50 
Q 488 -50 488 716 
L 488 2972 
L 97 2972 
L 97 3381 
L 509 3381 
L 675 4138 
L 1050 4138 
L 1050 3381 
L 1675 3381 
L 1675 2972 
L 1050 2972 
L 1050 838 
Q 1050 594 1129 495 
Q 1209 397 1406 397 
Q 1519 397 1731 441 
L 1731 25 
z
" transform="scale(0.015625)"/>
       <path id="LiberationSans-6f" d="M 3291 1694 
Q 3291 806 2900 371 
Q 2509 -63 1766 -63 
Q 1025 -63 647 389 
Q 269 841 269 1694 
Q 269 3444 1784 3444 
Q 2559 3444 2925 3017 
Q 3291 2591 3291 1694 
z
M 2700 1694 
Q 2700 2394 2492 2711 
Q 2284 3028 1794 3028 
Q 1300 3028 1079 2704 
Q 859 2381 859 1694 
Q 859 1025 1076 689 
Q 1294 353 1759 353 
Q 2266 353 2483 678 
Q 2700 1003 2700 1694 
z
" transform="scale(0.015625)"/>
       <path id="LiberationSans-6e" d="M 2578 0 
L 2578 2144 
Q 2578 2478 2512 2662 
Q 2447 2847 2303 2928 
Q 2159 3009 1881 3009 
Q 1475 3009 1240 2731 
Q 1006 2453 1006 1959 
L 1006 0 
L 444 0 
L 444 2659 
Q 444 3250 425 3381 
L 956 3381 
Q 959 3366 962 3297 
Q 966 3228 970 3139 
Q 975 3050 981 2803 
L 991 2803 
Q 1184 3153 1439 3298 
Q 1694 3444 2072 3444 
Q 2628 3444 2886 3167 
Q 3144 2891 3144 2253 
L 3144 0 
L 2578 0 
z
" transform="scale(0.015625)"/>
      </defs>
      <use xlink:href="#LiberationSans-69"/>
      <use xlink:href="#LiberationSans-6d" transform="translate(22.216797 0)"/>
      <use xlink:href="#LiberationSans-6d" transform="translate(105.517578 0)"/>
      <use xlink:href="#LiberationSans-69" transform="translate(188.818359 0)"/>
      <use xlink:href="#LiberationSans-67" transform="translate(211.035156 0)"/>
      <use xlink:href="#LiberationSans-72" transform="translate(266.650391 0)"/>
      <use xlink:href="#LiberationSans-61" transform="translate(299.951172 0)"/>
      <use xlink:href="#LiberationSans-74" transform="translate(355.566406 0)"/>
      <use xlink:href="#LiberationSans-69" transform="translate(383.349609 0)"/>
      <use xlink:href="#LiberationSans-6f" transform="translate(405.566406 0)"/>
      <use xlink:href="#LiberationSans-6e" transform="translate(461.181641 0)"/>
     </g>
    </g>
    <g id="line2d_72">
     <g>
      <use xlink:href="#mc11643fe67" x="722.344063" y="73.99" style="fill: #c05621; stroke: #c05621"/>
     </g>
    </g>
    <g id="text_36">
     <!-- emigration -->
     <g transform="translate(747.544063 78.89) scale(0.14 -0.14)">
      <defs>
       <path id="LiberationSans-65" d="M 863 1572 
Q 863 991 1103 675 
Q 1344 359 1806 359 
Q 2172 359 2392 506 
Q 2613 653 2691 878 
L 3184 738 
Q 2881 -63 1806 -63 
Q 1056 -63 664 384 
Q 272 831 272 1713 
Q 272 2550 664 2997 
Q 1056 3444 1784 3444 
Q 3275 3444 3275 1647 
L 3275 1572 
L 863 1572 
z
M 2694 2003 
Q 2647 2538 2422 2783 
Q 2197 3028 1775 3028 
Q 1366 3028 1127 2754 
Q 888 2481 869 2003 
L 2694 2003 
z
" transform="scale(0.015625)"/>
      </defs>
      <use xlink:href="#LiberationSans-65"/>
      <use xlink:href="#LiberationSans-6d" transform="translate(55.615234 0)"/>
      <use xlink:href="#LiberationSans-69" transform="translate(138.916016 0)"/>
      <use xlink:href="#LiberationSans-67" transform="translate(161.132812 0)"/>
      <use xlink:href="#LiberationSans-72" transform="translate(216.748047 0)"/>
      <use xlink:href="#LiberationSans-61" transform="translate(250.048828 0)"/>
      <use xlink:href="#LiberationSans-74" transform="translate(305.664062 0)"/>
      <use xlink:href="#LiberationSans-69" transform="translate(333.447266 0)"/>
      <use xlink:href="#LiberationSans-6f" transform="translate(355.664062 0)"/>
      <use xlink:href="#LiberationSans-6e" transform="translate(411.279297 0)"/>
     </g>
    </g>
   </g>
  </g>
  <g id="text_37">
   <!-- Source: Statistics Sweden SCB - Invandringar och utvandringar efter fdelseland, kn, r och tabellinnehll (BE0101) -->
   <g transform="translate(61.13125 413.45875) scale(0.1 -0.1)">
    <defs>
     <path id="LiberationSans-53" d="M 3975 1216 
Q 3975 606 3498 271 
Q 3022 -63 2156 -63 
Q 547 -63 291 1056 
L 869 1172 
Q 969 775 1294 589 
Q 1619 403 2178 403 
Q 2756 403 3070 601 
Q 3384 800 3384 1184 
Q 3384 1400 3286 1534 
Q 3188 1669 3009 1756 
Q 2831 1844 2584 1903 
Q 2338 1963 2038 2031 
Q 1516 2147 1245 2262 
Q 975 2378 819 2520 
Q 663 2663 580 2853 
Q 497 3044 497 3291 
Q 497 3856 930 4162 
Q 1363 4469 2169 4469 
Q 2919 4469 3316 4239 
Q 3713 4009 3872 3456 
L 3284 3353 
Q 3188 3703 2916 3861 
Q 2644 4019 2163 4019 
Q 1634 4019 1356 3844 
Q 1078 3669 1078 3322 
Q 1078 3119 1186 2986 
Q 1294 2853 1497 2761 
Q 1700 2669 2306 2534 
Q 2509 2488 2711 2439 
Q 2913 2391 3097 2323 
Q 3281 2256 3442 2165 
Q 3603 2075 3722 1944 
Q 3841 1813 3908 1634 
Q 3975 1456 3975 1216 
z
" transform="scale(0.015625)"/>
     <path id="LiberationSans-75" d="M 981 3381 
L 981 1238 
Q 981 903 1047 718 
Q 1113 534 1256 453 
Q 1400 372 1678 372 
Q 2084 372 2318 650 
Q 2553 928 2553 1422 
L 2553 3381 
L 3116 3381 
L 3116 722 
Q 3116 131 3134 0 
L 2603 0 
Q 2600 16 2597 84 
Q 2594 153 2589 242 
Q 2584 331 2578 578 
L 2569 578 
Q 2375 228 2120 82 
Q 1866 -63 1488 -63 
Q 931 -63 673 214 
Q 416 491 416 1128 
L 416 3381 
L 981 3381 
z
" transform="scale(0.015625)"/>
     <path id="LiberationSans-63" d="M 859 1706 
Q 859 1031 1071 706 
Q 1284 381 1713 381 
Q 2013 381 2214 543 
Q 2416 706 2463 1044 
L 3031 1006 
Q 2966 519 2616 228 
Q 2266 -63 1728 -63 
Q 1019 -63 645 385 
Q 272 834 272 1694 
Q 272 2547 647 2995 
Q 1022 3444 1722 3444 
Q 2241 3444 2583 3175 
Q 2925 2906 3013 2434 
L 2434 2391 
Q 2391 2672 2212 2837 
Q 2034 3003 1706 3003 
Q 1259 3003 1059 2706 
Q 859 2409 859 1706 
z
" transform="scale(0.015625)"/>
     <path id="LiberationSans-3a" d="M 584 2734 
L 584 3381 
L 1194 3381 
L 1194 2734 
L 584 2734 
z
M 584 0 
L 584 647 
L 1194 647 
L 1194 0 
L 584 0 
z
" transform="scale(0.015625)"/>
     <path id="LiberationSans-20" transform="scale(0.015625)"/>
     <path id="LiberationSans-73" d="M 2969 934 
Q 2969 456 2608 196 
Q 2247 -63 1597 -63 
Q 966 -63 623 145 
Q 281 353 178 794 
L 675 891 
Q 747 619 972 492 
Q 1197 366 1597 366 
Q 2025 366 2223 497 
Q 2422 628 2422 891 
Q 2422 1091 2284 1216 
Q 2147 1341 1841 1422 
L 1438 1528 
Q 953 1653 748 1773 
Q 544 1894 428 2066 
Q 313 2238 313 2488 
Q 313 2950 642 3192 
Q 972 3434 1603 3434 
Q 2163 3434 2492 3237 
Q 2822 3041 2909 2606 
L 2403 2544 
Q 2356 2769 2151 2889 
Q 1947 3009 1603 3009 
Q 1222 3009 1040 2893 
Q 859 2778 859 2544 
Q 859 2400 934 2306 
Q 1009 2213 1156 2147 
Q 1303 2081 1775 1966 
Q 2222 1853 2419 1758 
Q 2616 1663 2730 1547 
Q 2844 1431 2906 1279 
Q 2969 1128 2969 934 
z
" transform="scale(0.015625)"/>
     <path id="LiberationSans-77" d="M 3669 0 
L 3016 0 
L 2425 2391 
L 2313 2919 
Q 2284 2778 2225 2514 
Q 2166 2250 1588 0 
L 938 0 
L -9 3381 
L 547 3381 
L 1119 1084 
Q 1141 1009 1253 466 
L 1306 697 
L 2013 3381 
L 2616 3381 
L 3206 1059 
L 3350 466 
L 3447 900 
L 4088 3381 
L 4638 3381 
L 3669 0 
z
" transform="scale(0.015625)"/>
     <path id="LiberationSans-64" d="M 2566 544 
Q 2409 219 2151 78 
Q 1894 -63 1513 -63 
Q 872 -63 570 368 
Q 269 800 269 1675 
Q 269 3444 1513 3444 
Q 1897 3444 2153 3303 
Q 2409 3163 2566 2856 
L 2572 2856 
L 2566 3234 
L 2566 4638 
L 3128 4638 
L 3128 697 
Q 3128 169 3147 0 
L 2609 0 
Q 2600 50 2589 231 
Q 2578 413 2578 544 
L 2566 544 
z
M 859 1694 
Q 859 984 1046 678 
Q 1234 372 1656 372 
Q 2134 372 2350 703 
Q 2566 1034 2566 1731 
Q 2566 2403 2350 2715 
Q 2134 3028 1663 3028 
Q 1238 3028 1048 2714 
Q 859 2400 859 1694 
z
" transform="scale(0.015625)"/>
     <path id="LiberationSans-43" d="M 2475 3981 
Q 1744 3981 1337 3511 
Q 931 3041 931 2222 
Q 931 1413 1354 920 
Q 1778 428 2500 428 
Q 3425 428 3891 1344 
L 4378 1100 
Q 4106 531 3614 234 
Q 3122 -63 2472 -63 
Q 1806 -63 1320 214 
Q 834 491 579 1005 
Q 325 1519 325 2222 
Q 325 3275 894 3872 
Q 1463 4469 2469 4469 
Q 3172 4469 3644 4194 
Q 4116 3919 4338 3378 
L 3772 3191 
Q 3619 3575 3280 3778 
Q 2941 3981 2475 3981 
z
" transform="scale(0.015625)"/>
     <path id="LiberationSans-42" d="M 3931 1241 
Q 3931 653 3503 326 
Q 3075 0 2313 0 
L 525 0 
L 525 4403 
L 2125 4403 
Q 3675 4403 3675 3334 
Q 3675 2944 3456 2678 
Q 3238 2413 2838 2322 
Q 3363 2259 3647 1970 
Q 3931 1681 3931 1241 
z
M 3075 3263 
Q 3075 3619 2831 3772 
Q 2588 3925 2125 3925 
L 1122 3925 
L 1122 2531 
L 2125 2531 
Q 2603 2531 2839 2711 
Q 3075 2891 3075 3263 
z
M 3328 1288 
Q 3328 2066 2234 2066 
L 1122 2066 
L 1122 478 
L 2281 478 
Q 2828 478 3078 681 
Q 3328 884 3328 1288 
z
" transform="scale(0.015625)"/>
     <path id="LiberationSans-2d" d="M 284 1450 
L 284 1950 
L 1847 1950 
L 1847 1450 
L 284 1450 
z
" transform="scale(0.015625)"/>
     <path id="LiberationSans-49" d="M 591 0 
L 591 4403 
L 1188 4403 
L 1188 0 
L 591 0 
z
" transform="scale(0.015625)"/>
     <path id="LiberationSans-76" d="M 1916 0 
L 1250 0 
L 22 3381 
L 622 3381 
L 1366 1181 
Q 1406 1056 1581 441 
L 1691 806 
L 1813 1175 
L 2581 3381 
L 3178 3381 
L 1916 0 
z
" transform="scale(0.015625)"/>
     <path id="LiberationSans-68" d="M 991 2803 
Q 1172 3134 1426 3289 
Q 1681 3444 2072 3444 
Q 2622 3444 2883 3170 
Q 3144 2897 3144 2253 
L 3144 0 
L 2578 0 
L 2578 2144 
Q 2578 2500 2512 2673 
Q 2447 2847 2297 2928 
Q 2147 3009 1881 3009 
Q 1484 3009 1245 2734 
Q 1006 2459 1006 1994 
L 1006 0 
L 444 0 
L 444 4638 
L 1006 4638 
L 1006 3431 
Q 1006 3241 995 3037 
Q 984 2834 981 2803 
L 991 2803 
z
" transform="scale(0.015625)"/>
     <path id="LiberationSans-66" d="M 1128 2972 
L 1128 0 
L 566 0 
L 566 2972 
L 91 2972 
L 91 3381 
L 566 3381 
L 566 3763 
Q 566 4225 769 4428 
Q 972 4631 1391 4631 
Q 1625 4631 1788 4594 
L 1788 4166 
Q 1647 4191 1538 4191 
Q 1322 4191 1225 4081 
Q 1128 3972 1128 3684 
L 1128 3381 
L 1788 3381 
L 1788 2972 
L 1128 2972 
z
" transform="scale(0.015625)"/>
     <path id="LiberationSans-f6" d="M 3291 1694 
Q 3291 806 2900 371 
Q 2509 -63 1766 -63 
Q 1025 -63 647 389 
Q 269 841 269 1694 
Q 269 3444 1784 3444 
Q 2559 3444 2925 3017 
Q 3291 2591 3291 1694 
z
M 2700 1694 
Q 2700 2394 2492 2711 
Q 2284 3028 1794 3028 
Q 1300 3028 1079 2704 
Q 859 2381 859 1694 
Q 859 1025 1076 689 
Q 1294 353 1759 353 
Q 2266 353 2483 678 
Q 2700 1003 2700 1694 
z
M 2156 3809 
L 2156 4384 
L 2665 4384 
L 2665 3809 
L 2156 3809 
z
M 925 3809 
L 925 4384 
L 1440 4384 
L 1440 3809 
L 925 3809 
z
" transform="scale(0.015625)"/>
     <path id="LiberationSans-6c" d="M 431 0 
L 431 4638 
L 994 4638 
L 994 0 
L 431 0 
z
" transform="scale(0.015625)"/>
     <path id="LiberationSans-6b" d="M 2550 0 
L 1406 1544 
L 994 1203 
L 994 0 
L 431 0 
L 431 4638 
L 994 4638 
L 994 1741 
L 2478 3381 
L 3138 3381 
L 1766 1928 
L 3209 0 
L 2550 0 
z
" transform="scale(0.015625)"/>
     <path id="LiberationSans-e5" d="M 1294 -63 
Q 784 -63 528 206 
Q 272 475 272 944 
Q 272 1469 617 1750 
Q 963 2031 1731 2050 
L 2491 2063 
L 2491 2247 
Q 2491 2659 2316 2837 
Q 2141 3016 1766 3016 
Q 1388 3016 1216 2887 
Q 1044 2759 1009 2478 
L 422 2531 
Q 566 3444 1778 3444 
Q 2416 3444 2737 3151 
Q 3059 2859 3059 2306 
L 3059 850 
Q 3059 600 3125 473 
Q 3191 347 3375 347 
Q 3456 347 3559 369 
L 3559 19 
Q 3347 -31 3125 -31 
Q 2813 -31 2670 133 
Q 2528 297 2509 647 
L 2491 647 
Q 2275 259 1989 98 
Q 1703 -63 1294 -63 
z
M 1422 359 
Q 1731 359 1972 500 
Q 2213 641 2352 886 
Q 2491 1131 2491 1391 
L 2491 1669 
L 1875 1656 
Q 1478 1650 1273 1575 
Q 1069 1500 959 1344 
Q 850 1188 850 934 
Q 850 659 998 509 
Q 1147 359 1422 359 
z
M 2496 4406 
Q 2496 4094 2274 3872 
Q 2052 3650 1740 3650 
Q 1427 3650 1205 3872 
Q 983 4094 983 4406 
Q 983 4722 1205 4940 
Q 1427 5159 1740 5159 
Q 2049 5159 2272 4939 
Q 2496 4719 2496 4406 
z
M 2158 4406 
Q 2158 4581 2036 4703 
Q 1915 4825 1740 4825 
Q 1562 4825 1440 4703 
Q 1318 4581 1318 4406 
Q 1318 4234 1436 4106 
Q 1555 3978 1740 3978 
Q 1921 3978 2039 4104 
Q 2158 4231 2158 4406 
z
" transform="scale(0.015625)"/>
     <path id="LiberationSans-62" d="M 3291 1706 
Q 3291 -63 2047 -63 
Q 1663 -63 1408 76 
Q 1153 216 994 525 
L 988 525 
Q 988 428 975 229 
Q 963 31 956 0 
L 413 0 
Q 431 169 431 697 
L 431 4638 
L 994 4638 
L 994 3316 
Q 994 3113 981 2838 
L 994 2838 
Q 1150 3163 1408 3303 
Q 1666 3444 2047 3444 
Q 2688 3444 2989 3012 
Q 3291 2581 3291 1706 
z
M 2700 1688 
Q 2700 2397 2512 2703 
Q 2325 3009 1903 3009 
Q 1428 3009 1211 2684 
Q 994 2359 994 1653 
Q 994 988 1206 670 
Q 1419 353 1897 353 
Q 2322 353 2511 667 
Q 2700 981 2700 1688 
z
" transform="scale(0.015625)"/>
     <path id="LiberationSans-28" d="M 397 1663 
Q 397 2566 680 3284 
Q 963 4003 1550 4638 
L 2094 4638 
Q 1509 3988 1236 3256 
Q 963 2525 963 1656 
Q 963 791 1233 62 
Q 1503 -666 2094 -1325 
L 1550 -1325 
Q 959 -688 678 32 
Q 397 753 397 1650 
L 397 1663 
z
" transform="scale(0.015625)"/>
     <path id="LiberationSans-45" d="M 525 0 
L 525 4403 
L 3866 4403 
L 3866 3916 
L 1122 3916 
L 1122 2503 
L 3678 2503 
L 3678 2022 
L 1122 2022 
L 1122 488 
L 3994 488 
L 3994 0 
L 525 0 
z
" transform="scale(0.015625)"/>
     <path id="LiberationSans-29" d="M 1734 1650 
Q 1734 747 1451 28 
Q 1169 -691 581 -1325 
L 38 -1325 
Q 625 -669 897 57 
Q 1169 784 1169 1656 
Q 1169 2528 895 3256 
Q 622 3984 38 4638 
L 581 4638 
Q 1172 4000 1453 3279 
Q 1734 2559 1734 1663 
L 1734 1650 
z
" transform="scale(0.015625)"/>
    </defs>
    <use xlink:href="#LiberationSans-53"/>
    <use xlink:href="#LiberationSans-6f" transform="translate(66.699219 0)"/>
    <use xlink:href="#LiberationSans-75" transform="translate(122.314453 0)"/>
    <use xlink:href="#LiberationSans-72" transform="translate(177.929688 0)"/>
    <use xlink:href="#LiberationSans-63" transform="translate(211.230469 0)"/>
    <use xlink:href="#LiberationSans-65" transform="translate(261.230469 0)"/>
    <use xlink:href="#LiberationSans-3a" transform="translate(316.845703 0)"/>
    <use xlink:href="#LiberationSans-20" transform="translate(344.628906 0)"/>
    <use xlink:href="#LiberationSans-53" transform="translate(372.412109 0)"/>
    <use xlink:href="#LiberationSans-74" transform="translate(439.111328 0)"/>
    <use xlink:href="#LiberationSans-61" transform="translate(466.894531 0)"/>
    <use xlink:href="#LiberationSans-74" transform="translate(522.509766 0)"/>
    <use xlink:href="#LiberationSans-69" transform="translate(550.292969 0)"/>
    <use xlink:href="#LiberationSans-73" transform="translate(572.509766 0)"/>
    <use xlink:href="#LiberationSans-74" transform="translate(622.509766 0)"/>
    <use xlink:href="#LiberationSans-69" transform="translate(650.292969 0)"/>
    <use xlink:href="#LiberationSans-63" transform="translate(672.509766 0)"/>
    <use xlink:href="#LiberationSans-73" transform="translate(722.509766 0)"/>
    <use xlink:href="#LiberationSans-20" transform="translate(772.509766 0)"/>
    <use xlink:href="#LiberationSans-53" transform="translate(800.292969 0)"/>
    <use xlink:href="#LiberationSans-77" transform="translate(866.992188 0)"/>
    <use xlink:href="#LiberationSans-65" transform="translate(939.208984 0)"/>
    <use xlink:href="#LiberationSans-64" transform="translate(994.824219 0)"/>
    <use xlink:href="#LiberationSans-65" transform="translate(1050.439453 0)"/>
    <use xlink:href="#LiberationSans-6e" transform="translate(1106.054688 0)"/>
    <use xlink:href="#LiberationSans-20" transform="translate(1161.669922 0)"/>
    <use xlink:href="#LiberationSans-53" transform="translate(1189.453125 0)"/>
    <use xlink:href="#LiberationSans-43" transform="translate(1256.152344 0)"/>
    <use xlink:href="#LiberationSans-42" transform="translate(1328.369141 0)"/>
    <use xlink:href="#LiberationSans-20" transform="translate(1395.068359 0)"/>
    <use xlink:href="#LiberationSans-2d" transform="translate(1422.851562 0)"/>
    <use xlink:href="#LiberationSans-20" transform="translate(1456.152344 0)"/>
    <use xlink:href="#LiberationSans-49" transform="translate(1483.935547 0)"/>
    <use xlink:href="#LiberationSans-6e" transform="translate(1511.71875 0)"/>
    <use xlink:href="#LiberationSans-76" transform="translate(1567.333984 0)"/>
    <use xlink:href="#LiberationSans-61" transform="translate(1617.333984 0)"/>
    <use xlink:href="#LiberationSans-6e" transform="translate(1672.949219 0)"/>
    <use xlink:href="#LiberationSans-64" transform="translate(1728.564453 0)"/>
    <use xlink:href="#LiberationSans-72" transform="translate(1784.179688 0)"/>
    <use xlink:href="#LiberationSans-69" transform="translate(1817.480469 0)"/>
    <use xlink:href="#LiberationSans-6e" transform="translate(1839.697266 0)"/>
    <use xlink:href="#LiberationSans-67" transform="translate(1895.3125 0)"/>
    <use xlink:href="#LiberationSans-61" transform="translate(1950.927734 0)"/>
    <use xlink:href="#LiberationSans-72" transform="translate(2006.542969 0)"/>
    <use xlink:href="#LiberationSans-20" transform="translate(2039.84375 0)"/>
    <use xlink:href="#LiberationSans-6f" transform="translate(2067.626953 0)"/>
    <use xlink:href="#LiberationSans-63" transform="translate(2123.242188 0)"/>
    <use xlink:href="#LiberationSans-68" transform="translate(2173.242188 0)"/>
    <use xlink:href="#LiberationSans-20" transform="translate(2228.857422 0)"/>
    <use xlink:href="#LiberationSans-75" transform="translate(2256.640625 0)"/>
    <use xlink:href="#LiberationSans-74" transform="translate(2312.255859 0)"/>
    <use xlink:href="#LiberationSans-76" transform="translate(2340.039062 0)"/>
    <use xlink:href="#LiberationSans-61" transform="translate(2390.039062 0)"/>
    <use xlink:href="#LiberationSans-6e" transform="translate(2445.654297 0)"/>
    <use xlink:href="#LiberationSans-64" transform="translate(2501.269531 0)"/>
    <use xlink:href="#LiberationSans-72" transform="translate(2556.884766 0)"/>
    <use xlink:href="#LiberationSans-69" transform="translate(2590.185547 0)"/>
    <use xlink:href="#LiberationSans-6e" transform="translate(2612.402344 0)"/>
    <use xlink:href="#LiberationSans-67" transform="translate(2668.017578 0)"/>
    <use xlink:href="#LiberationSans-61" transform="translate(2723.632812 0)"/>
    <use xlink:href="#LiberationSans-72" transform="translate(2779.248047 0)"/>
    <use xlink:href="#LiberationSans-20" transform="translate(2812.548828 0)"/>
    <use xlink:href="#LiberationSans-65" transform="translate(2840.332031 0)"/>
    <use xlink:href="#LiberationSans-66" transform="translate(2895.947266 0)"/>
    <use xlink:href="#LiberationSans-74" transform="translate(2923.730469 0)"/>
    <use xlink:href="#LiberationSans-65" transform="translate(2951.513672 0)"/>
    <use xlink:href="#LiberationSans-72" transform="translate(3007.128906 0)"/>
    <use xlink:href="#LiberationSans-20" transform="translate(3040.429688 0)"/>
    <use xlink:href="#LiberationSans-66" transform="translate(3068.212891 0)"/>
    <use xlink:href="#LiberationSans-f6" transform="translate(3095.996094 0)"/>
    <use xlink:href="#LiberationSans-64" transform="translate(3151.611328 0)"/>
    <use xlink:href="#LiberationSans-65" transform="translate(3207.226562 0)"/>
    <use xlink:href="#LiberationSans-6c" transform="translate(3262.841797 0)"/>
    <use xlink:href="#LiberationSans-73" transform="translate(3285.058594 0)"/>
    <use xlink:href="#LiberationSans-65" transform="translate(3335.058594 0)"/>
    <use xlink:href="#LiberationSans-6c" transform="translate(3390.673828 0)"/>
    <use xlink:href="#LiberationSans-61" transform="translate(3412.890625 0)"/>
    <use xlink:href="#LiberationSans-6e" transform="translate(3468.505859 0)"/>
    <use xlink:href="#LiberationSans-64" transform="translate(3524.121094 0)"/>
    <use xlink:href="#LiberationSans-2c" transform="translate(3579.736328 0)"/>
    <use xlink:href="#LiberationSans-20" transform="translate(3607.519531 0)"/>
    <use xlink:href="#LiberationSans-6b" transform="translate(3635.302734 0)"/>
    <use xlink:href="#LiberationSans-f6" transform="translate(3685.302734 0)"/>
    <use xlink:href="#LiberationSans-6e" transform="translate(3740.917969 0)"/>
    <use xlink:href="#LiberationSans-2c" transform="translate(3796.533203 0)"/>
    <use xlink:href="#LiberationSans-20" transform="translate(3824.316406 0)"/>
    <use xlink:href="#LiberationSans-e5" transform="translate(3852.099609 0)"/>
    <use xlink:href="#LiberationSans-72" transform="translate(3907.714844 0)"/>
    <use xlink:href="#LiberationSans-20" transform="translate(3941.015625 0)"/>
    <use xlink:href="#LiberationSans-6f" transform="translate(3968.798828 0)"/>
    <use xlink:href="#LiberationSans-63" transform="translate(4024.414062 0)"/>
    <use xlink:href="#LiberationSans-68" transform="translate(4074.414062 0)"/>
    <use xlink:href="#LiberationSans-20" transform="translate(4130.029297 0)"/>
    <use xlink:href="#LiberationSans-74" transform="translate(4157.8125 0)"/>
    <use xlink:href="#LiberationSans-61" transform="translate(4185.595703 0)"/>
    <use xlink:href="#LiberationSans-62" transform="translate(4241.210938 0)"/>
    <use xlink:href="#LiberationSans-65" transform="translate(4296.826172 0)"/>
    <use xlink:href="#LiberationSans-6c" transform="translate(4352.441406 0)"/>
    <use xlink:href="#LiberationSans-6c" transform="translate(4374.658203 0)"/>
    <use xlink:href="#LiberationSans-69" transform="translate(4396.875 0)"/>
    <use xlink:href="#LiberationSans-6e" transform="translate(4419.091797 0)"/>
    <use xlink:href="#LiberationSans-6e" transform="translate(4474.707031 0)"/>
    <use xlink:href="#LiberationSans-65" transform="translate(4530.322266 0)"/>
    <use xlink:href="#LiberationSans-68" transform="translate(4585.9375 0)"/>
    <use xlink:href="#LiberationSans-e5" transform="translate(4641.552734 0)"/>
    <use xlink:href="#LiberationSans-6c" transform="translate(4697.167969 0)"/>
    <use xlink:href="#LiberationSans-6c" transform="translate(4719.384766 0)"/>
    <use xlink:href="#LiberationSans-20" transform="translate(4741.601562 0)"/>
    <use xlink:href="#LiberationSans-28" transform="translate(4769.384766 0)"/>
    <use xlink:href="#LiberationSans-42" transform="translate(4802.685547 0)"/>
    <use xlink:href="#LiberationSans-45" transform="translate(4869.384766 0)"/>
    <use xlink:href="#LiberationSans-30" transform="translate(4936.083984 0)"/>
    <use xlink:href="#LiberationSans-31" transform="translate(4991.699219 0)"/>
    <use xlink:href="#LiberationSans-30" transform="translate(5047.314453 0)"/>
    <use xlink:href="#LiberationSans-31" transform="translate(5102.929688 0)"/>
    <use xlink:href="#LiberationSans-29" transform="translate(5158.544922 0)"/>
   </g>
  </g>
 </g>
 <defs>
  <clipPath id="pdd9112f77e">
   <rect x="61.30125" y="27.69375" width="779.59" height="331.68"/>
  </clipPath>
 </defs>
</svg>
